<?xml version="1.0" standalone="no"?>
<!DOCTYPE svg PUBLIC "-//W3C//DTD SVG 20010904//EN"
 "http://www.w3.org/TR/2001/REC-SVG-20010904/DTD/svg10.dtd">
<svg version="1.0" xmlns="http://www.w3.org/2000/svg"
 width="620.000000pt" height="620.000000pt" viewBox="0 0 620.000000 620.000000"
 preserveAspectRatio="xMidYMid meet">
<metadata>
Created by potrace 1.14, written by Peter Selinger 2001-2017
</metadata>
<g transform="translate(0.000000,620.000000) scale(0.100000,-0.100000)"
fill="#000000" stroke="none">
<path d="M3390 6046 c0 -2 7 -7 16 -10 8 -3 12 -2 9 4 -6 10 -25 14 -25 6z"/>
<path d="M3338 6014 c-27 -6 -48 -10 -48 -8 0 3 -9 0 -20 -6 -15 -8 -20 -8
-20 2 0 9 -2 10 -8 2 -9 -15 -89 -37 -102 -29 -6 3 -10 2 -10 -3 0 -10 -119
-34 -131 -26 -5 3 -9 0 -9 -7 0 -7 -10 -9 -25 -7 -15 3 -22 1 -18 -5 4 -6 -4
-8 -20 -5 -15 3 -24 1 -21 -3 3 -5 -4 -10 -15 -10 -12 -1 -24 -2 -28 -4 -8 -2
-67 -14 -93 -19 -8 -2 -22 -6 -30 -9 -19 -7 -108 -27 -140 -31 -14 -2 -33 -7
-42 -11 -10 -4 -25 -4 -34 -1 -8 3 -13 2 -10 -3 3 -5 -13 -12 -37 -16 -23 -4
-46 -9 -52 -11 -5 -2 -22 -6 -37 -9 -15 -3 -39 -10 -53 -15 -16 -6 -25 -6 -25
0 0 6 -11 3 -25 -6 -14 -9 -25 -13 -25 -10 0 4 -9 2 -20 -4 -15 -8 -20 -8 -20
2 0 10 -2 10 -9 -1 -5 -8 -18 -12 -30 -8 -13 3 -19 1 -15 -5 5 -7 -2 -9 -19
-6 -15 3 -25 2 -22 -2 2 -3 -33 -14 -78 -24 -45 -10 -93 -21 -107 -25 -14 -5
-35 -7 -47 -6 -13 1 -23 -1 -23 -5 0 -4 -6 -7 -12 -8 -29 -4 -54 -10 -70 -17
-10 -4 -25 -4 -34 -1 -9 4 -13 2 -8 -5 5 -8 -3 -10 -24 -7 -17 2 -33 1 -34 -3
-2 -4 -19 -11 -38 -14 -19 -3 -52 -10 -73 -16 -20 -5 -43 -7 -49 -3 -7 4 -8 3
-4 -4 7 -12 -13 -16 -71 -15 -12 0 -20 -4 -17 -8 3 -5 -4 -9 -16 -9 -12 0 -31
-5 -42 -11 -16 -9 -19 -8 -12 3 6 10 5 11 -7 1 -12 -10 -18 -10 -28 0 -10 9
-12 9 -9 -2 2 -8 -8 -15 -26 -18 -16 -2 -46 -10 -67 -17 -28 -10 -39 -10 -39
-2 0 6 -5 4 -10 -4 -5 -8 -10 -11 -10 -6 0 5 -6 4 -12 -2 -7 -5 -29 -12 -48
-15 -19 -3 -73 -14 -120 -26 -47 -11 -96 -22 -110 -25 -14 -2 -32 -7 -40 -10
-8 -3 -28 -7 -45 -10 -16 -3 -44 -9 -62 -15 -18 -5 -40 -8 -50 -6 -10 1 -22
-1 -28 -5 -5 -5 -23 -11 -40 -14 -16 -3 -48 -10 -71 -15 -23 -6 -51 -9 -63 -6
-12 2 -19 0 -16 -5 5 -8 -71 -25 -107 -23 -10 0 -18 -4 -18 -10 0 -6 -3 -7 -6
-4 -4 3 -16 2 -27 -4 -14 -8 -18 -8 -12 1 5 8 2 9 -11 1 -11 -6 -38 -15 -60
-21 -68 -17 -71 -26 -44 -148 12 -59 35 -161 51 -227 22 -95 75 -326 94 -415
2 -8 10 -45 19 -81 8 -37 17 -78 20 -90 2 -13 19 -85 36 -159 17 -74 33 -142
35 -150 1 -8 26 -118 55 -245 28 -126 53 -238 55 -248 3 -10 6 -26 9 -35 3 -9
7 -28 10 -42 3 -14 21 -97 41 -185 21 -88 44 -189 52 -225 8 -36 16 -72 18
-80 7 -31 66 -289 70 -309 3 -11 7 -29 9 -38 2 -10 23 -101 46 -203 39 -176
43 -189 94 -270 30 -47 287 -454 572 -905 284 -451 555 -881 602 -955 125
-199 140 -220 163 -220 11 0 78 31 148 70 71 38 134 70 140 70 6 0 11 4 11 9
0 5 17 16 38 25 20 9 55 26 77 39 49 27 273 149 370 201 22 11 42 23 45 26 3
3 32 18 65 35 33 16 68 36 78 44 9 8 17 11 17 7 0 -4 12 2 26 13 15 12 30 21
34 21 4 0 71 36 150 80 79 45 150 78 157 76 8 -3 12 -2 8 3 -3 5 7 16 22 23
28 14 119 63 260 140 40 21 87 46 105 56 18 9 35 19 38 22 16 16 52 30 62 24
6 -4 8 -3 5 2 -3 6 31 29 76 53 45 23 109 58 142 76 141 78 176 95 187 89 6
-4 8 -3 4 4 -3 6 17 22 51 39 32 15 60 30 63 33 3 3 30 18 60 34 30 15 69 36
86 47 17 10 34 16 37 12 4 -3 7 -1 7 5 0 7 4 12 9 12 14 0 155 84 168 100 7 8
18 36 24 63 7 26 16 47 20 47 3 0 6 8 6 18 -1 24 23 104 35 120 6 6 8 12 5 12
-3 0 3 26 14 58 11 31 23 68 25 81 3 14 8 29 12 35 3 6 7 16 8 22 3 21 49 159
54 164 3 3 5 12 5 20 -1 8 2 20 6 25 4 6 10 27 14 47 4 23 11 35 18 31 6 -3 7
-1 3 5 -8 13 22 124 32 118 4 -2 8 12 9 32 1 20 7 38 13 40 5 2 8 8 5 12 -3 5
1 25 9 45 8 19 13 35 10 35 -3 0 1 10 8 23 12 22 14 28 16 60 1 11 7 15 14 11
7 -4 8 -3 4 4 -7 11 40 182 53 192 3 3 6 10 7 15 1 37 18 84 27 78 5 -3 7 -1
4 4 -4 6 2 39 13 73 11 35 20 69 20 76 0 8 4 14 8 14 4 0 9 12 10 27 1 15 10
44 21 65 10 21 14 35 10 32 -8 -5 -2 20 10 41 3 6 6 13 7 18 1 4 2 8 3 10 2 1
5 13 7 27 3 13 9 29 14 34 4 4 6 15 3 22 -3 8 -1 14 4 14 5 0 10 6 10 13 0 6
11 50 26 97 14 47 29 97 33 112 3 16 10 26 14 23 5 -3 6 4 3 15 -3 11 -1 20 5
20 6 0 8 9 5 20 -3 11 -1 20 4 20 5 0 10 6 10 13 0 13 30 121 40 147 3 8 5 18
5 23 -1 4 3 7 9 7 5 0 8 4 5 9 -4 5 -1 22 5 38 7 15 13 33 14 38 11 48 40 123
47 119 4 -3 5 2 2 10 -3 9 -3 24 1 34 8 17 12 30 18 55 2 6 8 22 15 33 6 12 9
23 7 26 -2 2 7 37 20 77 14 40 25 79 25 87 0 8 3 14 8 14 4 0 8 12 9 26 0 15
5 29 10 33 4 3 8 12 9 19 1 6 2 22 3 33 1 17 4 19 15 10 11 -9 16 -9 22 0 4 8
3 9 -4 5 -6 -4 -17 5 -26 22 -10 18 -40 41 -90 67 -42 21 -76 43 -76 47 0 4
-3 7 -7 6 -16 -5 -103 44 -96 54 3 6 1 8 -5 5 -14 -9 -43 3 -36 14 3 5 -1 7
-8 4 -7 -3 -29 5 -48 17 -41 27 -131 74 -217 117 -35 17 -63 36 -63 42 0 5 -4
8 -9 4 -5 -3 -16 1 -24 9 -8 8 -17 12 -21 9 -3 -3 -8 2 -12 11 -3 9 -10 13
-15 11 -5 -3 -19 1 -31 9 -31 20 -143 80 -196 105 -24 11 -41 24 -38 29 3 5
-5 8 -17 8 -13 -1 -21 4 -19 12 1 8 -2 11 -8 7 -13 -8 -91 35 -84 46 3 5 -1 6
-9 3 -8 -3 -21 1 -28 8 -8 7 -20 14 -26 15 -7 2 -64 30 -128 65 -82 43 -112
64 -103 71 9 6 8 7 -4 3 -22 -7 -139 54 -131 67 3 6 1 7 -4 4 -14 -9 -65 17
-55 28 4 5 2 5 -4 2 -7 -4 -48 13 -93 38 -45 25 -86 45 -91 45 -6 0 -10 3 -10
8 0 4 -20 16 -44 27 -24 11 -42 24 -39 29 4 5 1 6 -5 2 -6 -3 -32 6 -59 21
-26 16 -60 34 -75 42 -15 8 -25 19 -21 24 3 6 1 7 -5 4 -15 -10 -43 3 -35 16
3 5 1 7 -5 3 -10 -6 -141 59 -153 77 -3 5 -10 9 -15 10 -21 2 -64 22 -64 29 0
4 -7 8 -15 8 -8 0 -15 5 -15 12 0 6 -3 9 -6 5 -4 -3 -27 6 -53 20 -25 14 -64
35 -86 47 -22 12 -42 24 -45 27 -3 3 -26 0 -52 -7z m-21 -121 c-3 -5 -8 -80
-12 -168 -4 -88 -8 -178 -10 -200 -2 -22 -6 -96 -10 -165 -4 -69 -8 -150 -10
-180 -2 -30 -6 -109 -10 -175 -3 -66 -8 -145 -10 -175 -4 -52 -11 -181 -20
-355 -2 -44 -6 -123 -9 -175 -3 -52 -8 -133 -11 -180 -10 -183 -17 -286 -20
-320 -2 -19 -4 -51 -4 -72 -1 -35 -3 -37 -60 -56 -33 -11 -62 -18 -65 -14 -3
3 -6 0 -6 -7 0 -8 -7 -11 -15 -7 -8 3 -15 2 -15 -3 0 -8 -56 -25 -72 -22 -5 0
-8 -4 -8 -10 0 -6 -9 -8 -22 -3 -13 3 -20 3 -15 -2 6 -6 -52 -33 -73 -34 -12
0 -60 52 -55 59 2 5 -1 8 -8 7 -18 -2 -99 72 -92 84 3 5 0 7 -8 5 -7 -3 -25 7
-39 22 -14 15 -38 39 -52 52 -22 20 -24 26 -14 40 12 14 11 14 -5 2 -15 -12
-22 -10 -55 22 -127 121 -155 147 -164 147 -5 0 -6 5 -3 10 3 6 0 10 -7 10
-15 0 -93 78 -93 94 -1 6 -6 10 -13 9 -19 -4 -86 64 -70 71 7 3 2 3 -11 0 -20
-5 -23 -3 -18 10 4 10 3 15 -2 12 -13 -8 -92 64 -84 78 3 6 2 8 -2 3 -10 -9
-47 22 -39 34 3 5 -1 6 -9 4 -15 -6 -90 69 -79 79 3 4 -2 4 -13 0 -15 -6 -17
-4 -12 10 4 9 3 15 -2 11 -5 -3 -22 6 -38 20 -79 73 -93 87 -88 95 3 5 0 12
-6 16 -8 4 -9 3 -5 -4 11 -19 -8 -14 -25 6 -9 9 -39 37 -67 62 -29 25 -50 50
-48 57 3 7 0 10 -7 8 -7 -3 -41 23 -77 56 -36 34 -58 58 -50 54 9 -5 12 -4 7
1 -8 9 -12 10 -38 13 -6 0 -8 8 -5 17 3 8 2 13 -3 10 -10 -7 -57 33 -53 45 1
5 -4 8 -10 7 -7 -2 -12 3 -10 10 1 8 -1 11 -6 8 -4 -2 -14 -1 -22 4 -12 7 -12
11 1 27 12 16 12 17 -1 6 -13 -10 -22 -7 -48 13 -18 14 -29 30 -26 36 4 6 2 8
-4 4 -5 -3 -12 -3 -14 1 -1 5 -19 21 -38 37 -19 15 -54 46 -78 68 -37 34 -41
42 -30 56 12 15 11 15 -4 4 -14 -12 -21 -9 -50 19 -18 17 -32 35 -30 40 1 5
-1 8 -6 7 -11 -4 -62 38 -62 51 0 6 -6 10 -12 9 -7 -2 -12 3 -10 10 1 6 -3 11
-9 10 -6 -2 -13 2 -15 7 -3 6 23 17 58 24 35 7 108 23 163 37 55 13 109 26
120 29 28 5 492 113 540 125 70 17 219 52 244 57 14 2 79 17 145 33 67 15 137
32 156 36 19 4 37 8 40 9 3 1 50 11 105 24 55 13 114 27 130 32 17 5 44 11 60
14 17 2 98 21 180 40 83 20 161 38 175 41 14 3 77 18 140 33 118 30 165 37
157 24z m179 -49 c38 -20 96 -51 129 -69 33 -18 94 -50 135 -72 41 -23 278
-150 525 -283 248 -133 484 -260 525 -282 41 -22 98 -53 125 -68 117 -65 151
-83 263 -141 64 -34 122 -65 127 -69 6 -4 45 -26 88 -49 42 -22 110 -59 150
-80 39 -21 91 -49 115 -61 23 -12 42 -26 42 -31 0 -5 3 -8 8 -8 25 4 34 -3 14
-12 -13 -5 -29 -6 -34 -2 -7 4 -8 1 -3 -7 6 -10 3 -12 -13 -8 -12 4 -20 2 -17
-2 3 -5 -9 -12 -27 -15 -18 -4 -37 -11 -43 -15 -14 -10 -155 -61 -155 -55 0 2
-12 -2 -27 -10 -15 -8 -30 -12 -35 -9 -4 3 -8 0 -8 -7 0 -7 -3 -9 -7 -6 -3 4
-11 3 -17 -1 -22 -17 -107 -44 -121 -38 -8 3 -14 0 -12 -7 1 -7 -9 -12 -25
-11 -15 0 -25 -3 -23 -6 3 -4 -15 -13 -38 -21 -23 -8 -42 -12 -43 -9 0 3 -8
-1 -17 -8 -9 -8 -22 -10 -28 -6 -7 4 -9 3 -5 -4 5 -9 -37 -26 -69 -27 -5 0
-12 -3 -15 -6 -5 -6 -114 -47 -142 -54 -9 -2 -26 -9 -38 -15 -11 -6 -25 -8
-30 -5 -6 3 -10 2 -10 -2 0 -11 -60 -34 -71 -27 -5 3 -9 0 -9 -7 0 -7 -10 -9
-25 -7 -13 3 -22 2 -20 -2 7 -11 -134 -62 -147 -54 -7 4 -8 2 -4 -4 6 -10 -16
-18 -27 -9 -2 1 -11 -4 -20 -11 -9 -8 -21 -11 -27 -7 -5 3 -10 2 -10 -2 0 -13
-97 -46 -111 -37 -8 4 -9 3 -5 -4 4 -7 -9 -15 -34 -22 -22 -6 -81 -27 -132
-46 -79 -31 -95 -34 -113 -23 -17 11 -18 10 -7 -3 10 -13 2 -19 -60 -42 -40
-15 -80 -28 -88 -30 -8 -3 -27 -9 -41 -14 -15 -6 -30 -8 -33 -5 -3 4 -6 1 -6
-5 0 -7 -8 -12 -18 -12 -10 0 -22 -3 -26 -7 -4 -5 -11 -8 -14 -9 -4 0 -14 -4
-22 -7 -8 -4 -53 -20 -100 -36 -47 -16 -128 -45 -182 -64 -81 -30 -96 -33 -93
-19 2 9 4 39 4 65 1 36 4 46 14 41 9 -6 9 -4 1 7 -6 8 -10 30 -9 49 2 19 4 67
5 105 2 39 7 75 12 82 5 7 5 14 -2 18 -6 3 -8 10 -5 15 6 9 15 147 16 238 0
37 5 62 11 62 6 0 6 6 -2 15 -10 12 -10 18 -1 29 8 10 9 16 1 21 -6 3 -7 12
-3 18 4 6 6 26 5 45 -2 24 1 31 9 26 8 -5 9 -3 3 7 -4 8 -7 48 -5 89 7 134 9
175 11 175 1 0 2 23 3 50 1 28 6 56 11 64 6 9 5 12 -2 7 -7 -4 -9 3 -7 21 2
16 4 28 5 28 1 0 2 29 2 65 1 36 6 71 12 79 9 12 8 13 -3 6 -10 -6 -12 -4 -6
6 5 7 8 37 7 66 0 29 3 55 9 58 5 4 6 11 2 18 -3 6 -5 34 -4 61 6 95 9 161 10
224 1 45 4 61 13 56 7 -5 8 -3 2 7 -11 18 -14 39 -6 39 4 0 7 34 6 75 -1 49 3
75 10 75 6 0 4 5 -4 10 -37 24 14 7 76 -26z m-2685 -567 c21 -17 76 -68 124
-112 48 -44 96 -87 106 -96 11 -9 63 -57 116 -106 54 -49 127 -116 163 -148
36 -33 70 -64 76 -70 6 -5 51 -47 100 -91 49 -45 101 -93 115 -105 14 -13 65
-60 113 -104 115 -104 116 -105 226 -205 51 -47 101 -92 110 -100 9 -8 61 -55
115 -105 53 -49 107 -99 120 -110 194 -176 246 -224 306 -280 25 -24 65 -60
88 -80 40 -32 43 -37 25 -34 -4 0 -10 -4 -13 -10 -4 -6 -18 -12 -31 -13 -14
-2 -31 -9 -39 -16 -8 -8 -22 -11 -33 -9 -10 3 -16 1 -12 -4 3 -5 -1 -9 -9 -9
-12 0 -39 -9 -142 -50 -35 -14 -180 -64 -190 -66 -5 -1 -21 -6 -35 -12 -14 -5
-28 -10 -32 -11 -4 -1 -24 -9 -43 -17 -20 -8 -41 -12 -47 -8 -7 4 -8 3 -4 -4
4 -8 0 -12 -11 -12 -11 0 -25 -6 -32 -12 -10 -11 -24 -1 -71 51 -33 35 -56 69
-53 74 3 6 2 7 -4 4 -8 -5 -43 25 -43 38 0 3 -14 18 -31 34 -17 17 -28 35 -24
40 3 7 0 8 -9 5 -9 -3 -16 -2 -16 2 0 5 -16 26 -35 48 -19 21 -32 42 -29 47 3
5 0 8 -8 7 -7 -2 -12 3 -10 10 1 8 -2 11 -6 8 -8 -5 -65 54 -128 133 -10 13
-34 38 -51 55 -18 17 -33 34 -33 37 0 4 -16 23 -36 43 -19 19 -33 40 -29 46 3
5 -1 10 -10 10 -21 0 -66 51 -60 68 3 7 1 11 -4 8 -5 -3 -31 20 -57 51 -27 31
-60 67 -74 79 -14 13 -20 24 -15 24 5 0 -1 7 -13 16 -12 8 -20 20 -16 25 3 5
1 8 -4 7 -9 -3 -202 204 -202 216 0 2 -21 25 -46 50 -25 25 -42 46 -39 46 4 0
-10 16 -31 35 -21 19 -34 35 -28 35 5 0 1 5 -9 11 -9 6 -14 15 -11 21 4 6 3 8
-3 5 -8 -5 -53 34 -53 47 0 2 -31 37 -70 77 -38 41 -68 79 -65 86 2 7 -2 10
-11 6 -7 -3 -14 -1 -14 3 0 5 -14 24 -31 42 -16 17 -28 32 -25 32 3 0 -18 23
-46 50 -28 28 -47 50 -43 50 5 0 -3 9 -16 21 -13 12 -23 25 -22 30 2 5 -3 8
-10 6 -6 -1 -11 6 -11 15 1 10 -3 16 -9 15 -6 -1 -16 8 -22 20 -7 13 -14 20
-18 17 -3 -3 -10 3 -16 15 -10 17 -8 19 9 16 11 -2 20 0 20 4 0 4 6 8 13 9 50
5 75 10 83 14 9 6 43 13 96 22 15 3 31 7 36 9 4 3 25 8 47 11 22 4 54 10 70
15 54 17 79 12 116 -22z m-461 -268 c0 -4 17 -24 38 -45 31 -33 124 -136 191
-213 43 -48 137 -155 146 -165 6 -6 58 -65 115 -131 58 -66 107 -122 110 -125
3 -3 36 -41 75 -85 38 -44 72 -82 75 -85 3 -3 37 -41 75 -85 39 -44 82 -93 97
-110 14 -16 35 -39 45 -51 56 -64 131 -149 148 -168 11 -12 49 -55 85 -96 36
-41 74 -84 85 -96 11 -12 29 -33 40 -45 26 -30 99 -113 179 -203 113 -127 102
-104 111 -231 3 -44 8 -111 10 -150 3 -38 7 -98 10 -131 l4 -62 -47 -20 c-26
-11 -69 -28 -97 -37 -27 -10 -56 -23 -62 -28 -7 -5 -13 -6 -13 -2 0 4 -6 3
-12 -2 -12 -10 -69 -26 -77 -23 -2 1 -7 -2 -10 -7 -10 -15 -172 -74 -183 -67
-7 4 -8 2 -4 -4 7 -11 3 -13 -36 -16 -7 -1 -15 -3 -18 -6 -12 -12 -82 -40 -90
-35 -4 3 -13 -2 -20 -9 -6 -8 -24 -18 -40 -21 -16 -4 -46 -15 -67 -25 -21 -10
-41 -16 -45 -13 -5 2 -8 0 -8 -6 0 -5 -11 -8 -25 -6 -14 1 -23 0 -20 -3 6 -6
-29 -23 -122 -57 -38 -14 -65 -19 -69 -13 -3 5 -3 12 0 15 3 3 2 11 -3 17 -5
6 -11 27 -13 46 -1 19 -6 37 -9 40 -4 3 -9 21 -12 40 -4 19 -11 54 -17 78 -6
24 -8 47 -5 53 4 5 1 9 -4 9 -6 0 -11 11 -11 24 0 14 -4 36 -10 50 -7 19 -6
26 3 26 9 0 9 2 -1 8 -7 5 -14 23 -15 40 -1 18 -5 32 -8 32 -3 0 -6 6 -7 13 0
6 -3 23 -7 37 -3 14 -8 36 -11 50 -3 14 -9 39 -14 55 -5 17 -11 47 -12 67 -2
21 -6 38 -9 38 -7 0 -21 70 -23 117 0 17 -4 29 -7 27 -4 -2 -10 13 -14 34 -12
65 -15 75 -43 192 -19 79 -25 117 -18 122 7 5 6 8 -3 8 -8 0 -11 7 -8 20 3 11
2 18 -2 15 -8 -5 -35 115 -36 157 0 14 -2 24 -5 22 -4 -5 -11 21 -60 241 -40
178 -51 230 -53 245 -2 8 -7 21 -11 29 -7 11 -6 12 5 6 11 -7 12 -6 3 6 -10
13 -18 39 -44 154 -22 93 -23 100 -24 123 -1 12 -5 22 -9 22 -5 0 -6 4 -2 9 3
5 1 12 -5 16 -6 4 -8 10 -6 14 3 4 -1 32 -9 62 -18 66 -19 93 -3 83 7 -4 8 -3
4 5 -4 6 -11 9 -16 6 -4 -3 -10 2 -14 10 -3 8 -1 15 4 15 6 0 10 5 10 11 0 5
-4 8 -9 5 -7 -4 -29 81 -36 134 0 3 -4 11 -8 18 -5 7 -3 12 5 13 10 0 10 2 1
6 -7 2 -13 11 -13 19 0 11 4 10 20 -3 11 -10 20 -20 20 -24z m5450 -488 c0 -8
-16 -61 -77 -251 -15 -47 -31 -88 -36 -91 -5 -3 -8 -10 -7 -15 2 -10 -32 -23
-42 -17 -5 2 -8 -1 -8 -6 0 -6 -7 -11 -15 -11 -13 0 -44 -12 -112 -43 -11 -5
-27 -6 -34 -2 -7 5 -10 4 -6 -2 8 -12 -20 -26 -34 -17 -5 3 -9 1 -9 -3 0 -15
-58 -33 -64 -19 -2 6 -5 4 -5 -5 -1 -18 -45 -34 -63 -23 -6 4 -8 3 -5 -3 7
-12 -62 -35 -76 -26 -6 3 -7 1 -3 -5 4 -6 -15 -17 -46 -27 -29 -10 -59 -22
-65 -28 -7 -5 -13 -7 -13 -4 0 3 -12 0 -27 -8 -15 -8 -30 -12 -35 -9 -4 3 -8
0 -8 -5 0 -6 -6 -11 -14 -11 -7 0 -39 -11 -70 -25 -31 -14 -56 -22 -56 -19 0
4 -10 0 -22 -8 -13 -8 -54 -26 -93 -39 -38 -13 -73 -28 -77 -34 -4 -5 -8 -7
-8 -3 0 4 -21 -2 -46 -12 -25 -11 -51 -17 -56 -13 -6 3 -8 2 -5 -4 5 -8 -91
-46 -109 -43 -4 1 -10 -2 -13 -7 -3 -5 -42 -22 -86 -38 -44 -16 -85 -33 -92
-38 -7 -5 -17 -6 -23 -2 -5 3 -10 2 -10 -3 0 -5 -8 -12 -17 -15 -10 -3 -49
-17 -87 -31 -38 -14 -74 -23 -79 -19 -6 3 -7 2 -4 -4 8 -12 -90 -46 -106 -36
-5 3 -7 1 -4 -4 4 -6 -30 -24 -81 -43 -48 -18 -97 -37 -109 -42 -11 -6 -27 -7
-34 -3 -8 5 -10 4 -5 -3 6 -11 -5 -15 -30 -11 -4 0 -10 -5 -14 -11 -4 -7 -19
-13 -33 -13 -14 -1 -24 -5 -22 -8 2 -3 -13 -11 -33 -18 -62 -21 -196 -74 -207
-81 -5 -4 -20 -6 -32 -5 -12 1 -20 -2 -18 -6 5 -8 -19 -19 -41 -19 -9 0 -13 4
-10 8 3 5 6 36 7 70 1 38 6 59 12 55 6 -4 7 -1 1 8 -9 15 -13 69 -4 69 3 0 4
21 4 47 -1 27 2 53 8 60 5 7 5 13 -1 17 -5 3 -6 18 -2 33 6 22 20 31 96 58 50
18 135 49 190 70 55 20 111 40 125 45 58 19 257 91 275 100 11 5 43 16 70 25
28 9 57 18 65 22 8 3 17 7 20 8 3 1 12 4 20 8 8 3 49 17 90 32 41 15 98 35
125 45 146 54 781 284 980 355 72 25 146 52 165 59 19 8 60 23 90 34 30 11 84
32 120 45 75 29 80 30 80 18z m-159 -510 c-6 -10 -7 -21 -4 -25 3 -3 2 -6 -3
-6 -5 0 -10 -8 -10 -17 -1 -15 -55 -190 -136 -443 -12 -36 -23 -69 -24 -75 -8
-29 -49 -161 -104 -335 -34 -107 -70 -222 -80 -255 -19 -63 -92 -294 -183
-585 -31 -96 -74 -236 -97 -310 -23 -74 -47 -148 -53 -165 -7 -16 -12 -34 -12
-39 0 -5 -8 -10 -18 -12 -11 -1 -22 -6 -25 -10 -4 -4 1 -4 10 -1 10 3 20 2 23
-3 4 -6 1 -10 -5 -10 -6 0 -8 -4 -5 -10 11 -17 -5 -32 -21 -19 -7 6 -11 16 -7
22 3 5 2 7 -4 4 -9 -6 -114 84 -205 175 -21 21 -38 35 -38 32 0 -3 -7 1 -15
10 -18 17 -20 30 -3 20 7 -4 8 -3 4 5 -4 6 -11 9 -16 6 -9 -5 -49 28 -142 117
-21 20 -52 47 -68 60 -29 22 -43 47 -18 32 7 -4 8 -3 4 4 -4 6 -13 9 -21 5 -9
-3 -15 1 -15 11 0 9 -6 15 -12 14 -7 -2 -11 4 -10 12 2 8 0 12 -4 7 -10 -10
-45 23 -37 36 3 6 1 7 -5 3 -7 -4 -32 13 -58 39 -26 25 -51 45 -56 45 -5 0 -6
5 -3 10 3 6 0 10 -7 10 -15 0 -54 41 -50 53 1 4 -2 6 -7 5 -14 -5 -131 104
-124 115 3 6 2 7 -4 4 -5 -3 -26 9 -46 27 -35 32 -50 55 -25 40 7 -4 8 -3 4 4
-4 6 -13 9 -21 6 -8 -3 -20 4 -27 15 -7 12 -19 21 -26 21 -8 0 -11 9 -8 25 3
15 1 23 -5 20 -5 -4 -7 -11 -4 -16 13 -21 -14 -7 -37 20 -14 15 -36 35 -48 44
-19 13 -21 19 -11 31 9 11 9 16 0 22 -7 4 -9 3 -5 -4 3 -6 2 -13 -4 -17 -11
-7 -67 44 -62 57 1 4 -5 8 -13 8 -8 0 -30 15 -48 33 -19 17 -73 68 -120 111
-48 43 -84 83 -80 89 3 6 1 7 -4 4 -6 -4 -23 5 -38 19 l-28 26 189 75 c104 41
194 75 199 77 6 2 24 8 40 15 17 6 41 16 55 21 14 5 39 15 55 21 17 7 35 13
40 15 6 1 44 16 85 32 41 17 165 65 275 107 210 81 310 119 360 140 17 7 53
21 80 30 28 10 56 23 62 28 7 5 20 7 28 3 8 -3 15 -2 15 3 0 4 39 22 88 41 48
18 98 37 112 43 14 6 27 11 30 11 3 1 64 24 135 52 72 29 191 75 265 103 74
29 151 58 170 66 47 19 52 18 41 -4z m-2455 -449 c-3 -6 -18 -207 -19 -271
l-1 -23 -18 22 c-10 12 -18 19 -18 15 0 -4 -21 13 -46 39 -26 25 -51 46 -56
46 -6 0 -7 7 -4 16 3 8 2 12 -4 9 -13 -8 -61 36 -53 48 3 6 1 7 -4 4 -6 -4
-16 0 -22 7 -14 17 2 31 24 22 8 -3 18 0 22 7 5 7 49 27 98 44 83 28 112 32
101 15z m-277 -197 c30 -27 84 -78 119 -112 36 -35 68 -63 72 -63 4 0 10 -6
13 -14 4 -10 -3 -17 -23 -21 -16 -4 -33 -6 -36 -5 -4 1 -10 -3 -13 -8 -9 -13
-122 -55 -148 -54 -13 0 -20 -4 -17 -9 3 -5 0 -10 -5 -10 -21 -3 -26 -4 -38
-12 -7 -5 -18 -5 -25 -1 -7 5 -8 3 -3 -6 6 -10 3 -12 -13 -8 -12 4 -20 2 -16
-3 3 -5 -4 -9 -15 -9 -11 0 -23 -5 -26 -11 -4 -6 -13 -8 -21 -5 -8 3 -14 1
-14 -4 0 -12 -67 -33 -81 -24 -7 4 -9 3 -6 -2 8 -13 -108 -58 -124 -49 -7 5
-10 4 -6 -2 9 -14 -107 -58 -124 -47 -7 4 -10 3 -5 -4 8 -13 -29 -26 -45 -16
-7 4 -9 3 -5 -4 6 -10 -59 -39 -76 -34 -5 1 -8 -2 -8 -6 0 -5 -7 -9 -15 -10
-8 -1 -22 -3 -30 -4 -8 -1 -15 -5 -15 -9 0 -4 -13 -10 -30 -14 -16 -4 -33 -7
-36 -8 -3 -1 -8 21 -9 48 -2 28 -6 82 -9 120 -3 39 -8 107 -11 151 l-6 82 28
8 c15 4 33 8 38 8 6 1 12 4 15 7 3 3 59 25 125 48 66 24 147 54 180 66 33 13
114 42 180 65 66 23 129 46 140 50 53 22 46 25 144 -65z m247 -323 c-2 -9 -7
-78 -11 -152 -15 -280 -24 -449 -30 -540 -2 -36 -7 -119 -10 -185 -3 -66 -8
-145 -10 -175 -2 -30 -6 -99 -9 -152 -11 -194 -16 -285 -21 -373 -3 -49 -7
-124 -10 -165 -2 -41 -7 -127 -10 -190 -3 -63 -8 -140 -10 -170 -1 -30 -6
-113 -10 -185 -7 -140 -11 -168 -26 -160 -5 4 -9 2 -9 -3 0 -5 -15 -15 -32
-23 -18 -7 -36 -18 -40 -23 -5 -8 -15 -6 -30 3 -21 13 -22 13 -10 -2 15 -18 0
-32 -24 -23 -8 3 -13 2 -10 -3 3 -4 -7 -14 -22 -22 -14 -8 -51 -29 -82 -47
-30 -18 -60 -30 -68 -27 -7 2 -11 1 -8 -4 8 -12 -72 -53 -86 -45 -6 4 -8 2 -4
-4 6 -10 -30 -28 -46 -24 -5 1 -8 -2 -8 -8 0 -14 -80 -51 -94 -43 -6 3 -8 3
-4 -2 10 -11 -29 -38 -42 -30 -6 3 -10 2 -10 -4 0 -14 -52 -39 -69 -33 -8 3
-11 0 -7 -6 3 -6 2 -13 -3 -16 -5 -3 -11 10 -13 28 -2 22 0 32 7 28 6 -4 6 -1
-1 9 -6 8 -12 34 -13 59 -2 25 -5 68 -7 95 -1 28 -5 74 -8 103 -4 39 -2 51 7
45 9 -5 9 -3 1 8 -16 20 -25 141 -10 132 6 -4 5 1 -3 10 -7 9 -11 23 -8 31 3
8 3 17 -1 21 -4 3 -7 23 -8 43 -2 51 -12 193 -19 272 -3 36 -8 99 -11 140 -6
99 -11 158 -18 253 -4 44 -9 106 -11 138 -2 33 -7 64 -10 69 -3 5 -1 11 5 15
6 4 8 10 6 14 -7 11 -14 58 -17 111 -2 32 1 44 10 42 7 -1 10 2 6 8 -3 6 -11
8 -16 5 -5 -4 -9 -1 -9 4 0 6 6 11 13 11 9 0 9 2 0 8 -8 5 -15 45 -18 107 -3
55 -7 118 -9 140 -6 65 -17 210 -31 412 -6 87 -5 92 15 103 12 6 28 9 36 6 8
-3 13 -2 10 2 -4 7 345 149 489 199 22 7 49 17 60 22 18 8 69 28 120 47 11 4
85 33 165 64 80 31 148 55 152 53 4 -2 5 -11 4 -21z m164 -57 c0 3 10 -4 23
-17 13 -13 57 -53 98 -89 41 -37 86 -77 100 -90 14 -13 63 -58 108 -99 46 -41
98 -88 115 -105 18 -16 77 -70 131 -120 55 -49 122 -111 150 -137 27 -25 60
-55 73 -66 19 -17 125 -113 213 -193 14 -13 67 -62 119 -109 51 -47 105 -96
120 -110 158 -145 217 -199 241 -219 16 -13 29 -28 29 -32 0 -14 -80 -50 -92
-43 -6 4 -8 3 -4 -4 3 -6 -13 -20 -41 -33 -27 -13 -59 -31 -73 -40 -53 -34
-257 -139 -263 -134 -4 3 -5 2 -2 -2 3 -4 -9 -14 -27 -23 -18 -9 -82 -44 -143
-77 -169 -93 -245 -133 -245 -128 0 3 -9 -4 -21 -16 -11 -11 -27 -18 -35 -15
-8 3 -13 2 -10 -3 7 -11 -22 -23 -36 -14 -6 3 -9 2 -5 -3 7 -12 -131 -86 -145
-78 -6 4 -8 3 -5 -2 7 -13 -109 -77 -123 -69 -6 4 -9 2 -8 -4 4 -15 -141 -93
-156 -84 -6 3 -8 2 -4 -2 5 -5 -18 -23 -50 -40 -39 -22 -59 -29 -64 -21 -5 7
-8 5 -8 -5 0 -14 -16 -27 -40 -34 -3 0 -21 -11 -40 -23 -19 -12 -41 -20 -48
-17 -7 3 -11 1 -8 -4 3 -5 0 -11 -8 -14 -12 -5 -14 8 -10 71 3 42 6 100 7 127
2 28 6 56 10 62 4 6 3 14 -3 18 -6 4 -8 10 -5 15 4 7 10 85 19 280 1 19 5 41
9 48 5 7 3 12 -4 12 -9 0 -10 3 -3 10 6 6 9 29 7 51 -3 27 -1 39 6 34 6 -3 11
-1 11 4 0 6 -5 11 -10 11 -6 0 -8 12 -5 28 3 15 6 54 6 87 1 33 5 68 10 77 6
10 5 19 -1 23 -6 4 -8 9 -6 13 2 4 7 70 11 147 5 77 9 156 10 176 1 20 5 41 9
47 3 6 2 13 -4 17 -6 4 -8 11 -5 16 4 5 8 50 11 101 2 51 6 127 9 168 3 41 7
129 11 195 3 66 7 131 7 145 1 14 7 28 12 32 6 5 5 8 -3 8 -7 0 -10 4 -7 10 3
5 8 71 12 147 5 132 9 182 12 193 1 3 15 -10 31 -28 17 -18 30 -30 30 -27z
m-1326 -373 c5 -9 12 -78 21 -217 3 -44 7 -100 10 -125 2 -25 7 -85 10 -135 9
-136 14 -214 20 -280 3 -33 8 -89 10 -125 8 -116 16 -224 20 -280 11 -136 15
-190 20 -265 3 -44 8 -102 10 -130 2 -27 6 -90 10 -140 3 -49 8 -110 10 -135
7 -66 16 -204 20 -292 2 -42 6 -82 10 -87 3 -6 0 -11 -7 -11 -8 0 -9 -3 -3 -8
6 -4 11 -18 11 -31 l2 -24 -19 24 c-10 13 -19 29 -19 35 0 5 -8 19 -17 30 -29
33 -44 64 -37 76 4 6 3 8 -3 5 -12 -8 -43 34 -43 58 0 9 -4 14 -9 11 -12 -8
-23 22 -14 37 3 7 3 9 -2 5 -11 -10 -44 34 -37 51 3 8 1 12 -5 8 -14 -9 -56
60 -47 75 4 7 2 8 -4 4 -7 -4 -29 23 -57 71 -25 43 -82 133 -126 201 -43 68
-76 128 -73 134 4 7 2 8 -5 4 -6 -4 -14 0 -18 10 -3 10 -26 47 -49 82 -24 36
-40 70 -37 76 3 6 3 8 -2 4 -7 -6 -33 31 -86 122 -8 14 -17 27 -20 30 -8 6
-88 138 -103 167 -6 13 -14 23 -18 23 -5 0 -8 7 -8 15 0 8 -4 15 -10 15 -5 0
-10 6 -10 14 0 7 -7 19 -15 26 -8 7 -13 16 -10 20 3 4 -2 10 -10 14 -8 3 -15
12 -15 21 0 8 -3 15 -8 15 -4 0 -16 17 -27 38 -11 20 -24 42 -28 47 -38 48
-97 157 -91 166 4 7 3 9 -3 6 -14 -9 -46 40 -37 55 4 6 3 8 -4 5 -6 -4 -24 15
-41 43 -35 57 -37 65 -15 56 8 -3 13 -2 10 3 -3 4 9 13 27 18 18 6 127 48 242
93 116 45 316 122 445 172 129 49 242 94 250 99 19 11 28 11 34 1z"/>
<path d="M1199 5113 c-13 -16 -12 -17 4 -4 16 13 21 21 13 21 -2 0 -10 -8 -17
-17z"/>
<path d="M1919 4473 c-13 -16 -12 -17 4 -4 16 13 21 21 13 21 -2 0 -10 -8 -17
-17z"/>
<path d="M2287 4119 c7 -7 15 -10 18 -7 3 3 -2 9 -12 12 -14 6 -15 5 -6 -5z"/>
<path d="M2545 3880 c-3 -6 1 -7 9 -4 18 7 21 14 7 14 -6 0 -13 -4 -16 -10z"/>
<path d="M4953 4375 c0 -8 4 -12 9 -9 5 3 6 10 3 15 -9 13 -12 11 -12 -6z"/>
<path d="M3353 4135 c0 -8 4 -12 9 -9 5 3 6 10 3 15 -9 13 -12 11 -12 -6z"/>
<path d="M3315 3771 c-3 -5 -2 -12 3 -15 5 -3 9 1 9 9 0 17 -3 19 -12 6z"/>
<path d="M370 5180 c0 -5 5 -10 11 -10 5 0 7 5 4 10 -3 6 -8 10 -11 10 -2 0
-4 -4 -4 -10z"/>
<path d="M575 4939 c-3 -4 2 -6 10 -5 21 3 28 13 10 13 -9 0 -18 -4 -20 -8z"/>
<path d="M750 4761 c0 -6 4 -13 10 -16 6 -3 7 1 4 9 -7 18 -14 21 -14 7z"/>
<path d="M995 4460 c-3 -5 -1 -10 4 -10 6 0 11 5 11 10 0 6 -2 10 -4 10 -3 0
-8 -4 -11 -10z"/>
<path d="M1086 4338 c3 -5 10 -6 15 -3 13 9 11 12 -6 12 -8 0 -12 -4 -9 -9z"/>
<path d="M1456 3938 c3 -5 10 -6 15 -3 13 9 11 12 -6 12 -8 0 -12 -4 -9 -9z"/>
<path d="M1696 3682 c-3 -5 1 -9 9 -9 8 0 12 4 9 9 -3 4 -7 8 -9 8 -2 0 -6 -4
-9 -8z"/>
<path d="M1915 3469 c-4 -6 -5 -12 -2 -15 2 -3 7 2 10 11 7 17 1 20 -8 4z"/>
<path d="M550 4126 c0 -2 7 -7 16 -10 8 -3 12 -2 9 4 -6 10 -25 14 -25 6z"/>
<path d="M630 3820 c0 -5 5 -10 10 -10 6 0 10 5 10 10 0 6 -4 10 -10 10 -5 0
-10 -4 -10 -10z"/>
<path d="M667 3519 c7 -7 15 -10 18 -7 3 3 -2 9 -12 12 -14 6 -15 5 -6 -5z"/>
<path d="M936 2381 c-3 -5 2 -15 12 -22 15 -12 16 -12 5 2 -7 9 -10 19 -6 22
3 4 4 7 0 7 -3 0 -8 -4 -11 -9z"/>
<path d="M3290 3300 c0 -5 5 -10 11 -10 5 0 7 5 4 10 -3 6 -8 10 -11 10 -2 0
-4 -4 -4 -10z"/>
<path d="M3470 3019 c0 -5 5 -7 10 -4 6 3 10 8 10 11 0 2 -4 4 -10 4 -5 0 -10
-5 -10 -11z"/>
<path d="M4155 2451 c-3 -5 -2 -12 3 -15 5 -3 9 1 9 9 0 17 -3 19 -12 6z"/>
<path d="M4259 2328 c-5 -18 -6 -38 -1 -34 7 8 12 36 6 36 -2 0 -4 -1 -5 -2z"/>
<path d="M4570 2006 c0 -2 7 -7 16 -10 8 -3 12 -2 9 4 -6 10 -25 14 -25 6z"/>
<path d="M4815 1800 c-3 -5 -1 -10 4 -10 6 0 11 5 11 10 0 6 -2 10 -4 10 -3 0
-8 -4 -11 -10z"/>
<path d="M2109 3083 c-13 -16 -12 -17 4 -4 16 13 21 21 13 21 -2 0 -10 -8 -17
-17z"/>
<path d="M2096 3002 c-3 -5 1 -9 9 -9 8 0 12 4 9 9 -3 4 -7 8 -9 8 -2 0 -6 -4
-9 -8z"/>
<path d="M2091 2927 c2 -1 13 -9 24 -17 19 -14 19 -14 6 3 -7 9 -18 17 -24 17
-6 0 -8 -1 -6 -3z"/>
<path d="M2146 2442 c-3 -5 1 -9 9 -9 8 0 12 4 9 9 -3 4 -7 8 -9 8 -2 0 -6 -4
-9 -8z"/>
<path d="M2153 2365 c0 -8 4 -12 9 -9 5 3 6 10 3 15 -9 13 -12 11 -12 -6z"/>
<path d="M2187 2319 c7 -7 15 -10 18 -7 3 3 -2 9 -12 12 -14 6 -15 5 -6 -5z"/>
<path d="M2186 1802 c-3 -5 1 -9 9 -9 8 0 12 4 9 9 -3 4 -7 8 -9 8 -2 0 -6 -4
-9 -8z"/>
<path d="M2256 842 c-3 -5 1 -9 9 -9 8 0 12 4 9 9 -3 4 -7 8 -9 8 -2 0 -6 -4
-9 -8z"/>
<path d="M2316 367 c3 -10 9 -15 12 -12 3 3 0 11 -7 18 -10 9 -11 8 -5 -6z"/>
<path d="M2290 299 c0 -5 5 -7 10 -4 6 3 10 8 10 11 0 2 -4 4 -10 4 -5 0 -10
-5 -10 -11z"/>
<path d="M3234 1886 c1 -8 5 -18 8 -22 4 -3 5 1 4 10 -1 8 -5 18 -8 22 -4 3
-5 -1 -4 -10z"/>
<path d="M3190 1696 c0 -2 8 -10 18 -17 15 -13 16 -12 3 4 -13 16 -21 21 -21
13z"/>
<path d="M3195 1480 c3 -5 8 -10 11 -10 2 0 4 5 4 10 0 6 -5 10 -11 10 -5 0
-7 -4 -4 -10z"/>
<path d="M1013 2175 c0 -8 4 -12 9 -9 5 3 6 10 3 15 -9 13 -12 11 -12 -6z"/>
<path d="M1270 1801 c0 -6 4 -13 10 -16 6 -3 7 1 4 9 -7 18 -14 21 -14 7z"/>
<path d="M1595 1309 c-4 -6 -5 -12 -2 -15 2 -3 7 2 10 11 7 17 1 20 -8 4z"/>
<path d="M1719 1133 c-13 -16 -12 -17 4 -4 16 13 21 21 13 21 -2 0 -10 -8 -17
-17z"/>
<path d="M1840 920 c-9 -6 -10 -10 -3 -10 6 0 15 5 18 10 8 12 4 12 -15 0z"/>
<path d="M4621 5396 c-9 -11 -9 -16 1 -22 7 -4 10 -4 6 1 -4 4 -3 14 3 22 6 7
9 13 6 13 -2 0 -10 -6 -16 -14z"/>
<path d="M4716 5318 c3 -5 10 -6 15 -3 13 9 11 12 -6 12 -8 0 -12 -4 -9 -9z"/>
<path d="M5390 4981 c0 -6 4 -13 10 -16 6 -3 7 1 4 9 -7 18 -14 21 -14 7z"/>
<path d="M5696 4798 c3 -5 10 -6 15 -3 13 9 11 12 -6 12 -8 0 -12 -4 -9 -9z"/>
<path d="M5815 4741 c-3 -5 -2 -12 3 -15 5 -3 9 1 9 9 0 17 -3 19 -12 6z"/>
<path d="M5906 4698 c3 -5 10 -6 15 -3 13 9 11 12 -6 12 -8 0 -12 -4 -9 -9z"/>
<path d="M5796 4042 c-3 -5 1 -9 9 -9 8 0 12 4 9 9 -3 4 -7 8 -9 8 -2 0 -6 -4
-9 -8z"/>
</g>
</svg>
