<?xml version="1.0" standalone="no"?>
<!DOCTYPE svg PUBLIC "-//W3C//DTD SVG 20010904//EN"
 "http://www.w3.org/TR/2001/REC-SVG-20010904/DTD/svg10.dtd">
<svg version="1.0" xmlns="http://www.w3.org/2000/svg"
 width="542.000000pt" height="542.000000pt" viewBox="0 0 542.000000 542.000000"
 preserveAspectRatio="xMidYMid meet">
<metadata>
Created by potrace 1.14, written by Peter Selinger 2001-2017
</metadata>
<g transform="translate(0.000000,542.000000) scale(0.100000,-0.100000)"
fill="#000000" stroke="none">
<path d="M860 5345 c-4 -5 -22 -48 -38 -95 -17 -47 -116 -318 -221 -603 l-191
-519 81 -271 c72 -243 99 -318 99 -279 0 7 9 32 20 54 11 23 20 48 20 55 0 8
4 12 9 9 5 -3 9 6 9 20 -1 35 11 43 28 20 19 -27 18 -11 -2 19 -14 21 -14 25
-2 25 18 0 51 34 41 43 -3 4 -1 7 5 7 7 0 12 5 12 11 0 8 -5 7 -15 -1 -9 -7
-13 -15 -11 -18 5 -5 -19 -32 -29 -32 -3 0 1 13 9 29 9 16 12 32 8 36 -4 5 -1
4 7 0 11 -6 13 -4 8 7 -7 21 31 32 52 15 12 -10 12 -9 0 11 -16 25 -25 28 -32
10 -2 -8 -8 -9 -13 -4 -5 5 -4 11 3 13 7 2 10 10 7 18 -3 7 0 16 7 21 9 5 10
2 5 -12 -4 -10 -4 -15 0 -11 4 4 14 1 23 -5 13 -10 14 -10 4 2 -15 16 -17 40
-4 40 5 0 12 -12 15 -26 4 -15 9 -24 12 -22 2 3 0 18 -6 33 -7 18 -15 25 -26
21 -12 -5 -14 -1 -8 17 4 12 10 24 14 27 4 3 6 13 4 23 -1 9 2 17 8 17 6 0 7
7 4 16 -3 8 -2 12 4 9 5 -3 22 2 37 12 15 10 28 16 29 13 1 -3 5 -3 8 0 3 3
-8 6 -23 5 -16 0 -27 -3 -25 -7 2 -4 0 -9 -6 -13 -14 -9 -13 10 4 50 8 18 12
36 9 39 -3 2 4 2 16 -1 12 -3 22 -9 22 -14 1 -5 2 -13 3 -18 0 -5 4 -12 8 -16
8 -8 5 10 -6 43 -4 12 -11 20 -16 17 -15 -9 -22 14 -10 32 9 15 10 14 4 -6 -4
-16 -3 -21 6 -16 6 4 10 17 9 28 -1 12 3 41 10 65 10 35 15 42 31 37 10 -3 22
0 26 6 4 8 3 9 -4 5 -23 -14 -31 4 -16 39 8 19 11 35 7 35 -5 0 -1 6 7 13 8 7
16 21 18 32 2 11 6 27 9 35 8 18 10 27 12 40 0 6 6 10 12 10 8 0 7 -6 -2 -17
-12 -16 -11 -16 7 0 15 14 16 20 6 26 -12 7 -7 41 7 41 4 0 7 8 8 18 1 9 7 31
14 47 7 17 12 33 11 37 -1 4 5 5 13 2 8 -4 13 -10 10 -14 -9 -14 16 -23 28
-11 9 9 8 11 -5 6 -21 -8 -19 22 3 36 9 5 10 9 2 9 -6 0 -15 -5 -19 -11 -12
-20 -23 14 -11 35 6 12 12 28 13 36 2 8 8 16 14 18 5 2 8 8 4 13 -3 5 1 9 8 9
25 0 38 21 23 36 -7 8 -11 22 -8 33 7 28 35 36 51 14 10 -14 13 -14 12 -3 -4
28 0 41 10 35 6 -3 10 -2 10 3 0 5 -12 9 -27 9 -16 0 -22 -2 -15 -4 19 -7 14
-19 -7 -19 -16 0 -17 4 -10 18 5 10 7 18 3 18 -3 0 -1 6 5 13 6 8 9 16 6 19
-3 3 1 11 9 17 11 9 16 9 22 0 5 -8 3 -9 -6 -4 -9 5 -11 4 -6 -4 4 -6 2 -18
-4 -26 -8 -10 -9 -15 -2 -15 6 0 14 9 17 20 3 11 11 20 17 20 6 0 0 9 -13 20
-20 16 -21 19 -7 20 17 0 44 37 35 47 -3 2 -8 -5 -12 -16 -3 -12 -11 -21 -16
-21 -12 0 -12 17 1 22 6 2 12 13 13 26 0 12 4 22 7 22 3 0 6 10 7 21 2 24 10
35 19 26 4 -4 1 -14 -6 -22 -11 -13 -11 -16 0 -13 7 2 19 -8 27 -22 8 -16 13
-19 13 -9 0 9 -7 22 -15 29 -18 15 -10 31 13 24 9 -3 4 2 -11 11 -29 17 -32
35 -6 44 12 3 12 1 -1 -14 -14 -17 -14 -17 7 -4 14 8 18 16 12 20 -8 5 -8 9 0
13 6 4 11 12 11 19 0 6 -7 2 -15 -9 -14 -18 -15 -17 -9 11 4 17 10 32 13 35 3
3 7 13 9 23 1 9 3 25 5 34 2 16 -14 18 -191 18 -119 0 -197 -4 -202 -10z m230
-506 c0 -5 -4 -9 -10 -9 -5 0 -10 7 -10 16 0 8 5 12 10 9 6 -3 10 -10 10 -16z"/>
<path d="M1683 5352 c-31 -3 -32 -6 -71 -120 -44 -128 -97 -282 -222 -642 -45
-129 -121 -350 -170 -490 -48 -140 -129 -372 -178 -515 -249 -718 -249 -719
-241 -745 4 -14 35 -126 69 -250 78 -282 109 -393 114 -398 2 -2 10 14 16 35
7 21 16 43 20 48 4 6 11 25 15 43 7 32 35 46 35 17 0 -8 4 -15 10 -15 5 0 6 7
3 17 -5 11 -3 14 6 8 10 -6 11 -3 2 14 -13 24 -23 28 -15 6 5 -11 2 -13 -10
-9 -13 5 -14 9 -5 20 6 8 9 14 5 14 -5 0 0 17 30 95 4 11 6 24 5 28 0 4 4 18
11 30 7 12 13 27 14 33 3 17 52 63 60 55 4 -3 4 -1 0 6 -4 7 -13 10 -21 7 -8
-4 -13 -10 -10 -14 3 -5 1 -11 -4 -14 -13 -8 -7 24 6 32 5 4 10 14 11 22 1 30
13 73 27 101 8 15 15 35 15 44 0 8 5 15 10 15 6 0 9 3 9 8 -3 17 2 32 9 32 5
0 9 -7 9 -15 0 -8 -4 -12 -8 -10 -4 3 -5 -5 -1 -17 3 -11 1 -19 -4 -16 -5 4
-10 -5 -10 -18 -1 -13 3 -24 9 -24 6 0 8 3 5 6 -4 3 0 20 7 39 8 18 11 36 7
40 -4 5 2 5 13 2 20 -7 20 -7 1 8 -11 8 -23 15 -28 15 -4 0 -5 7 -2 15 4 8 10
15 16 15 5 0 7 -4 4 -9 -3 -5 1 -11 9 -14 9 -4 12 -1 8 9 -3 10 0 12 10 8 8
-3 18 -1 22 5 4 7 0 8 -11 4 -11 -4 -15 -2 -11 4 4 6 1 16 -7 22 -16 14 -15
33 3 55 7 8 10 20 6 26 -3 5 1 10 9 10 18 0 20 -11 6 -28 -5 -7 -2 -5 8 4 16
14 16 16 -1 29 -11 8 -14 16 -8 19 6 4 8 13 5 20 -6 16 22 30 31 16 4 -6 11
-10 18 -10 6 0 2 6 -8 14 -11 8 -24 12 -30 8 -5 -3 -4 2 3 11 8 9 11 20 8 26
-7 11 13 9 32 -2 6 -5 12 -5 12 -2 0 11 -27 34 -33 29 -3 -3 -3 3 0 15 6 23
23 19 24 -7 0 -10 3 -12 5 -5 3 7 0 21 -6 33 -9 16 -8 25 2 37 7 9 13 19 13
22 0 3 3 5 7 4 4 -2 7 5 6 15 -2 32 2 52 12 52 5 0 8 -6 6 -12 -1 -7 -1 -10 1
-5 3 4 10 4 16 0 6 -3 3 4 -5 16 -14 20 -15 28 -2 63 7 21 17 44 21 51 4 7 9
21 10 31 2 11 8 26 15 33 6 7 8 16 5 20 -4 3 -2 12 4 20 6 7 8 13 5 13 -4 0
-1 10 6 23 6 12 13 31 15 41 2 11 8 25 13 31 5 7 6 16 2 20 -4 5 -2 5 5 1 7
-4 12 1 12 11 1 44 5 50 28 47 13 -1 21 1 18 6 -3 5 1 10 7 13 7 3 3 4 -9 4
-12 -1 -19 -5 -16 -11 3 -5 1 -6 -5 -2 -9 5 -9 13 0 29 7 12 11 26 10 31 -2 4
2 14 8 20 5 7 6 16 2 20 -4 5 2 6 13 4 11 -1 26 -10 33 -18 11 -13 11 -11 2 8
-6 12 -15 20 -20 17 -5 -3 -11 -1 -15 5 -3 5 3 10 13 10 11 0 25 7 32 15 7 8
17 12 23 8 6 -3 7 -1 3 6 -4 6 -11 9 -16 6 -4 -3 -10 1 -13 7 -3 10 -8 10 -18
-1 -8 -8 -9 -11 -2 -7 6 3 14 2 17 -3 5 -7 -14 -21 -29 -21 -7 0 4 43 12 49 5
3 10 13 11 21 9 37 12 47 26 85 8 22 15 35 16 30 0 -6 10 -16 22 -24 l21 -13
-21 27 c-28 36 -28 38 9 52 19 8 28 16 24 24 -4 6 -1 16 6 21 12 8 11 9 -1 5
-8 -2 -14 -12 -13 -21 0 -11 -4 -15 -14 -12 -8 3 -11 1 -8 -4 3 -6 1 -10 -4
-10 -15 0 -14 6 5 35 9 14 13 25 10 25 -4 0 0 13 8 29 9 16 12 31 9 34 -3 4 2
10 11 13 14 5 15 9 4 15 -11 7 -11 9 1 9 8 0 20 -8 28 -17 13 -16 13 -16 3 5
-6 12 -16 22 -22 22 -6 0 -5 6 3 17 8 9 13 18 12 20 -7 9 -2 33 8 33 5 0 7 -4
4 -10 -4 -6 1 -7 11 -3 15 5 15 7 0 15 -9 5 -16 14 -16 20 0 6 11 3 25 -6 14
-9 25 -12 25 -6 0 5 -5 10 -10 10 -6 0 -3 11 6 25 9 14 12 25 8 25 -5 0 -3 4
4 9 10 6 10 10 -3 21 -13 11 -15 10 -10 -3 4 -8 2 -18 -4 -21 -6 -4 -8 -13 -5
-20 7 -17 -12 -30 -21 -16 -4 6 -2 17 4 24 6 7 8 16 4 19 -3 4 -1 7 6 7 7 0
10 4 6 9 -9 16 15 23 32 9 15 -12 15 -11 3 9 -8 12 -18 19 -22 17 -10 -7 -10
-6 5 36 7 19 18 36 25 38 16 3 15 -8 -3 -31 -15 -21 -11 -43 11 -51 18 -7 18
-1 -1 17 -12 13 -12 18 6 38 l20 23 -21 11 c-11 6 -18 14 -14 17 3 4 14 2 25
-5 22 -14 38 -2 19 16 -10 9 -11 9 -6 0 9 -16 -6 -17 -21 -2 -13 13 -6 39 9
39 5 0 6 -4 3 -10 -3 -5 -1 -10 4 -10 14 0 14 13 1 26 -10 10 -2 54 10 54 5 0
7 8 5 18 -1 9 2 26 8 37 6 11 10 23 9 28 -1 4 5 7 14 7 8 0 12 -4 9 -10 -4 -6
1 -7 11 -3 14 5 13 8 -7 19 -13 7 -18 13 -11 14 8 0 11 9 8 24 -3 14 2 30 10
37 7 6 11 15 8 20 -3 5 0 9 5 9 16 0 13 -16 -5 -34 -8 -9 -11 -16 -5 -16 17 0
34 41 23 52 -7 7 -5 24 5 52 8 22 16 49 18 59 2 9 7 23 12 30 4 6 8 18 10 26
3 26 25 71 34 71 14 0 10 -16 -6 -30 -9 -7 -14 -19 -11 -26 3 -7 1 -14 -5 -16
-5 -2 0 -9 10 -15 15 -9 22 -10 27 -1 4 6 3 8 -4 4 -6 -3 -13 -2 -17 4 -3 5 1
10 9 10 20 0 29 17 15 26 -8 4 -9 3 -5 -4 4 -7 1 -12 -8 -12 -20 0 -20 14 0
31 13 10 17 10 24 -2 8 -12 11 -12 22 0 8 8 8 11 1 7 -6 -3 -20 5 -31 19 -11
13 -23 21 -28 17 -5 -4 -3 0 4 10 7 9 15 29 18 44 3 16 10 34 16 41 6 7 8 13
4 13 -3 0 3 23 13 50 13 34 15 50 8 51 -32 3 -386 4 -414 1z m-409 -2433 c-6
-11 -24 -2 -24 11 0 5 7 7 15 4 8 -4 12 -10 9 -15z"/>
<path d="M50 5342 c0 -11 169 -575 174 -579 2 -3 7 9 11 26 4 17 11 31 16 31
6 0 7 -6 3 -12 -4 -7 -3 -9 1 -5 12 10 16 39 5 32 -12 -7 22 78 35 87 5 4 6 8
1 8 -5 0 -3 7 4 15 6 8 9 19 5 25 -3 5 1 10 9 10 20 0 40 36 26 45 -6 4 -10 3
-9 -2 3 -19 -2 -33 -12 -33 -6 0 -7 5 -2 13 4 6 8 14 9 17 10 54 28 77 31 40
1 -11 -2 -18 -8 -15 -14 9 -11 -5 6 -21 13 -13 14 -12 11 16 -2 19 2 33 11 39
13 7 13 9 -1 14 -11 5 -15 3 -10 -5 4 -7 3 -8 -5 -4 -6 4 -9 12 -5 17 3 5 11
6 17 2 9 -5 9 -3 0 8 -7 9 -8 20 -3 29 5 8 7 17 4 21 -2 4 6 7 19 8 42 1 56 4
51 13 -3 4 -14 4 -24 -2 -27 -14 -30 -13 -28 15 2 23 10 29 31 26 4 0 7 4 7
10 0 6 -7 9 -15 5 -8 -3 -15 -1 -15 4 0 6 5 10 11 10 6 0 9 7 5 15 -3 8 -2 15
3 15 4 0 8 6 8 13 0 6 3 22 7 35 l7 22 -195 0 c-108 0 -196 -4 -196 -8z"/>
<path d="M2473 5288 c-11 -35 -70 -207 -131 -383 -61 -176 -160 -464 -220
-640 -61 -176 -156 -453 -212 -615 -95 -277 -136 -395 -294 -857 -36 -104
-107 -312 -159 -463 -52 -151 -136 -395 -187 -542 l-92 -267 18 -58 c10 -32
18 -60 19 -63 3 -12 70 -224 100 -320 19 -58 44 -136 56 -174 l22 -69 16 49
c11 31 21 48 30 46 12 -3 12 0 2 12 -8 10 -9 16 -1 21 6 3 8 11 5 16 -4 5 -2
9 3 9 16 0 22 -13 11 -27 -9 -9 -8 -13 0 -13 6 0 11 6 11 13 0 8 4 7 10 -3 5
-8 10 -11 10 -6 0 6 -10 20 -22 33 -12 13 -17 23 -11 23 6 0 13 15 17 32 10
56 13 63 27 60 9 -2 9 1 -2 14 -13 16 -12 17 5 11 17 -7 17 -6 5 10 -12 15
-12 16 3 10 16 -6 40 13 37 29 -3 20 2 35 10 29 5 -3 12 -1 15 4 4 5 2 12 -3
15 -15 10 -36 -24 -40 -67 -1 -5 -5 -6 -10 -2 -6 3 -4 19 4 39 8 18 11 37 7
41 -4 5 -2 5 4 2 7 -4 15 0 18 9 3 8 2 12 -4 9 -6 -3 -10 -1 -10 6 0 6 8 9 19
6 10 -2 25 3 32 12 12 14 12 18 -3 33 -9 9 -20 13 -24 10 -3 -4 -1 4 7 18 7
14 12 28 11 33 -1 4 3 7 9 7 5 0 8 4 5 9 -8 12 4 41 16 41 7 0 7 -4 0 -13 -8
-9 -4 -12 16 -13 15 -1 21 1 15 3 -7 3 -13 11 -13 19 0 8 -4 14 -8 14 -5 0 -9
7 -9 15 0 8 4 15 9 15 4 0 7 3 7 8 -3 15 14 73 22 78 5 3 7 9 4 13 -2 5 7 7
20 5 14 -1 23 2 19 7 -3 5 0 9 7 9 7 0 9 3 6 6 -4 4 -13 2 -21 -5 -22 -18 -28
12 -8 40 9 13 16 25 14 27 -1 1 1 2 5 1 3 0 10 7 15 16 8 13 13 14 24 4 10 -8
14 -8 14 0 0 6 -6 11 -12 11 -9 0 -8 3 2 10 12 7 10 9 -7 7 -12 0 -21 -5 -20
-10 1 -5 -4 -12 -11 -14 -9 -3 -8 6 5 31 9 20 21 36 26 36 5 0 5 -6 -1 -13 -8
-10 -5 -13 16 -14 17 -1 21 1 12 5 -8 4 -17 16 -18 26 -3 17 -2 18 12 7 9 -8
16 -9 16 -3 0 6 -6 13 -12 16 -9 3 -6 11 11 25 12 12 28 18 34 14 6 -3 7 -1 3
6 -6 9 -13 8 -31 -3 -13 -9 -26 -12 -29 -7 -6 9 43 36 59 32 6 -1 4 3 -3 10
-14 15 -16 33 -2 24 6 -3 10 -1 10 5 0 7 -7 9 -16 6 -9 -3 -18 -6 -21 -6 -3 0
0 -6 6 -13 8 -11 5 -17 -16 -26 -26 -12 -27 -12 -12 6 9 10 14 24 12 31 -3 6
0 12 7 12 6 0 10 6 9 12 -3 20 12 68 22 68 4 0 6 9 4 20 -2 11 1 22 6 25 5 4
7 11 4 16 -4 5 1 12 10 15 9 4 14 12 11 20 -6 17 14 24 37 12 11 -5 17 -5 17
2 0 5 -7 10 -15 10 -8 0 -15 5 -15 10 0 6 8 10 18 10 14 0 15 2 2 10 -11 7
-18 3 -27 -13 -16 -28 -16 -17 -1 20 6 15 12 30 13 33 1 3 6 20 10 38 4 18 12
35 16 38 5 3 6 10 3 16 -5 7 -2 8 6 3 10 -6 12 -4 7 7 -4 11 1 18 14 21 20 5
27 27 8 27 -5 0 -7 -4 -4 -10 3 -6 1 -10 -5 -10 -7 0 -9 7 -6 16 3 9 6 20 6
25 0 5 5 9 11 9 5 0 7 -4 4 -10 -3 -5 -2 -10 3 -10 5 0 12 9 15 20 3 11 11 20
17 20 9 0 9 -4 -1 -17 -11 -15 -11 -16 1 -6 17 16 24 53 9 53 -5 0 -7 -4 -4
-10 3 -5 2 -10 -4 -10 -5 0 -12 6 -15 13 -3 6 -4 3 -3 -7 1 -10 -3 -21 -9 -23
-7 -2 -10 5 -7 22 5 23 16 29 51 28 10 -1 10 2 0 14 -8 10 -14 11 -16 4 -2 -6
-8 -11 -13 -11 -6 0 -7 6 -2 13 4 6 8 18 9 25 3 18 14 29 14 14 0 -7 4 -12 10
-12 5 0 7 7 4 15 -7 17 11 21 19 5 3 -6 4 -5 3 2 -2 7 -11 12 -20 11 -12 0
-15 4 -12 14 3 8 6 18 6 23 0 11 40 7 60 -5 13 -7 13 -6 0 10 -14 17 -13 18 3
12 10 -4 16 -3 13 2 -3 5 -17 9 -32 9 -19 0 -23 -3 -13 -10 12 -8 12 -9 0 -6
-8 2 -15 12 -17 21 -2 14 4 17 31 14 26 -3 32 -1 30 12 -1 9 2 25 7 36 8 17 7
18 -4 4 -7 -9 -20 -14 -28 -11 -9 3 -7 -2 4 -11 19 -14 19 -14 -6 -14 l-26 0
19 43 c10 24 16 44 12 44 -3 0 0 7 7 15 7 8 10 15 6 15 -4 0 1 15 11 33 16 29
20 43 25 84 1 7 7 14 14 17 8 3 11 12 8 21 -3 8 -1 15 5 15 6 0 10 -3 10 -7
-3 -20 2 -33 12 -33 8 0 7 6 -2 16 -12 15 -11 16 9 10 15 -5 22 -3 22 5 0 7
-3 9 -6 6 -13 -13 -46 14 -39 31 4 9 8 26 11 36 2 11 10 24 19 28 8 5 15 14
15 21 0 7 -4 6 -10 -3 -6 -9 -10 -10 -10 -3 0 6 5 15 10 18 6 4 7 11 4 17 -5
7 -2 8 6 3 9 -5 10 -2 6 13 -4 11 -2 23 4 27 6 3 8 11 5 16 -4 5 1 12 9 15 11
4 14 15 12 30 -3 16 -1 22 6 18 7 -5 9 -1 5 9 -5 14 -3 15 13 5 14 -9 22 -10
31 -1 8 8 7 13 -2 18 -8 5 -10 4 -5 -3 4 -7 1 -12 -8 -12 -22 0 -20 16 4 40
11 11 16 20 11 20 -16 0 -20 27 -6 53 7 14 11 28 7 31 -3 3 2 6 11 6 9 0 19
-4 22 -10 3 -5 12 -10 18 -10 7 0 4 5 -6 11 -17 10 -18 12 -1 30 9 10 21 16
25 13 5 -3 9 -1 9 5 0 5 -9 9 -20 8 -10 -1 -17 -3 -15 -5 5 -5 -21 -32 -30
-32 -3 0 -1 9 5 21 7 11 14 33 16 47 3 15 10 32 16 39 6 7 7 13 3 13 -4 0 -2
7 5 15 7 8 10 15 6 15 -4 0 0 13 8 29 9 16 12 31 9 35 -4 3 1 6 11 6 15 0 15
-2 -1 -27 -10 -15 -12 -24 -5 -20 20 13 13 -11 -10 -33 -12 -11 -17 -20 -10
-20 6 0 14 5 17 10 4 6 11 8 16 5 5 -3 6 2 2 11 -5 12 -3 15 6 9 10 -6 11 -3
2 14 -7 12 -9 27 -5 33 5 8 10 5 15 -8 6 -16 8 -16 8 -2 1 9 -8 23 -19 31 -19
13 -20 16 -5 31 9 9 13 21 10 27 -4 6 0 9 11 7 11 -2 22 -12 26 -23 6 -17 7
-16 5 5 -1 14 -8 24 -15 22 -6 -1 -12 3 -12 9 0 5 -4 7 -10 4 -6 -3 -7 1 -4
10 5 13 9 13 22 3 14 -12 14 -10 3 11 -9 17 -10 21 -1 16 7 -5 11 -1 10 11 -5
46 -1 55 19 44 30 -15 38 -12 13 6 -17 12 -20 19 -12 33 5 10 6 22 2 26 -4 5
-1 5 7 0 11 -6 13 -3 9 13 -4 13 -1 22 5 22 6 0 7 3 4 6 -3 4 -1 16 5 28 7 11
11 25 10 30 -2 4 3 14 9 22 6 8 9 14 6 14 -3 0 -1 14 4 30 6 17 15 30 21 30 5
0 6 9 3 20 -4 12 -2 20 5 20 6 0 8 -4 5 -10 -4 -6 1 -7 11 -3 14 5 15 3 5 -15
-6 -11 -16 -23 -23 -25 -8 -4 -7 -6 4 -6 9 -1 20 8 23 19 4 11 10 18 15 15 4
-3 10 2 13 10 4 9 1 12 -7 9 -19 -7 -50 26 -37 39 6 6 11 19 11 28 0 9 7 22
15 29 8 7 13 16 10 19 -6 11 17 81 27 81 5 0 6 6 2 13 -5 8 -2 7 9 -2 10 -8
20 -11 24 -7 3 3 1 6 -6 6 -7 0 -9 5 -6 10 3 6 -1 10 -10 10 -15 0 -15 3 -1
28 21 40 46 109 41 116 -3 3 0 2 6 -3 8 -6 7 -16 -1 -32 -7 -13 -9 -21 -5 -17
4 4 17 3 29 -3 20 -10 20 -10 2 5 -11 9 -17 19 -13 22 4 4 13 1 22 -6 25 -20
17 -3 -11 25 -21 21 -23 29 -14 40 7 8 9 15 5 15 -4 0 -2 6 4 13 6 8 8 17 4
21 -4 4 1 4 12 0 17 -6 18 -5 8 7 -9 11 -8 22 4 49 9 19 17 40 18 45 1 6 3 13
5 18 1 4 4 12 5 17 1 6 4 12 5 15 1 3 3 8 4 13 1 4 7 17 14 28 6 12 8 24 5 28
-3 3 -1 6 5 6 6 0 9 6 6 14 -3 8 5 24 18 36 13 13 18 20 11 16 -14 -8 -10 22
7 53 6 12 8 21 5 21 -3 0 0 10 7 23 6 12 13 31 15 42 2 10 8 22 14 26 6 3 11
10 10 15 0 5 8 8 19 6 10 -2 22 2 26 9 4 7 3 9 -4 6 -13 -9 -44 2 -37 13 2 4
16 6 30 5 22 -3 24 -1 14 17 -8 14 -8 23 0 31 7 7 5 14 -7 23 -14 11 -15 13
-1 14 8 0 21 -6 28 -12 11 -11 12 -10 6 1 -6 11 -4 13 9 8 11 -4 15 -3 11 4
-4 6 -13 8 -21 5 -8 -3 -14 -1 -14 5 0 6 -5 7 -11 3 -7 -4 -6 3 2 17 7 13 12
30 11 37 -4 17 15 15 22 -3 3 -8 -2 -19 -12 -24 -15 -9 -4 -15 15 -8 12 3 14
35 3 42 -6 4 -7 11 -4 17 4 6 2 8 -4 5 -6 -5 -8 0 -5 13 3 11 9 23 14 25 4 3
6 12 2 20 -3 8 -1 15 4 15 5 0 10 10 10 22 1 13 7 24 12 26 5 2 7 10 4 19 -4
9 -2 14 3 11 5 -4 9 7 9 23 l1 29 -246 0 -246 0 -21 -62z m417 -267 c0 -6 -4
-12 -8 -15 -5 -3 -9 1 -9 9 0 8 4 15 9 15 4 0 8 -4 8 -9z m0 -41 c0 -5 -4 -10
-9 -10 -6 0 -13 5 -16 10 -3 6 1 10 9 10 9 0 16 -4 16 -10z m-652 -1790 c-7
-10 -14 -18 -15 -16 -6 6 9 36 18 36 5 0 4 -9 -3 -20z m-498 -1411 c-7 -11
-14 -19 -16 -16 -7 7 7 37 17 37 6 0 5 -9 -1 -21z m-156 -477 c9 -15 -9 -31
-24 -22 -11 7 -12 10 -2 10 7 0 10 5 7 10 -3 6 -2 10 4 10 5 0 12 -4 15 -8z"/>
<path d="M3373 5288 c-12 -35 -83 -241 -158 -458 -156 -450 -304 -880 -375
-1085 -26 -77 -88 -257 -138 -400 -49 -143 -138 -399 -197 -570 -58 -170 -124
-359 -145 -420 -21 -60 -59 -168 -83 -240 -100 -290 -361 -1047 -397 -1150
-41 -118 -107 -310 -190 -550 -28 -82 -58 -168 -66 -190 -33 -83 -35 -81 71
-80 52 0 95 -4 95 -9 0 -5 8 -2 17 5 9 8 14 9 10 3 -4 -7 0 -15 9 -18 8 -3 12
-11 8 -17 -4 -8 -3 -9 5 -5 9 6 9 11 1 21 -8 9 -7 14 4 18 9 4 18 2 21 -3 4
-6 11 -10 16 -10 6 0 8 3 6 8 -3 4 8 7 24 7 24 0 28 -3 23 -20 -5 -17 -3 -16
12 4 16 23 18 23 31 6 13 -18 13 -18 14 1 0 11 3 14 6 6 4 -10 8 -10 21 0 9 7
13 8 10 3 -4 -6 3 -17 15 -25 20 -12 21 -12 9 3 -9 10 -10 17 -2 22 5 3 10 1
10 -5 0 -6 5 -8 10 -5 6 4 17 2 24 -4 10 -9 12 -6 9 11 -5 32 12 57 29 40 9
-9 9 -12 -5 -12 -9 0 -17 -4 -17 -10 0 -5 7 -6 17 -3 12 5 14 3 8 -8 -5 -8 -4
-11 0 -6 16 14 14 40 -3 53 -15 11 -15 14 1 38 10 15 15 31 11 37 -4 7 3 9 17
7 16 -2 24 2 24 12 0 8 4 20 8 26 4 7 1 14 -7 17 -9 4 -12 -3 -10 -23 3 -21 0
-28 -10 -24 -13 5 -18 34 -6 34 3 0 7 10 7 22 2 27 23 68 35 68 5 0 1 -11 -8
-25 -17 -25 -12 -45 11 -45 19 0 28 17 14 26 -8 4 -9 3 -5 -4 4 -7 1 -12 -8
-12 -19 0 -20 5 -5 31 10 20 11 20 24 2 12 -15 16 -16 27 -4 8 8 8 11 1 7 -14
-8 -66 41 -52 49 5 4 6 11 3 17 -5 7 -2 8 6 3 9 -6 10 -2 5 16 -7 22 -6 23 9
10 15 -13 19 -13 26 -1 5 8 6 18 4 22 -3 4 0 8 7 8 7 0 10 3 6 6 -3 3 -14 1
-24 -5 -11 -6 -13 -11 -5 -11 7 0 10 -5 6 -11 -5 -8 -10 -6 -16 5 -7 13 -5 21
8 31 11 7 21 12 24 10 3 -2 6 5 7 15 1 11 -2 22 -8 25 -5 3 -6 0 -3 -8 3 -8
-2 -20 -11 -27 -10 -8 -15 -9 -15 -1 0 6 5 11 10 11 6 0 10 6 8 13 -1 6 2 26
8 42 7 17 18 50 25 75 7 25 16 50 21 56 4 6 5 13 2 17 -3 3 0 16 7 29 7 12 14
25 14 28 0 3 9 30 20 60 11 30 20 58 21 63 1 4 3 9 4 12 1 3 4 10 5 15 1 6 3
11 5 13 1 1 3 11 5 21 2 10 7 22 12 25 4 3 9 13 10 21 3 30 12 59 23 79 6 12
8 21 5 21 -3 0 1 10 10 23 8 13 12 27 8 31 -5 4 -3 7 2 6 19 -4 35 0 35 9 0 5
-9 7 -20 4 -27 -7 -25 6 3 16 14 5 25 4 29 -3 6 -8 8 -8 8 0 0 6 -8 18 -17 25
-11 10 -14 10 -9 2 4 -7 2 -13 -3 -13 -6 0 -11 7 -11 15 0 8 4 15 10 15 5 0 9
3 9 8 -1 4 0 10 1 15 6 18 8 24 15 55 4 17 12 32 17 32 6 0 7 -8 4 -17 -5 -16
-5 -16 8 0 8 10 23 25 33 34 14 12 12 11 -9 -1 -28 -16 -35 -11 -28 19 1 6 3
16 3 23 0 6 4 12 9 12 4 0 7 3 7 7 -3 20 2 34 11 28 6 -3 10 -1 10 4 0 6 -6
11 -12 11 -10 0 -9 3 1 9 8 5 10 14 6 21 -6 9 -4 11 5 5 10 -6 12 -4 7 8 -8
20 1 47 15 47 6 0 5 -7 -2 -15 -10 -13 -11 -18 -1 -28 10 -9 11 -8 5 8 -7 20
-7 20 15 1 18 -17 21 -17 15 -3 -3 9 -11 17 -16 17 -6 0 -5 6 2 15 12 15 35
11 25 -5 -3 -5 -1 -11 4 -14 16 -11 5 26 -12 39 -21 15 -22 26 -3 19 25 -10
28 16 5 35 -19 15 -21 21 -11 33 6 8 9 18 5 22 -4 4 0 4 10 0 16 -6 16 -7 1
-18 -14 -11 -14 -13 3 -27 16 -13 17 -13 4 4 -15 19 -2 24 17 5 9 -9 12 -9 12
0 0 7 -4 12 -8 12 -11 0 -12 39 -1 45 5 4 7 11 3 16 -3 5 -10 7 -15 3 -5 -3
-7 -10 -4 -15 4 -5 1 -9 -4 -9 -13 0 -14 10 -2 29 5 8 16 11 27 7 18 -6 18 -5
2 8 -24 18 -23 29 1 16 24 -12 38 4 21 25 -7 8 -7 15 -1 19 5 3 12 0 14 -6 4
-8 6 -9 6 -2 1 6 -7 18 -16 25 -10 7 -15 9 -11 5 4 -5 3 -15 -3 -22 -7 -8 -7
-14 1 -19 5 -3 10 -11 10 -18 0 -6 -7 -4 -17 5 -13 14 -14 20 -3 32 7 9 9 16
5 16 -4 0 -2 7 5 15 6 8 9 19 5 25 -3 5 -1 10 5 10 6 0 9 4 5 9 -7 13 15 61
29 61 6 0 4 5 -4 11 -12 9 -11 10 7 6 15 -3 20 -1 16 9 -3 8 -10 11 -17 7 -7
-4 -7 -1 1 9 7 8 10 18 6 21 -3 4 -1 13 5 20 7 8 10 16 7 19 -3 2 2 5 10 5 19
0 19 -7 -2 -22 -13 -10 -14 -13 -2 -20 8 -5 11 -5 7 0 -5 5 2 15 13 23 l22 15
-24 13 c-13 7 -18 13 -10 14 8 0 11 6 7 16 -5 13 -2 15 14 11 11 -3 18 -1 14
4 -3 5 0 9 5 9 6 0 11 5 11 12 0 9 -3 9 -12 0 -15 -15 -28 -15 -28 -1 0 5 5 7
10 4 6 -4 9 3 6 17 -1 13 3 33 11 45 8 12 11 28 7 34 -5 8 -3 9 6 4 10 -6 12
-4 7 8 -3 9 -2 19 4 23 6 3 8 12 5 19 -2 7 1 18 7 24 12 12 14 17 16 52 1 19
2 19 23 5 26 -18 38 -20 38 -6 0 6 -3 9 -7 9 -19 -3 -31 2 -37 16 -7 19 3 45
16 45 6 0 5 -7 -2 -15 -11 -13 -11 -18 0 -28 10 -10 12 -9 7 5 -3 10 -2 20 3
23 6 4 10 1 10 -6 0 -7 3 -9 6 -6 4 4 1 13 -5 21 -7 9 -8 17 -2 20 5 3 12 0
15 -6 3 -7 3 -2 -1 12 -5 23 -5 24 13 10 17 -13 18 -13 8 0 -16 22 -11 52 15
89 13 18 20 35 17 38 -3 3 0 13 7 22 10 14 10 14 -5 3 -9 -8 -14 -20 -11 -28
3 -9 0 -13 -8 -11 -8 2 -11 2 -7 0 4 -2 4 -11 1 -19 -3 -7 -10 -11 -17 -7 -6
3 -8 3 -4 -2 4 -4 3 -14 -4 -22 -6 -7 -8 -16 -5 -20 3 -3 -1 -19 -9 -35 -9
-17 -17 -28 -20 -25 -4 3 15 66 33 107 3 8 5 21 4 28 -1 6 3 12 10 12 6 0 8 7
5 16 -4 9 -2 13 5 8 7 -4 10 -1 7 7 -3 8 1 29 8 47 7 18 13 35 14 37 0 3 1 7
1 10 1 3 3 10 4 15 1 6 3 17 4 25 1 17 31 21 31 4 0 -5 -4 -7 -10 -4 -6 4 -7
-1 -3 -11 4 -11 3 -15 -4 -11 -6 4 -10 1 -9 -5 3 -21 16 -38 29 -38 7 0 4 5
-5 11 -16 9 -15 12 5 47 12 20 25 39 29 40 5 2 -1 11 -13 21 -17 13 -20 23
-13 42 4 13 8 28 9 33 0 15 22 18 31 5 5 -8 2 -11 -8 -7 -8 4 -15 0 -15 -7 0
-10 5 -11 18 -4 19 10 36 31 22 28 -17 -4 -43 14 -36 25 4 6 8 14 9 19 1 4 2
8 3 10 2 1 4 11 6 22 7 35 35 95 45 95 5 0 12 -4 15 -10 3 -5 10 -10 16 -10 5
0 1 8 -8 18 -10 11 -22 17 -26 14 -5 -2 -3 6 4 19 7 13 14 35 15 48 4 30 24
44 43 28 12 -10 13 -9 6 2 -6 11 -4 13 9 8 11 -4 15 -3 11 4 -4 6 -13 8 -21 5
-8 -3 -14 0 -14 7 0 8 -4 6 -10 -3 -5 -8 -10 -10 -10 -4 0 5 6 19 14 29 8 11
12 25 9 32 -3 7 2 13 11 13 9 0 16 5 16 11 0 5 -4 8 -9 5 -4 -3 -6 7 -3 21 5
26 5 26 13 5 9 -22 29 -31 29 -11 0 5 -5 7 -11 3 -8 -5 -10 1 -7 19 3 15 1 24
-3 21 -5 -3 -9 0 -9 5 0 6 5 11 11 11 5 0 7 5 4 10 -3 6 -3 16 2 23 4 6 9 21
10 31 2 11 8 25 13 31 5 7 7 15 3 18 -3 4 -1 7 5 7 6 0 10 -9 9 -19 0 -11 -5
-17 -9 -15 -4 3 -8 0 -8 -5 0 -6 6 -11 14 -11 17 0 18 38 3 58 -6 7 -7 15 -3
19 10 10 36 -30 30 -47 -4 -11 -2 -12 6 -4 9 9 9 18 -1 35 -7 13 -12 28 -11
32 1 5 -1 6 -6 3 -5 -3 -4 12 2 34 5 22 14 40 18 40 4 0 5 -6 2 -13 -2 -7 2
-21 11 -32 10 -14 14 -15 13 -5 -2 8 -7 18 -13 22 -6 4 -2 14 10 23 16 13 17
16 3 11 -10 -3 -20 -1 -23 4 -7 11 5 40 17 40 7 0 6 -5 -1 -13 -8 -11 -6 -13
9 -12 11 1 22 4 25 8 3 4 2 5 -2 2 -3 -3 -12 4 -20 15 -10 14 -11 25 -4 39 6
10 7 22 3 26 -4 5 -1 5 5 1 9 -5 12 -1 11 11 -3 33 2 53 12 53 7 0 7 -6 1 -18
-8 -15 -5 -18 12 -19 12 0 16 1 10 4 -19 7 -16 23 5 23 15 1 14 2 -3 13 -12 7
-20 18 -19 25 1 6 2 17 3 22 0 6 6 10 12 10 5 0 7 -6 3 -12 -4 -7 -4 -10 1 -6
4 4 14 3 22 -3 7 -6 13 -7 13 -2 0 5 -9 15 -20 23 -27 19 -25 33 3 25 21 -7
21 -6 3 7 -13 10 -15 17 -8 22 15 9 32 -1 32 -19 0 -19 17 -28 26 -14 4 8 3 9
-4 5 -8 -5 -12 0 -12 13 0 11 -9 22 -20 26 -11 4 -18 11 -14 16 3 5 11 6 17 2
8 -4 7 -1 -1 9 -11 14 -11 22 3 47 8 17 13 31 10 31 -3 0 0 10 7 23 7 12 11
28 10 35 -2 6 2 12 8 12 6 0 9 4 5 9 -3 5 0 13 6 16 5 4 8 14 5 22 -5 11 -2
13 10 9 8 -3 18 -6 20 -6 2 0 -1 -9 -8 -19 -7 -11 -16 -17 -22 -14 -5 4 -6 1
-1 -7 4 -7 2 -16 -6 -21 -14 -8 -12 -9 18 -9 4 0 8 6 9 13 3 33 5 36 22 31 10
-4 13 -2 7 3 -6 4 -11 17 -11 28 1 13 -5 19 -16 17 -14 -2 -15 1 -5 27 6 16
15 28 19 25 4 -3 8 0 8 5 0 6 -6 11 -12 11 -10 0 -9 3 1 9 8 5 10 14 6 21 -5
8 -3 11 6 8 8 -3 13 -15 11 -27 -2 -21 -1 -21 15 -6 13 14 14 18 3 25 -12 7
-11 12 3 28 14 15 14 19 3 19 -8 0 -14 -5 -13 -10 1 -5 -4 -12 -11 -14 -11 -4
-12 -1 -3 16 7 11 9 21 6 21 -3 0 1 13 9 29 9 16 12 31 9 35 -4 3 -1 6 5 6 6
0 14 -4 17 -10 3 -5 12 -10 18 -10 8 0 7 3 -2 9 -7 5 -11 13 -7 19 3 6 1 14
-5 18 -8 4 -9 3 -5 -4 4 -7 2 -12 -3 -12 -14 0 -14 2 3 36 8 15 13 31 10 36
-3 4 0 8 6 8 7 0 10 7 6 15 -3 8 -2 15 3 15 17 0 19 -14 4 -36 -8 -13 -12 -24
-8 -24 4 0 2 -6 -4 -14 -9 -10 -8 -15 2 -19 9 -3 13 2 12 16 -3 29 12 57 28
53 6 -1 9 -1 4 1 -4 3 -4 10 -1 15 4 7 2 8 -4 4 -7 -4 -12 -3 -12 2 0 5 10 14
23 21 21 11 5 8 -30 -6 -12 -5 -14 -3 -7 8 4 8 9 20 10 27 3 19 13 27 21 18 4
-4 1 -11 -7 -16 -11 -7 -10 -9 6 -8 19 2 20 5 11 25 -5 12 -14 20 -19 17 -4
-3 -3 7 4 23 14 34 34 57 24 28 -6 -16 -5 -18 5 -7 10 9 10 15 1 24 -7 7 -8
17 -1 30 5 10 7 18 3 18 -3 0 0 7 7 17 8 9 13 18 12 20 -7 9 -2 23 7 18 6 -3
10 -11 10 -16 0 -6 -4 -8 -8 -5 -5 3 -9 -1 -9 -9 0 -8 4 -15 9 -15 4 0 8 5 8
10 0 6 7 10 15 10 12 0 11 4 -4 19 -12 12 -17 27 -14 45 6 29 18 34 27 11 5
-14 38 -16 52 -2 4 3 -6 4 -21 1 -25 -4 -27 -3 -15 11 11 13 10 15 -3 10 -19
-8 -33 13 -18 28 9 9 11 7 6 -8 -5 -18 -4 -17 6 1 6 12 20 26 32 31 19 9 19
10 3 16 -9 4 -15 3 -12 -2 3 -5 -1 -12 -10 -15 -24 -9 -28 -7 -15 7 6 8 8 17
4 20 -3 4 -1 7 6 7 8 0 11 7 7 15 -3 9 1 18 10 22 13 5 13 7 2 14 -10 7 -10 9
3 9 25 0 29 -11 13 -35 -12 -19 -13 -25 -2 -31 7 -4 10 -4 6 1 -4 4 -2 17 4
29 17 29 18 47 7 65 -8 12 -9 11 -4 -6 5 -18 3 -22 -9 -17 -12 4 -13 11 -6 24
5 9 6 20 3 24 -3 3 -1 6 5 6 6 0 18 -10 27 -22 10 -14 16 -17 14 -8 -3 27 1
41 9 36 5 -3 9 1 9 9 0 22 -13 18 -23 -6 -9 -20 -10 -20 -24 -3 -8 10 -10 15
-4 11 7 -4 14 0 18 8 3 8 1 17 -3 20 -10 6 -2 45 8 45 4 0 8 6 8 13 1 42 19
60 44 46 23 -12 20 14 -5 43 -18 20 -18 21 3 15 11 -3 24 0 28 5 3 6 2 8 -3 5
-6 -3 -16 -2 -24 3 -11 7 -12 14 -2 35 7 14 12 30 12 35 0 6 -88 10 -223 10
l-223 0 -21 -62z m457 -62 c9 -12 8 -15 -8 -13 -10 0 -19 7 -19 14 0 17 12 17
27 -1z m-806 -2404 c9 -15 -9 -31 -24 -22 -11 7 -12 10 -2 10 7 0 10 5 7 10
-3 6 -2 10 4 10 5 0 12 -4 15 -8z m-393 -1178 c11 -14 10 -15 -7 -12 -15 2
-18 -2 -16 -22 2 -19 0 -22 -9 -13 -10 10 -10 18 -1 38 14 29 15 30 33 9z"/>
<path d="M4093 4927 c-78 -232 -288 -858 -468 -1392 -179 -533 -328 -977 -330
-985 -3 -12 -514 -1534 -758 -2260 -25 -74 -44 -136 -42 -138 2 -3 17 -5 33
-7 16 -1 35 -6 42 -10 9 -6 11 -4 5 6 -8 12 -6 12 8 0 9 -7 17 -9 17 -4 0 17
30 10 30 -6 1 -13 2 -13 11 2 8 14 14 15 24 7 9 -7 15 -8 19 -1 5 7 15 7 32 1
33 -13 37 -13 28 3 -6 9 -4 9 8 -1 12 -10 17 -10 20 -1 3 9 10 9 28 0 24 -11
24 -11 6 3 -15 12 -17 19 -9 27 6 6 9 18 6 25 -3 8 -1 14 4 14 5 0 10 10 10
22 1 13 7 24 13 26 5 2 8 8 4 13 -3 5 -2 15 3 22 4 6 9 21 10 32 4 23 21 35
42 28 14 -4 14 -3 1 5 -8 6 -18 8 -23 5 -4 -2 -1 11 7 30 8 20 11 39 8 43 -4
4 -1 4 6 0 7 -5 11 -14 8 -22 -3 -8 -1 -14 4 -14 6 0 10 7 10 15 0 7 8 19 18
24 9 6 12 11 5 11 -6 0 -15 -5 -19 -11 -5 -8 -10 -6 -16 5 -6 11 -6 22 1 30 6
7 7 17 3 21 -4 5 -1 5 7 0 10 -6 12 -2 7 13 -4 11 -2 23 4 27 6 3 8 10 5 15
-3 5 -1 11 5 15 6 4 8 10 5 15 -3 5 -1 11 5 15 5 3 10 15 10 26 0 11 5 17 10
14 6 -4 8 -10 6 -14 -3 -4 1 -8 9 -8 11 0 11 4 -1 21 -11 19 -11 26 2 51 8 17
15 31 15 33 -1 1 -1 10 -1 20 0 14 2 15 10 2 8 -13 10 -12 10 3 0 10 5 15 10
12 6 -4 8 -10 6 -14 -3 -4 1 -8 9 -8 13 0 13 3 -1 18 -9 10 -21 16 -27 15 -7
-2 -9 -1 -4 1 4 3 5 9 1 14 -6 11 9 12 20 2 14 -15 32 -10 33 9 2 19 1 19 -11
3 -11 -15 -13 -15 -25 -2 -10 13 -9 16 8 22 12 3 21 10 21 15 0 5 -7 7 -15 4
-8 -4 -15 -1 -15 5 0 6 8 11 18 11 15 0 15 2 2 11 -12 8 -11 9 5 6 11 -2 19
-8 18 -15 -2 -6 4 -9 12 -6 8 4 15 10 15 16 0 5 -5 6 -10 3 -6 -3 -13 1 -16 9
-3 9 -10 13 -15 10 -5 -3 -9 0 -9 5 0 6 4 11 10 11 5 0 7 6 4 14 -3 8 -1 17 5
20 6 4 8 13 4 21 -3 10 1 15 14 15 10 0 24 5 31 12 7 7 12 8 12 2 0 -15 -21
-33 -34 -30 -6 2 -8 1 -3 -1 4 -3 7 -9 7 -14 0 -6 -4 -8 -9 -4 -5 3 -13 0 -17
-6 -4 -8 -3 -9 5 -5 9 6 10 0 6 -21 -5 -20 -1 -16 14 15 11 24 25 41 29 38 8
-5 9 12 3 49 -1 6 -6 2 -12 -7 -5 -10 -18 -18 -27 -18 -13 0 -14 2 -4 9 7 4
12 12 10 17 -4 14 22 83 34 90 7 5 8 2 3 -5 -6 -10 -3 -11 14 -2 11 7 21 14
21 17 0 3 -4 2 -10 -1 -5 -3 -18 -1 -27 4 -12 7 -13 10 -4 11 7 0 11 6 8 14
-3 8 -2 16 3 18 8 3 16 29 19 61 1 5 5 6 10 2 6 -3 10 3 10 12 0 36 9 73 21
88 7 8 9 15 4 15 -4 0 -3 5 4 12 9 9 16 8 30 -5 15 -14 19 -14 19 -2 0 8 -4
12 -9 9 -4 -3 -11 2 -14 10 -3 9 -11 13 -18 9 -8 -4 -8 -2 1 7 6 7 9 20 5 29
-5 14 -4 14 11 2 15 -12 17 -12 11 4 -5 13 -4 16 4 11 8 -5 10 -2 6 8 -3 9
-11 13 -18 9 -6 -3 -4 2 5 13 9 10 15 27 14 37 -2 10 1 14 8 10 7 -4 8 0 4 11
-5 11 -3 15 4 10 7 -4 10 -1 7 7 -3 8 1 29 8 47 7 17 10 32 7 32 -3 0 -1 6 5
13 10 12 12 17 12 38 0 5 5 7 12 3 8 -5 9 -2 5 9 -7 20 1 47 15 47 5 0 7 -4 3
-9 -9 -15 15 -25 28 -12 9 9 7 10 -7 5 -13 -5 -17 -4 -12 4 3 6 2 13 -4 17 -5
3 -10 11 -10 17 0 6 8 4 18 -5 10 -10 23 -17 28 -17 5 0 1 5 -8 11 -10 5 -18
17 -18 25 0 8 -4 12 -10 9 -6 -3 -7 1 -4 9 3 9 10 16 16 16 5 0 6 -6 2 -12 -4
-7 -4 -10 1 -6 4 4 14 3 22 -3 7 -6 13 -8 13 -4 0 4 -8 14 -17 21 -17 12 -17
13 0 19 16 7 16 8 1 20 -14 9 -14 14 -4 20 9 6 11 4 5 -6 -7 -12 -5 -12 6 -1
12 11 12 14 0 21 -9 6 -10 11 -3 15 6 4 9 13 5 21 -3 8 0 15 7 15 6 0 8 -4 5
-10 -3 -5 -1 -10 4 -10 6 0 11 7 11 15 0 8 -4 15 -10 15 -5 0 -10 5 -10 11 0
6 8 8 19 4 11 -3 22 -1 26 4 3 6 0 8 -8 5 -19 -7 -32 13 -19 29 5 7 12 24 16
40 3 15 12 27 20 27 7 0 19 7 26 15 14 17 34 10 24 -8 -4 -7 -3 -9 1 -4 5 4 9
16 10 27 2 19 1 19 -34 -2 -30 -19 -34 -20 -28 -4 4 10 7 22 7 27 0 5 5 9 11
9 5 0 7 -4 4 -10 -3 -6 1 -7 10 -4 14 6 14 8 -1 18 -12 9 -14 19 -9 37 4 13 7
26 6 27 -1 2 6 10 16 19 10 8 12 11 5 8 -10 -5 -9 1 2 24 9 17 22 31 28 31 6
0 3 -10 -8 -22 -10 -12 -13 -18 -5 -13 10 6 12 2 6 -16 -5 -19 -4 -21 4 -9 9
13 11 12 12 -5 0 -11 3 -15 5 -8 3 7 1 20 -4 30 -8 13 -4 26 16 52 14 20 22
33 18 29 -5 -4 -16 -2 -25 4 -13 10 -14 10 -4 -1 15 -17 6 -41 -13 -34 -8 3
-14 9 -14 15 0 5 5 6 11 3 6 -4 10 -1 8 6 -4 33 2 69 12 69 5 0 8 -4 5 -9 -10
-16 4 -37 27 -38 21 -2 21 -2 2 9 -29 16 -29 16 -16 32 9 11 9 16 0 22 -8 5
-9 3 -4 -6 5 -9 4 -11 -4 -6 -9 6 -8 14 4 32 9 14 13 30 9 36 -5 7 -3 8 6 3
10 -6 12 -4 7 9 -5 13 -3 17 7 13 10 -4 13 -1 9 8 -3 8 -9 13 -13 10 -5 -3 -2
8 7 25 8 17 16 39 18 48 2 9 4 19 5 22 1 3 2 9 1 13 -1 5 4 7 11 4 7 -2 12 -9
11 -15 -2 -6 4 -9 13 -5 12 5 12 8 -6 20 -24 17 -26 30 -5 30 8 0 15 -6 15
-14 0 -7 5 -13 10 -13 13 0 -5 37 -20 42 -6 2 -8 11 -4 21 8 21 35 19 42 -3 4
-13 3 -13 -10 -2 -13 10 -18 10 -24 1 -4 -8 -3 -9 4 -5 7 4 12 2 12 -3 0 -12
35 -9 47 4 5 4 3 5 -3 2 -6 -3 -17 5 -24 19 -9 16 -19 23 -29 19 -14 -4 -14
-4 -1 7 8 7 15 19 16 26 4 46 4 46 16 34 7 -7 16 -12 21 -12 5 0 2 7 -7 15
-11 11 -13 22 -7 38 5 12 10 27 11 32 1 6 7 21 13 35 6 14 9 31 8 38 -1 6 3
12 8 12 6 0 7 8 4 18 -6 15 -5 15 10 3 16 -13 16 -14 0 -27 -22 -16 -10 -18
16 -3 17 11 17 13 0 30 -18 18 -16 53 4 66 5 3 7 2 4 -3 -3 -5 3 -10 13 -10
10 0 17 3 14 7 -2 4 2 10 8 13 9 4 8 5 -2 5 -44 -3 -51 8 -24 36 10 10 24 13
36 9 14 -4 18 -3 13 6 -4 6 -16 10 -26 7 -11 -3 -19 -1 -19 4 0 5 5 9 11 9 5
0 7 4 4 10 -10 17 15 52 33 46 13 -5 13 -3 -2 9 -11 8 -17 18 -13 21 4 4 14 1
24 -7 9 -8 14 -9 10 -3 -4 7 0 14 8 18 16 6 10 36 -7 36 -6 0 -4 -8 3 -17 12
-15 12 -16 -4 -10 -12 5 -16 3 -11 -5 4 -6 3 -8 -4 -5 -11 8 -4 47 9 47 4 0 6
9 4 20 -2 13 0 18 7 14 6 -4 8 1 3 15 -5 18 -2 21 19 21 16 0 27 7 31 20 3 11
12 20 18 20 7 0 4 5 -6 11 -13 8 -22 7 -33 -1 -10 -9 -14 -9 -14 -1 0 6 5 11
11 11 6 0 9 6 6 14 -3 8 -3 17 1 21 4 4 7 10 7 13 1 4 6 17 13 28 6 12 8 25 4
29 -4 5 -1 5 6 1 6 -4 12 -14 12 -22 0 -8 5 -14 10 -14 7 0 7 7 0 20 -6 11 -8
26 -4 32 4 6 3 8 -4 5 -6 -5 -8 0 -5 13 3 11 10 20 15 20 5 0 6 -5 2 -12 -5
-7 -3 -8 6 -3 10 6 11 1 7 -21 -6 -28 -6 -28 5 -5 11 20 9 26 -10 42 l-23 18
28 3 c16 2 28 8 27 13 -1 6 6 15 15 21 12 10 9 11 -18 8 -29 -3 -32 -2 -21 11
7 8 9 15 5 15 -4 0 -2 6 4 13 6 8 7 18 3 23 -4 4 1 2 11 -5 9 -7 17 -10 17 -5
1 5 7 -2 15 -16 16 -29 20 -19 4 11 -5 11 -14 17 -18 14 -5 -3 -12 2 -15 11
-4 12 -1 14 13 9 11 -3 23 0 27 6 5 9 2 10 -9 6 -9 -3 -19 -2 -22 2 -6 10 23
23 35 16 5 -3 11 -1 14 4 4 6 -7 8 -25 6 -26 -4 -29 -2 -19 10 6 7 19 11 28 8
13 -4 12 -2 -3 10 -15 12 -17 18 -7 29 6 8 9 18 5 21 -3 4 -1 13 5 20 7 8 9
17 5 20 -3 4 -1 7 5 7 7 0 11 3 10 8 -5 15 33 93 42 87 6 -3 7 1 4 9 -3 9 -11
13 -16 10 -6 -4 -3 5 6 18 9 14 13 28 9 31 -3 4 -2 7 4 7 11 0 27 54 24 78 -1
6 3 12 9 12 6 0 8 -4 5 -10 -3 -5 -1 -10 4 -10 14 0 14 13 -1 28 -9 9 -9 12 0
12 6 0 16 -8 21 -17 6 -10 11 -13 11 -6 0 6 -4 15 -10 18 -5 3 -10 15 -10 26
0 11 5 17 10 14 6 -4 8 -10 5 -15 -3 -4 2 -13 9 -19 10 -9 16 -9 21 -1 4 6 1
9 -7 8 -8 -2 -13 7 -12 23 0 20 -4 26 -15 22 -10 -3 -12 -1 -6 4 6 4 12 15 14
23 5 24 9 44 10 53 1 4 6 7 12 7 5 0 7 -4 4 -10 -3 -5 -1 -10 4 -10 14 0 14
17 2 25 -14 8 -9 45 6 45 7 0 13 -4 13 -10 0 -5 -5 -10 -11 -10 -5 0 -7 -5 -3
-11 5 -8 9 -7 15 4 11 18 1 49 -13 41 -5 -3 -2 8 6 25 9 17 16 34 16 38 0 5 6
8 13 8 12 0 27 14 27 28 0 4 -5 7 -11 7 -5 0 -7 -4 -4 -10 3 -5 -1 -10 -11
-10 -13 0 -14 3 -4 15 7 8 9 15 5 15 -4 0 -3 6 3 13 10 12 12 17 12 38 0 5 5
7 11 3 8 -4 9 0 4 15 -7 22 10 30 18 9 6 -17 -12 -50 -23 -43 -4 3 -7 -1 -6
-7 3 -21 16 -38 29 -38 7 0 4 5 -5 11 -17 9 -17 12 4 39 16 23 19 32 10 43 -7
8 -8 18 -4 22 4 5 1 5 -7 0 -9 -5 -12 -4 -8 2 3 5 8 23 11 39 3 16 10 30 15
32 6 2 8 9 5 17 -3 7 0 16 5 20 6 3 8 11 5 17 -4 7 -2 8 5 4 9 -6 9 -11 1 -21
-6 -7 -8 -20 -4 -29 4 -10 1 -16 -7 -16 -7 0 -9 -3 -6 -7 4 -3 2 -12 -4 -20
-8 -9 -8 -17 0 -26 6 -8 7 -18 3 -22 -4 -5 -2 -5 5 -2 6 4 14 1 16 -5 4 -8 6
-9 6 -2 1 6 -6 17 -14 24 -21 18 -19 35 3 19 15 -12 16 -12 5 1 -8 10 -9 21
-3 30 5 8 7 22 4 32 -2 9 0 19 5 22 6 4 8 13 5 21 -4 9 2 13 19 11 20 -3 24 1
23 23 -1 14 4 26 11 26 6 0 15 4 20 9 4 5 3 6 -4 2 -6 -3 -15 -2 -18 4 -4 6
-15 8 -26 5 -11 -4 -19 -2 -19 4 0 6 5 11 11 11 6 0 8 7 5 16 -3 8 -2 13 3 10
5 -3 9 6 9 20 0 34 18 53 35 35 10 -12 8 -13 -8 -7 -11 4 -16 4 -12 0 4 -4 2
-13 -4 -20 -7 -8 -7 -14 1 -19 5 -3 10 -11 10 -16 0 -6 -4 -7 -10 -4 -5 3 -10
1 -10 -4 0 -6 4 -11 9 -11 17 0 23 20 11 35 -9 11 -7 16 10 25 16 9 19 15 11
23 -7 7 -7 14 1 24 8 10 8 17 -2 26 -7 7 -10 7 -7 2 6 -12 -9 -42 -17 -34 -3
3 1 17 8 31 8 15 11 30 8 34 -4 4 -1 4 6 0 9 -6 11 -1 8 18 -3 14 0 26 5 26 5
0 8 3 7 8 -3 10 20 72 26 72 3 0 3 -6 0 -13 -3 -8 3 -20 12 -28 10 -8 15 -9
11 -2 -4 6 -4 13 0 16 5 2 2 2 -6 0 -8 -2 -11 2 -8 11 3 7 0 19 -6 25 -8 8 -8
11 2 11 7 0 9 5 6 10 -4 6 -2 16 3 23 6 7 10 15 10 20 1 25 15 67 23 67 6 0 6
-8 -1 -19 -13 -26 -13 -28 6 -35 14 -5 15 -4 5 8 -10 12 -8 19 8 35 12 12 16
21 9 21 -6 0 -8 3 -5 6 3 4 2 15 -4 25 -12 24 -1 25 18 2 8 -10 12 -12 8 -5
-4 7 -1 20 6 28 8 10 9 18 2 25 -8 8 -13 7 -18 -2 -5 -8 -4 -10 3 -5 7 4 12 3
12 -3 0 -5 -4 -12 -9 -16 -20 -12 -21 16 -2 69 l19 56 -166 0 -167 0 -142
-423z m433 247 c1 -9 0 -13 -4 -10 -3 4 -7 14 -8 22 -1 9 0 13 4 10 3 -4 7
-14 8 -22z m-143 -475 c-6 -6 -9 -18 -6 -25 3 -8 1 -14 -3 -15 -5 0 -17 -2
-26 -4 -10 -2 -18 1 -18 6 0 5 10 9 22 9 21 0 21 0 2 16 -10 8 -14 13 -7 10 6
-4 14 -2 18 4 3 5 11 10 18 10 8 0 8 -3 0 -11z m-406 -1164 c0 -8 -6 -15 -14
-15 -17 0 -17 17 0 23 6 3 12 6 13 6 0 1 1 -6 1 -14z m-77 -235 c-12 -22 -25
-26 -36 -8 -4 6 -3 8 3 5 6 -4 13 0 17 8 3 8 10 15 16 15 8 0 8 -6 0 -20z
m-530 -1494 c0 -3 -4 -8 -10 -11 -5 -3 -10 -1 -10 4 0 6 5 11 10 11 6 0 10 -2
10 -4z"/>
<path d="M4975 5338 c-8 -21 -469 -1351 -560 -1613 -46 -132 -156 -449 -245
-705 -89 -256 -184 -530 -212 -610 -27 -80 -65 -188 -83 -240 -19 -52 -75
-214 -125 -360 -51 -146 -126 -362 -167 -480 -223 -639 -404 -1164 -406 -1175
-1 -5 22 -9 51 -9 43 0 52 -3 47 -16 -3 -9 0 -8 10 4 8 11 15 14 15 7 0 -7 5
-9 13 -4 29 18 95 4 81 -18 -3 -5 0 -9 6 -9 7 0 9 8 5 23 -6 18 -5 20 6 10 17
-17 29 -16 29 2 0 8 5 15 10 15 6 0 10 8 10 18 0 10 7 28 16 40 8 12 12 27 8
34 -5 7 -3 8 6 3 10 -6 12 -4 7 8 -7 18 8 24 18 7 7 -11 35 -2 35 12 0 6 -6 5
-15 -2 -12 -10 -16 -9 -21 4 -3 9 -11 13 -18 9 -6 -4 -5 1 3 10 18 22 32 22
24 -1 -4 -11 0 -10 11 6 10 12 15 30 11 41 -4 15 -1 19 12 17 10 -2 12 -1 6 1
-7 3 -13 10 -13 16 0 7 -4 6 -10 -3 -5 -8 -7 -25 -3 -38 4 -18 2 -21 -12 -16
-9 4 -13 10 -8 13 7 5 12 22 15 58 1 7 13 10 30 8 24 -3 27 -1 19 14 -6 10 -6
23 0 32 11 18 11 29 1 29 -8 0 -12 -15 -13 -53 0 -10 -6 -16 -12 -14 -13 4
-10 40 3 45 5 2 6 10 3 18 -3 8 0 14 7 14 6 0 8 5 4 13 -5 8 -2 8 9 -2 9 -7
17 -10 17 -5 0 5 5 2 10 -6 6 -9 10 -11 10 -3 0 7 7 10 18 7 13 -5 14 -4 3 4
-8 6 -23 9 -34 7 -13 -3 -17 0 -13 11 3 9 1 12 -4 9 -6 -3 -10 1 -10 9 0 21
16 20 30 -2 7 -11 10 -12 7 -2 -2 8 5 28 16 44 12 16 16 26 9 22 -7 -4 -12 -2
-12 3 0 6 5 11 12 11 6 0 9 3 5 6 -3 4 1 13 9 21 11 12 12 18 3 29 -7 8 -9 17
-6 21 4 3 1 13 -6 21 -10 13 -9 14 2 8 10 -7 12 -4 7 12 -4 11 -2 23 4 27 6 3
7 11 4 17 -5 7 -2 8 6 3 10 -6 12 -4 7 8 -8 21 1 47 16 47 8 0 7 -4 -1 -12 -7
-7 -8 -17 -1 -29 7 -13 5 -20 -8 -28 -17 -10 -17 -10 0 -11 9 0 18 5 18 10 1
6 2 15 3 21 0 7 10 16 21 21 15 6 13 7 -9 3 -26 -6 -28 -4 -17 9 7 9 18 13 25
9 6 -3 7 -2 3 3 -5 5 -14 9 -20 9 -5 0 -12 6 -15 13 -2 7 2 10 12 6 9 -3 16
-1 16 5 0 6 -4 11 -8 11 -5 0 -9 7 -9 15 0 8 3 15 7 15 3 0 6 10 7 21 3 32 13
36 30 14 14 -18 15 -18 9 -1 -3 10 -1 25 6 33 15 18 18 53 7 74 -5 10 -3 23 5
35 7 10 13 30 14 43 0 13 6 27 13 31 6 5 8 13 4 20 -6 9 -4 11 5 5 10 -6 12
-4 7 8 -8 20 1 47 15 47 6 0 5 -7 -2 -16 -11 -13 -10 -19 8 -37 12 -12 22 -19
22 -15 0 4 -7 14 -16 23 -15 15 -15 18 6 40 16 17 20 29 15 47 -7 20 -6 21 8
10 12 -10 17 -10 23 -1 4 7 3 9 -4 5 -6 -3 -13 -2 -17 4 -11 18 -25 0 -19 -24
4 -16 1 -23 -10 -23 -9 0 -16 4 -16 9 0 4 4 8 9 8 5 0 9 6 8 13 -1 41 3 48 22
37 29 -15 38 -12 14 5 -21 15 -22 55 -1 55 5 0 6 -4 3 -10 -4 -6 1 -7 11 -3
11 4 13 8 6 11 -7 2 -9 9 -6 14 4 7 2 8 -4 4 -7 -4 -12 -2 -12 3 0 6 4 11 8
11 4 0 8 8 9 18 2 28 11 59 24 84 7 13 12 27 11 32 -2 4 2 14 8 20 5 7 7 16 3
19 -3 4 -2 7 4 7 6 0 16 -7 23 -15 8 -10 17 -12 23 -6 13 13 -2 34 -19 27 -18
-7 -28 12 -15 28 6 7 7 16 3 21 -4 4 4 4 17 0 15 -5 21 -3 17 3 -3 6 0 13 6
16 7 3 2 3 -12 -1 -22 -5 -23 -4 -12 10 7 8 11 19 10 23 -2 5 2 23 9 39 30 79
30 79 32 95 0 6 8 10 16 10 8 0 15 -4 15 -10 0 -5 -8 -10 -17 -10 -15 0 -16
-2 -3 -10 23 -15 27 -12 25 12 -4 38 -5 39 -15 33 -5 -3 -10 -1 -10 4 0 6 5
11 10 11 6 0 10 5 10 11 0 5 -6 7 -12 3 -10 -6 -10 -4 0 7 6 7 12 21 12 31 0
11 7 18 18 18 10 0 13 -3 7 -8 -14 -9 -17 -55 -4 -46 6 3 8 12 5 20 -3 7 -1
16 4 19 5 3 11 -3 13 -12 4 -16 5 -16 6 -1 0 9 -8 23 -19 31 -11 8 -17 17 -12
21 4 4 7 11 8 14 2 26 17 72 23 72 4 0 8 6 9 13 1 12 9 47 12 57 1 3 2 8 1 13
-2 11 17 9 24 -3 8 -13 25 -13 25 1 0 5 -4 8 -9 5 -5 -3 -15 2 -22 11 -12 15
-12 16 3 10 19 -7 42 16 35 35 -3 8 -6 6 -6 -5 -1 -11 -6 -15 -13 -11 -7 5 -8
2 -3 -7 5 -8 4 -10 0 -6 -13 11 -15 38 -2 30 7 -4 8 0 4 11 -6 15 -2 17 26 12
18 -3 24 -3 14 2 -16 7 -16 9 4 25 15 14 18 21 10 31 -6 8 -9 22 -5 32 5 18 5
18 -6 1 -8 -13 -9 -22 -1 -31 8 -10 8 -16 -3 -25 -23 -19 -26 8 -6 59 19 48
20 52 20 75 0 23 16 18 17 -5 1 -11 -2 -18 -6 -15 -5 2 -8 -5 -7 -17 1 -22 26
-39 26 -18 0 6 -5 8 -11 4 -7 -4 -10 -1 -7 7 3 8 11 13 17 11 8 -1 9 3 3 15
-11 22 -4 46 10 37 7 -4 8 -2 4 4 -4 6 -14 8 -24 5 -14 -5 -13 -2 3 11 11 10
14 15 8 11 -7 -3 -13 -1 -13 5 0 6 11 8 28 5 26 -5 26 -5 5 6 -13 7 -23 16
-23 21 0 12 7 10 38 -8 l27 -17 -27 24 c-21 18 -25 28 -18 39 5 8 12 11 17 7
4 -5 2 -12 -6 -16 -10 -7 -10 -9 2 -14 8 -3 17 -3 20 0 9 8 -15 53 -25 47 -5
-4 -5 2 1 12 5 11 12 31 16 47 3 15 10 27 16 27 6 0 6 -7 1 -17 -12 -24 -8
-64 7 -88 12 -20 12 -20 6 0 -11 33 -13 49 -5 60 11 17 9 55 -3 55 -8 0 -9 2
-1 8 6 4 11 14 12 22 1 24 10 57 21 78 6 11 7 23 3 27 -4 5 -2 5 5 1 7 -4 10
-14 6 -24 -3 -11 1 -9 11 6 10 12 22 20 27 17 5 -4 9 -1 9 4 0 14 -13 14 -27
0 -7 -7 -12 -6 -17 6 -3 9 -2 13 4 10 6 -3 9 2 8 12 -3 33 2 53 12 53 7 0 7
-7 -1 -21 -9 -19 -9 -20 7 -11 20 11 25 46 13 79 -7 18 -5 21 11 18 13 -3 17
1 13 11 -3 7 -9 11 -14 8 -10 -5 9 44 22 60 9 10 6 -15 -3 -29 -4 -6 -2 -17 4
-25 8 -12 9 -12 4 2 -3 10 2 22 12 27 11 7 12 11 4 11 -7 0 -11 4 -7 9 3 5 1
12 -4 15 -15 9 -1 45 15 39 8 -3 11 -10 7 -17 -3 -7 -1 -6 7 1 12 11 11 16 -6
29 -13 11 -14 14 -3 11 9 -3 22 -1 30 4 12 7 12 9 -1 10 -8 1 -18 1 -23 0 -9
-1 -1 50 10 58 4 3 9 17 11 31 2 14 10 30 18 36 12 10 12 13 2 17 -11 4 -11 6
0 6 7 1 10 6 7 11 -3 6 1 10 11 10 13 0 14 -3 4 -15 -9 -10 -9 -15 -1 -15 6 0
11 4 11 10 0 5 8 7 18 4 9 -3 5 3 -10 12 -26 17 -41 44 -17 28 8 -4 9 0 4 15
-4 12 -2 21 4 21 6 0 8 6 5 14 -3 8 0 17 5 21 6 3 8 11 5 17 -4 7 -2 8 4 4 9
-5 9 -13 2 -27 -6 -10 -8 -19 -4 -19 3 0 1 -6 -5 -13 -8 -10 -7 -14 3 -14 9 0
13 8 11 19 -3 15 0 18 18 12 21 -6 21 -6 3 9 -19 14 -19 14 0 26 14 9 15 11 2
7 -21 -6 -29 13 -15 39 5 10 11 28 12 40 4 34 5 35 16 35 8 0 7 -5 -1 -15 -10
-12 -10 -19 -2 -27 16 -16 15 -31 0 -22 -8 5 -7 0 2 -11 14 -17 13 -18 -2 -12
-10 3 -20 1 -24 -6 -4 -7 -4 -9 1 -5 4 4 15 3 24 -2 14 -7 17 -4 17 20 -1 16
-4 32 -8 36 -5 4 -8 10 -8 14 0 13 52 60 61 54 5 -3 9 0 9 5 0 15 -11 13 -34
-4 -24 -18 -40 -19 -29 -2 4 6 9 23 11 37 2 13 7 29 11 35 5 5 12 24 16 40 11
40 12 44 15 53 1 4 2 11 1 15 -1 5 3 6 9 2 8 -5 7 -11 -1 -21 -7 -9 -8 -14 -1
-14 16 0 21 23 10 44 -8 14 -7 17 3 11 9 -6 11 -3 6 9 -5 12 -3 16 5 13 7 -2
12 -14 11 -26 -2 -11 1 -21 6 -21 4 0 7 8 6 18 -2 27 -16 52 -25 47 -5 -3 -2
8 7 25 8 17 16 39 18 48 2 9 4 19 5 22 1 3 2 8 1 13 -2 11 17 9 24 -3 3 -5 11
-10 17 -10 5 0 0 9 -13 19 -13 11 -21 22 -18 26 4 3 14 -2 23 -11 25 -24 29
-11 6 14 -12 12 -16 22 -11 22 5 0 10 8 10 18 1 39 5 52 14 52 6 0 8 3 4 6 -3
4 0 19 9 35 8 16 12 29 9 29 -3 0 1 14 10 30 9 17 13 30 9 30 -4 0 -1 6 5 13
6 8 12 22 14 33 2 10 8 28 14 39 6 11 11 24 11 30 1 14 22 19 22 5 0 -6 -4 -8
-10 -5 -5 3 -7 0 -4 -8 3 -8 -3 -23 -13 -33 -17 -17 -17 -18 0 -11 15 6 17 3
12 -16 -5 -19 -4 -20 5 -4 6 9 8 22 5 27 -3 5 -1 18 5 29 11 22 3 54 -12 45
-6 -4 -3 4 5 17 9 13 16 27 16 32 1 18 14 63 22 72 4 6 11 26 14 45 3 19 10
39 15 46 6 6 7 14 3 17 -3 4 1 9 10 13 9 3 13 12 10 20 -3 8 0 20 6 28 6 7 8
16 4 19 -3 4 -2 7 4 7 19 0 23 -13 6 -25 -13 -10 -14 -15 -4 -31 11 -18 12
-18 6 3 -4 16 -1 23 15 28 20 6 20 6 -1 24 -16 12 -19 22 -13 32 5 8 9 16 9
19 4 25 21 58 39 72 16 13 18 20 9 29 -8 8 -9 18 -2 31 5 10 7 18 4 18 -3 0 0
10 7 23 12 21 14 28 22 65 2 9 11 16 20 16 22 -2 51 52 32 59 -10 4 -12 0 -9
-14 3 -11 0 -19 -6 -19 -7 0 -9 -6 -5 -12 5 -10 4 -10 -6 -1 -12 11 -11 19 5
50 10 21 17 44 16 51 -2 10 5 12 21 7 20 -5 20 -4 6 5 -20 12 -24 40 -7 40 6
0 9 -7 5 -15 -3 -8 -1 -15 4 -15 6 0 10 9 10 21 0 13 4 18 13 13 7 -4 9 -3 4
2 -5 5 -13 9 -18 9 -5 0 -9 3 -9 8 0 4 0 12 0 17 0 6 5 10 11 10 8 0 8 -4 -1
-14 -10 -13 -8 -13 14 -3 24 11 25 12 6 21 -21 10 -27 26 -9 26 5 0 8 4 5 8
-7 12 12 38 21 29 4 -5 1 -12 -7 -17 -10 -6 -11 -10 -3 -10 7 0 10 -6 7 -14
-3 -7 2 -16 12 -20 14 -5 15 -4 5 8 -8 9 -8 16 -2 20 6 4 8 13 5 21 -4 9 3 18
17 24 23 9 23 10 3 10 -12 1 -28 9 -35 18 -12 14 -12 16 0 8 11 -6 13 -4 9 7
-4 8 3 30 13 48 11 18 18 35 15 38 -4 3 -6 -1 -6 -8 0 -7 -2 -11 -5 -8 -3 3 2
21 10 41 l15 37 -140 0 c-103 0 -142 -3 -145 -12z m245 -178 c0 -5 -7 -7 -15
-4 -8 4 -12 10 -9 15 6 11 24 2 24 -11z m-170 -460 c0 -5 -5 -10 -11 -10 -5 0
-7 5 -4 10 3 6 8 10 11 10 2 0 4 -4 4 -10z m-640 -1840 c0 -5 -4 -10 -10 -10
-5 0 -10 5 -10 10 0 6 5 10 10 10 6 0 10 -4 10 -10z m-225 -630 c3 -5 1 -10
-4 -10 -6 0 -11 5 -11 10 0 6 2 10 4 10 3 0 8 -4 11 -10z m-195 -660 c0 -5 -2
-10 -4 -10 -3 0 -8 5 -11 10 -3 6 -1 10 4 10 6 0 11 -4 11 -10z m-229 -559
c-10 -6 -10 -10 -2 -16 13 -8 -3 -35 -21 -35 -6 0 -5 6 2 15 6 8 9 19 6 24 -4
5 -2 12 4 16 6 4 7 12 4 18 -4 8 -2 7 7 -1 12 -11 12 -14 0 -21z m-117 -325
c-3 -8 -1 -17 5 -21 7 -4 2 -19 -15 -41 -15 -19 -21 -34 -15 -34 9 0 9 -5 1
-20 -6 -11 -16 -18 -21 -14 -7 4 -7 10 -1 16 6 6 8 17 5 24 -3 8 0 14 6 14 6
0 8 7 4 17 -5 12 -3 14 7 8 10 -6 12 -4 7 9 -5 11 -3 15 5 10 8 -5 9 -2 5 10
-4 10 -5 22 -1 27 8 14 14 11 8 -5z"/>
<path d="M2129 5303 c-13 -16 -12 -17 4 -4 16 13 21 21 13 21 -2 0 -10 -8 -17
-17z"/>
<path d="M1295 5281 c-3 -5 -2 -12 3 -15 5 -3 9 1 9 9 0 17 -3 19 -12 6z"/>
<path d="M2090 5279 c0 -5 5 -7 10 -4 6 3 10 8 10 11 0 2 -4 4 -10 4 -5 0 -10
-5 -10 -11z"/>
<path d="M3006 5278 c3 -5 10 -6 15 -3 13 9 11 12 -6 12 -8 0 -12 -4 -9 -9z"/>
<path d="M4550 5279 c0 -5 5 -7 10 -4 6 3 10 8 10 11 0 2 -4 4 -10 4 -5 0 -10
-5 -10 -11z"/>
<path d="M4576 5273 c-6 -14 -5 -15 5 -6 7 7 10 15 7 18 -3 3 -9 -2 -12 -12z"/>
<path d="M1250 5270 c-9 -6 -10 -10 -3 -10 6 0 15 5 18 10 8 12 4 12 -15 0z"/>
<path d="M430 5263 c0 -5 5 -15 10 -23 7 -12 9 -10 7 8 -1 19 -17 33 -17 15z"/>
<path d="M2110 5261 c0 -6 4 -12 8 -15 5 -3 9 1 9 9 0 8 -4 15 -9 15 -4 0 -8
-4 -8 -9z"/>
<path d="M2995 5260 c6 -10 4 -12 -11 -6 -15 6 -17 5 -6 -5 9 -9 15 -10 23 -2
8 8 7 13 -2 18 -8 6 -10 4 -4 -5z"/>
<path d="M5260 5260 c0 -6 7 -10 15 -10 8 0 15 2 15 4 0 2 -7 6 -15 10 -8 3
-15 1 -15 -4z"/>
<path d="M2086 5252 c2 -3 -2 -12 -9 -20 -9 -13 -9 -14 1 -8 18 11 15 -5 -5
-21 -16 -13 -16 -13 3 -4 12 6 23 8 26 6 3 -3 4 4 3 15 -1 11 -6 24 -12 29 -5
5 -8 6 -7 3z"/>
<path d="M3854 5238 c-4 -7 -3 -10 1 -5 5 4 18 -1 29 -10 21 -18 21 -18 2 5
-22 26 -23 26 -32 10z"/>
<path d="M5235 5240 c-3 -5 -1 -10 4 -10 6 0 11 5 11 10 0 6 -2 10 -4 10 -3 0
-8 -4 -11 -10z"/>
<path d="M1261 5224 c0 -11 3 -14 6 -6 3 7 2 16 -1 19 -3 4 -6 -2 -5 -13z"/>
<path d="M2966 5229 c4 -6 0 -15 -7 -20 -10 -6 -11 -9 -1 -9 6 0 15 -1 19 -2
3 -2 7 5 9 14 1 9 -5 19 -13 22 -8 4 -11 2 -7 -5z"/>
<path d="M4575 5219 c-4 -6 -4 -13 -1 -16 3 -4 6 -1 6 6 0 7 5 9 12 5 7 -4 8
-3 4 4 -9 15 -13 15 -21 1z"/>
<path d="M5268 5223 c7 -3 16 -2 19 1 4 3 -2 6 -13 5 -11 0 -14 -3 -6 -6z"/>
<path d="M440 5211 c0 -6 4 -13 10 -16 6 -3 7 1 4 9 -7 18 -14 21 -14 7z"/>
<path d="M405 5200 c-3 -5 -2 -10 4 -10 5 0 13 5 16 10 3 6 2 10 -4 10 -5 0
-13 -4 -16 -10z"/>
<path d="M5256 5198 c3 -5 10 -6 15 -3 13 9 11 12 -6 12 -8 0 -12 -4 -9 -9z"/>
<path d="M1253 5193 c-17 -6 -17 -20 0 -20 8 0 14 6 14 14 0 7 -1 13 -1 12 -1
0 -7 -3 -13 -6z"/>
<path d="M2076 5177 c-18 -13 -13 -47 6 -47 6 0 5 7 -2 15 -14 17 -14 17 15
33 11 6 15 12 9 12 -5 0 -18 -6 -28 -13z"/>
<path d="M2944 5179 c-3 -6 -1 -16 5 -22 9 -9 10 -7 5 7 -6 15 -4 17 6 11 9
-5 11 -4 6 3 -9 15 -13 15 -22 1z"/>
<path d="M3802 5170 c-7 -11 -8 -20 -2 -20 5 0 7 -7 4 -15 -4 -8 -10 -13 -14
-10 -4 3 -11 -2 -14 -10 -4 -13 -2 -14 14 -5 11 6 21 16 21 23 1 7 2 19 3 27
0 8 7 14 14 12 8 -1 11 2 7 8 -9 15 -19 12 -33 -10z"/>
<path d="M2095 5160 c-3 -5 -1 -10 4 -10 6 0 11 5 11 10 0 6 -2 10 -4 10 -3 0
-8 -4 -11 -10z"/>
<path d="M2990 5159 c0 -5 5 -7 10 -4 6 3 10 8 10 11 0 2 -4 4 -10 4 -5 0 -10
-5 -10 -11z"/>
<path d="M4566 5158 c3 -5 10 -6 15 -3 13 9 11 12 -6 12 -8 0 -12 -4 -9 -9z"/>
<path d="M2972 5140 c0 -14 2 -19 5 -12 2 6 2 18 0 25 -3 6 -5 1 -5 -13z"/>
<path d="M393 5123 c0 -15 2 -22 4 -15 3 6 10 9 16 5 7 -4 5 2 -3 13 -8 10
-15 20 -16 22 -1 2 -1 -10 -1 -25z"/>
<path d="M439 5148 c-5 -18 -6 -38 -1 -34 7 8 12 36 6 36 -2 0 -4 -1 -5 -2z"/>
<path d="M4535 5120 c3 -5 8 -10 11 -10 2 0 4 5 4 10 0 6 -5 10 -11 10 -5 0
-7 -4 -4 -10z"/>
<path d="M1197 5100 c8 -30 21 -34 15 -5 -2 14 -8 25 -12 25 -5 0 -6 -9 -3
-20z"/>
<path d="M3810 5100 c0 -5 5 -10 10 -10 6 0 10 5 10 10 0 6 -4 10 -10 10 -5 0
-10 -4 -10 -10z"/>
<path d="M4496 5088 c3 -5 0 -15 -6 -23 -9 -11 -9 -15 -1 -15 6 0 11 5 11 10
0 6 10 14 22 19 21 8 21 8 -5 13 -14 3 -24 1 -21 -4z"/>
<path d="M380 5066 c0 -2 7 -6 15 -10 8 -3 15 -1 15 4 0 6 -7 10 -15 10 -8 0
-15 -2 -15 -4z"/>
<path d="M2076 5053 c-6 -14 -5 -15 5 -6 7 7 10 15 7 18 -3 3 -9 -2 -12 -12z"/>
<path d="M4519 5063 c-5 -29 -5 -53 -1 -48 7 6 12 55 6 55 -2 0 -5 -3 -5 -7z"/>
<path d="M2016 5026 c5 -13 4 -17 -4 -12 -6 3 -14 1 -18 -5 -4 -8 -3 -9 4 -5
7 4 12 3 12 -3 0 -5 -4 -11 -10 -13 -5 -1 0 -14 11 -28 18 -22 19 -23 9 -2 -8
16 -8 28 1 43 8 16 8 24 -1 33 -8 8 -9 6 -4 -8z"/>
<path d="M4486 5027 c3 -10 9 -15 12 -12 3 3 0 11 -7 18 -10 9 -11 8 -5 -6z"/>
<path d="M1170 5026 c0 -2 7 -7 16 -10 8 -3 12 -2 9 4 -6 10 -25 14 -25 6z"/>
<path d="M5197 5023 c-4 -3 -7 -11 -7 -17 0 -6 5 -5 12 2 6 6 9 14 7 17 -3 3
-9 2 -12 -2z"/>
<path d="M2035 4999 c-3 -4 2 -6 10 -5 21 3 28 13 10 13 -9 0 -18 -4 -20 -8z"/>
<path d="M2910 5001 c0 -6 4 -12 8 -15 5 -3 9 1 9 9 0 8 -4 15 -9 15 -4 0 -8
-4 -8 -9z"/>
<path d="M325 4962 c-16 -20 -24 -33 -17 -28 6 4 12 2 12 -4 0 -6 -7 -13 -15
-16 -21 -8 -19 -21 4 -34 14 -7 22 -7 26 0 4 6 3 10 -2 9 -29 -5 -36 2 -19 20
10 11 15 24 12 29 -3 4 4 16 15 25 10 9 19 21 19 27 0 14 -1 13 -35 -28z"/>
<path d="M1175 4980 c3 -5 8 -10 11 -10 2 0 4 5 4 10 0 6 -5 10 -11 10 -5 0
-7 -4 -4 -10z"/>
<path d="M4449 4973 c0 -5 -2 -16 -4 -25 -2 -9 2 -22 9 -27 13 -11 57 -11 50
0 -2 4 -14 5 -27 2 -12 -3 -19 -2 -15 2 4 5 2 15 -5 23 -10 13 -9 15 7 9 16
-6 17 -5 6 8 -14 17 -20 19 -21 8z"/>
<path d="M4496 4953 c-6 -14 -5 -15 5 -6 7 7 10 15 7 18 -3 3 -9 -2 -12 -12z"/>
<path d="M5146 4954 c-8 -21 -8 -24 5 -24 5 0 8 4 4 9 -3 6 3 14 12 20 16 9
16 10 2 11 -9 0 -20 -7 -23 -16z"/>
<path d="M3766 4943 c-6 -14 -5 -15 5 -6 7 7 10 15 7 18 -3 3 -9 -2 -12 -12z"/>
<path d="M1985 4940 c3 -5 2 -10 -3 -10 -6 0 -13 -8 -16 -17 -6 -15 -4 -15 14
2 11 10 20 13 20 7 0 -6 -4 -14 -10 -17 -5 -3 -10 -11 -10 -18 0 -6 7 -2 15
10 15 21 11 53 -7 53 -5 0 -6 -4 -3 -10z"/>
<path d="M2895 4920 c-3 -5 -1 -10 4 -10 6 0 11 5 11 10 0 6 -2 10 -4 10 -3 0
-8 -4 -11 -10z"/>
<path d="M2865 4909 c-4 -6 -5 -12 -2 -15 2 -3 7 2 10 11 7 17 1 20 -8 4z"/>
<path d="M4442 4904 c10 -10 20 -16 22 -13 3 3 -5 11 -17 18 -21 13 -21 12 -5
-5z"/>
<path d="M1101 4886 c-9 -10 -8 -15 3 -19 11 -4 13 -1 9 10 -4 11 -2 14 5 9 7
-4 12 -2 12 3 0 15 -15 14 -29 -3z"/>
<path d="M2839 4890 c-3 -19 -5 -25 -18 -49 -8 -14 -9 -21 -2 -17 6 4 11 3 11
-3 0 -5 -4 -11 -9 -13 -5 -1 -11 -10 -13 -18 -2 -8 -7 -19 -13 -23 -6 -5 -4
-7 5 -4 8 2 15 9 15 15 0 6 6 17 13 24 11 11 12 8 7 -17 -5 -27 -4 -28 5 -7 7
16 7 30 -1 44 -14 27 -2 36 17 12 14 -17 14 -16 1 11 -8 17 -12 36 -10 43 3 6
2 12 -1 12 -3 0 -7 -4 -7 -10z"/>
<path d="M4430 4883 c0 -4 5 -15 10 -23 8 -13 10 -13 10 2 0 9 -4 20 -10 23
-5 3 -10 3 -10 -2z"/>
<path d="M281 4864 c0 -11 3 -14 6 -6 3 7 2 16 -1 19 -3 4 -6 -2 -5 -13z"/>
<path d="M3720 4871 c0 -10 19 -25 25 -20 1 2 -3 10 -11 17 -8 7 -14 8 -14 3z"/>
<path d="M1974 4859 c-3 -6 -1 -16 5 -22 9 -9 10 -7 5 7 -6 15 -4 17 6 11 9
-5 11 -4 6 3 -9 15 -13 15 -22 1z"/>
<path d="M2880 4860 c-12 -7 -10 -9 7 -7 12 0 19 5 17 9 -6 10 -6 10 -24 -2z"/>
<path d="M5140 4859 c0 -5 5 -7 10 -4 6 3 10 8 10 11 0 2 -4 4 -10 4 -5 0 -10
-5 -10 -11z"/>
<path d="M1122 4838 c-15 -15 -15 -28 0 -28 6 0 8 3 5 7 -4 3 -2 12 4 20 14
16 7 17 -9 1z"/>
<path d="M5102 4842 c-9 -6 -7 -13 10 -27 13 -11 17 -13 11 -5 -15 17 -17 34
-3 25 6 -3 10 -1 10 4 0 13 -10 14 -28 3z"/>
<path d="M290 4836 c0 -2 8 -10 18 -17 15 -13 16 -12 3 4 -13 16 -21 21 -21
13z"/>
<path d="M1955 4820 c3 -5 8 -10 11 -10 2 0 4 5 4 10 0 6 -5 10 -11 10 -5 0
-7 -4 -4 -10z"/>
<path d="M4455 4821 c-3 -5 -2 -12 3 -15 5 -3 9 1 9 9 0 17 -3 19 -12 6z"/>
<path d="M5091 4796 c7 -15 15 -23 17 -16 3 7 -3 19 -13 28 -15 16 -16 15 -4
-12z"/>
<path d="M1090 4803 c5 -2 8 -9 5 -14 -4 -5 -2 -17 4 -26 8 -15 9 -12 7 12 -2
16 -8 30 -15 31 -6 2 -7 0 -1 -3z"/>
<path d="M1940 4800 c0 -6 7 -10 15 -10 8 0 15 2 15 4 0 2 -7 6 -15 10 -8 3
-15 1 -15 -4z"/>
<path d="M3677 4804 c-3 -5 1 -15 9 -22 16 -14 18 -5 5 17 -5 7 -11 9 -14 5z"/>
<path d="M1055 4780 c-3 -6 1 -7 9 -4 18 7 21 14 7 14 -6 0 -13 -4 -16 -10z"/>
<path d="M4420 4780 c-8 -5 -10 -10 -5 -10 6 0 17 5 25 10 8 5 11 10 5 10 -5
0 -17 -5 -25 -10z"/>
<path d="M5072 4736 c0 -31 3 -58 8 -61 4 -2 5 7 2 22 -4 20 -2 24 9 18 12 -8
12 -6 1 8 -8 9 -11 21 -7 26 3 6 2 18 -3 27 -6 11 -9 -1 -10 -40z"/>
<path d="M1062 4763 c-7 -2 -17 -14 -23 -26 -11 -21 -11 -21 10 1 12 12 27 19
33 16 7 -4 8 -2 4 4 -4 7 -8 12 -9 11 -1 0 -8 -3 -15 -6z"/>
<path d="M1935 4750 c-3 -5 -12 -7 -19 -4 -7 3 -16 -1 -19 -9 -5 -13 9 -16 33
-7 3 1 8 2 11 2 3 -1 6 6 6 14 0 16 -4 18 -12 4z"/>
<path d="M5100 4752 c0 -6 5 -14 10 -17 6 -4 7 -11 4 -17 -4 -7 -2 -8 5 -4 9
6 9 12 -1 24 -7 10 -14 19 -15 21 -2 2 -3 -1 -3 -7z"/>
<path d="M2810 4740 c0 -5 5 -10 10 -10 6 0 10 5 10 10 0 6 -4 10 -10 10 -5 0
-10 -4 -10 -10z"/>
<path d="M1068 4733 c7 -3 16 -2 19 1 4 3 -2 6 -13 5 -11 0 -14 -3 -6 -6z"/>
<path d="M3675 4720 c-12 -4 -27 -16 -35 -26 -9 -11 -10 -15 -2 -10 6 4 12 2
12 -3 0 -6 5 -11 11 -11 8 0 8 5 -1 15 -10 12 -8 16 14 25 14 5 26 12 26 15 0
6 1 6 -25 -5z"/>
<path d="M1930 4710 c-9 -6 -10 -10 -3 -10 6 0 15 5 18 10 8 12 4 12 -15 0z"/>
<path d="M2783 4713 c-17 -6 -16 -20 1 -26 11 -4 13 -1 9 10 -4 11 -2 14 5 9
7 -4 12 -2 12 3 0 12 -7 13 -27 4z"/>
<path d="M1893 4703 c4 -3 0 -17 -8 -30 -9 -13 -12 -23 -7 -23 5 0 14 11 20
25 15 32 15 35 0 35 -6 0 -8 -3 -5 -7z"/>
<path d="M1910 4670 c-6 -11 -8 -20 -6 -20 3 0 10 9 16 20 6 11 8 20 6 20 -3
0 -10 -9 -16 -20z"/>
<path d="M2773 4675 c4 -5 -3 -19 -15 -32 -13 -14 -16 -22 -8 -18 25 9 42 43
27 51 -6 4 -9 3 -4 -1z"/>
<path d="M1010 4661 c0 -9 30 -24 36 -18 2 1 -6 8 -16 15 -11 7 -20 8 -20 3z"/>
<path d="M5035 4661 c3 -2 0 -10 -6 -17 -7 -8 -6 -14 2 -20 7 -4 9 -3 5 4 -3
6 -2 13 4 17 5 3 10 3 11 -2 2 -23 8 -46 14 -51 8 -8 -1 44 -11 60 -5 8 -2 9
10 5 9 -4 15 -3 11 2 -3 6 -14 9 -25 8 -10 -1 -17 -3 -15 -6z"/>
<path d="M3650 4651 c0 -6 4 -13 10 -16 6 -3 7 1 4 9 -7 18 -14 21 -14 7z"/>
<path d="M1920 4640 c-9 -6 -10 -10 -3 -10 6 0 15 5 18 10 8 12 4 12 -15 0z"/>
<path d="M2796 4639 c3 -5 0 -9 -7 -9 -7 0 -9 -3 -6 -6 4 -4 13 -2 20 4 8 7
16 11 18 9 2 -1 3 0 1 2 -1 3 -9 6 -17 7 -8 1 -13 -2 -9 -7z"/>
<path d="M1004 4632 c3 -6 2 -13 -4 -17 -6 -4 -7 -11 -4 -17 4 -6 -1 -17 -11
-25 -11 -7 -15 -13 -9 -13 19 0 35 18 32 35 -2 10 3 20 11 23 9 3 11 0 6 -8
-5 -9 -4 -11 3 -6 16 10 15 14 -9 27 -13 7 -19 7 -15 1z"/>
<path d="M3628 4600 c9 -14 17 -27 18 -29 2 -2 2 6 1 18 -1 11 -6 21 -12 21
-5 0 -3 5 5 10 12 7 10 9 -7 8 -20 -2 -20 -3 -5 -28z"/>
<path d="M4365 4620 c3 -5 8 -10 11 -10 2 0 4 5 4 10 0 6 -5 10 -11 10 -5 0
-7 -4 -4 -10z"/>
<path d="M2745 4602 c-15 -11 -16 -30 -1 -35 10 -4 12 1 8 16 -5 20 -4 21 11
8 15 -12 17 -12 11 3 -7 18 -14 20 -29 8z"/>
<path d="M4350 4601 c0 -6 4 -13 10 -16 6 -3 7 1 4 9 -7 18 -14 21 -14 7z"/>
<path d="M5016 4597 c-17 -12 -17 -14 1 -28 17 -13 17 -13 3 5 -14 18 -13 19
2 13 10 -3 20 -2 23 3 9 15 -11 20 -29 7z"/>
<path d="M1015 4559 c-4 -6 -5 -12 -2 -15 2 -3 7 2 10 11 7 17 1 20 -8 4z"/>
<path d="M2730 4540 c6 -11 15 -20 20 -20 5 0 7 -8 3 -17 -7 -19 -5 -18 17 10
7 10 9 17 4 16 -20 -3 -35 1 -30 10 3 5 -1 12 -9 15 -13 4 -14 2 -5 -14z"/>
<path d="M991 4534 c0 -11 3 -14 6 -6 3 7 2 16 -1 19 -3 4 -6 -2 -5 -13z"/>
<path d="M1876 4533 c-6 -14 -5 -15 5 -6 7 7 10 15 7 18 -3 3 -9 -2 -12 -12z"/>
<path d="M1010 4520 c0 -5 5 -10 11 -10 5 0 7 5 4 10 -3 6 -8 10 -11 10 -2 0
-4 -4 -4 -10z"/>
<path d="M3620 4526 c0 -2 8 -10 18 -17 15 -13 16 -12 3 4 -13 16 -21 21 -21
13z"/>
<path d="M4350 4520 c0 -5 5 -10 11 -10 5 0 7 5 4 10 -3 6 -8 10 -11 10 -2 0
-4 -4 -4 -10z"/>
<path d="M5015 4520 c-3 -6 1 -7 9 -4 18 7 21 14 7 14 -6 0 -13 -4 -16 -10z"/>
<path d="M2709 4515 c-1 -3 -2 -8 -3 -12 -1 -5 -4 -12 -8 -18 -3 -5 1 -16 9
-24 13 -12 14 -11 8 10 -7 22 -7 23 11 9 12 -9 15 -9 7 -1 -6 7 -9 20 -6 27 3
8 0 14 -6 14 -6 0 -12 -2 -12 -5z"/>
<path d="M956 4497 c-15 -11 -17 -17 -7 -35 14 -27 16 -27 18 -2 1 11 -2 18
-8 15 -5 -4 -9 -2 -9 3 0 5 10 14 23 20 12 6 17 11 11 11 -5 1 -18 -5 -28 -12z"/>
<path d="M1875 4500 c3 -5 8 -10 11 -10 2 0 4 5 4 10 0 6 -5 10 -11 10 -5 0
-7 -4 -4 -10z"/>
<path d="M988 4483 c7 -3 16 -2 19 1 4 3 -2 6 -13 5 -11 0 -14 -3 -6 -6z"/>
<path d="M3590 4466 c0 -8 4 -17 9 -20 5 -4 7 3 4 14 -6 23 -13 26 -13 6z"/>
<path d="M4974 4471 c3 -5 -1 -12 -10 -15 -8 -3 -13 -10 -9 -15 3 -5 1 -13 -5
-16 -13 -8 6 -35 24 -35 6 0 3 5 -7 11 -9 6 -15 15 -11 21 4 7 9 6 14 -2 5 -8
9 -7 13 5 4 9 3 13 -2 10 -5 -3 -12 -1 -15 4 -8 13 20 21 31 10 6 -6 10 -4 10
5 0 8 -4 13 -9 10 -4 -3 -8 0 -8 5 0 6 -5 11 -11 11 -5 0 -8 -4 -5 -9z"/>
<path d="M935 4441 c3 -6 -3 -14 -12 -20 -10 -6 -13 -11 -6 -11 6 0 15 5 18
10 4 6 12 7 18 3 7 -4 6 0 -2 10 -14 18 -26 23 -16 8z"/>
<path d="M1846 4442 c-3 -5 1 -9 9 -9 8 0 12 4 9 9 -3 4 -7 8 -9 8 -2 0 -6 -4
-9 -8z"/>
<path d="M2679 4435 c-1 -3 -2 -8 -3 -12 -1 -5 -5 -14 -10 -22 -5 -8 1 -7 18
4 14 10 26 22 25 29 0 7 -2 6 -6 -1 -2 -7 -9 -13 -14 -13 -6 0 -7 5 -4 10 3 6
4 10 1 10 -3 0 -7 -2 -7 -5z"/>
<path d="M4295 4420 c-4 -6 1 -7 11 -3 13 5 15 3 9 -7 -5 -9 -4 -11 4 -6 6 4
9 12 6 17 -8 12 -22 12 -30 -1z"/>
<path d="M926 4394 c-12 -8 -14 -14 -7 -14 9 0 6 -6 -6 -17 -10 -10 -13 -14
-6 -10 6 5 18 5 24 1 8 -4 9 -3 5 4 -4 7 -1 12 6 12 10 0 10 2 -1 9 -11 7 -11
9 0 13 8 3 12 8 9 11 -3 3 -14 -1 -24 -9z"/>
<path d="M2687 4393 c-11 -11 -8 -21 9 -27 13 -5 14 -4 6 7 -7 8 -9 17 -5 20
3 4 4 7 1 7 -2 0 -8 -3 -11 -7z"/>
<path d="M1826 4378 c3 -5 10 -6 15 -3 13 9 11 12 -6 12 -8 0 -12 -4 -9 -9z"/>
<path d="M4940 4380 c0 -5 5 -10 11 -10 5 0 7 5 4 10 -3 6 -8 10 -11 10 -2 0
-4 -4 -4 -10z"/>
<path d="M3538 4368 c6 -6 18 -8 28 -6 14 3 12 5 -9 10 -19 3 -25 2 -19 -4z"/>
<path d="M3525 4351 c3 -5 -1 -12 -7 -14 -8 -4 -7 -6 4 -6 23 -1 32 15 12 23
-8 3 -13 2 -9 -3z"/>
<path d="M4270 4349 c0 -5 5 -7 10 -4 6 3 10 8 10 11 0 2 -4 4 -10 4 -5 0 -10
-5 -10 -11z"/>
<path d="M4929 4358 c-7 -23 -4 -35 7 -35 11 0 11 3 1 16 -10 12 -9 14 6 8 11
-4 16 -3 12 3 -5 9 -24 14 -26 8z"/>
<path d="M4233 4337 c0 -8 6 -14 14 -14 9 0 10 4 2 14 -6 7 -12 13 -14 13 -1
0 -2 -6 -2 -13z"/>
<path d="M1780 4326 c0 -2 7 -6 15 -10 8 -3 15 -1 15 4 0 6 -7 10 -15 10 -8 0
-15 -2 -15 -4z"/>
<path d="M4270 4319 c0 -5 5 -7 10 -4 6 3 10 8 10 11 0 2 -4 4 -10 4 -5 0 -10
-5 -10 -11z"/>
<path d="M4966 4318 c3 -5 10 -6 15 -3 13 9 11 12 -6 12 -8 0 -12 -4 -9 -9z"/>
<path d="M911 4311 c-7 -5 -12 -14 -10 -20 2 -6 10 -2 17 9 14 22 13 23 -7 11z"/>
<path d="M1753 4305 c0 -8 4 -15 9 -15 4 0 8 7 8 15 0 8 -4 15 -8 15 -5 0 -9
-7 -9 -15z"/>
<path d="M872 4292 c2 -11 -4 -27 -12 -37 -8 -11 -10 -16 -3 -12 6 4 14 3 18
-3 3 -5 12 -10 18 -10 7 0 4 5 -6 11 -12 7 -15 15 -9 22 12 15 12 47 0 47 -5
0 -8 -8 -6 -18z"/>
<path d="M2635 4302 c2 -3 -2 -17 -11 -33 -8 -16 -11 -29 -6 -29 4 0 13 14 19
31 7 17 17 28 22 24 6 -3 11 -2 11 4 0 5 -9 9 -20 8 -10 -1 -17 -3 -15 -5z"/>
<path d="M4220 4300 c0 -5 9 -14 20 -20 11 -6 20 -9 20 -8 0 2 -9 11 -20 21
-11 9 -20 13 -20 7z"/>
<path d="M4280 4300 c-9 -6 -10 -10 -3 -10 6 0 15 5 18 10 8 12 4 12 -15 0z"/>
<path d="M4930 4306 c0 -2 7 -7 16 -10 8 -3 12 -2 9 4 -6 10 -25 14 -25 6z"/>
<path d="M1774 4279 c-3 -6 -1 -16 5 -22 9 -9 10 -7 5 7 -6 15 -4 17 6 11 9
-5 11 -4 6 3 -9 15 -13 15 -22 1z"/>
<path d="M4912 4278 c-17 -17 -15 -33 5 -49 15 -13 15 -12 2 9 -13 21 -12 25
5 38 11 8 15 14 10 14 -6 0 -15 -5 -22 -12z"/>
<path d="M4933 4255 c0 -8 4 -12 9 -9 4 3 8 9 8 15 0 5 -4 9 -8 9 -5 0 -9 -7
-9 -15z"/>
<path d="M2637 4235 c-4 -8 -3 -16 1 -19 4 -3 9 4 9 15 2 23 -3 25 -10 4z"/>
<path d="M1738 4218 c3 -14 1 -19 -6 -14 -6 3 -14 2 -17 -4 -4 -6 -3 -10 2 -9
19 3 27 -2 15 -10 -11 -7 -11 -9 0 -13 9 -4 14 6 15 33 2 22 -1 39 -6 39 -5 0
-7 -10 -3 -22z"/>
<path d="M4230 4229 c0 -5 5 -7 10 -4 6 3 10 8 10 11 0 2 -4 4 -10 4 -5 0 -10
-5 -10 -11z"/>
<path d="M863 4213 c1 -17 4 -19 14 -11 15 12 18 22 4 14 -5 -4 -11 0 -14 6
-3 7 -4 3 -4 -9z"/>
<path d="M3474 4199 c-4 -7 -3 -9 4 -5 5 3 13 0 15 -6 4 -9 6 -10 6 -1 1 17
-16 25 -25 12z"/>
<path d="M3520 4200 c-12 -7 -10 -9 7 -7 12 0 19 5 17 9 -6 10 -6 10 -24 -2z"/>
<path d="M2586 4174 c-8 -21 -8 -21 10 -28 13 -5 14 -4 6 7 -9 10 -8 17 0 25
8 8 9 12 1 12 -6 0 -14 -7 -17 -16z"/>
<path d="M2630 4180 c14 -9 7 -14 -13 -11 -5 1 -5 -3 -2 -9 5 -8 13 -6 26 6
23 21 24 19 -3 21 -18 2 -20 0 -8 -7z"/>
<path d="M4210 4180 c0 -5 5 -10 10 -10 6 0 10 5 10 10 0 6 -4 10 -10 10 -5 0
-10 -4 -10 -10z"/>
<path d="M4900 4179 c0 -5 5 -7 10 -4 6 3 10 8 10 11 0 2 -4 4 -10 4 -5 0 -10
-5 -10 -11z"/>
<path d="M4177 4163 c-4 -6 0 -13 8 -17 8 -3 17 0 21 6 4 6 3 8 -4 4 -5 -3
-12 -1 -14 6 -3 8 -6 9 -11 1z"/>
<path d="M825 4148 c4 -11 2 -18 -4 -18 -6 0 -11 -5 -11 -12 0 -8 6 -6 17 5
14 14 15 19 4 29 -10 11 -11 10 -6 -4z"/>
<path d="M4896 4133 c-6 -14 -5 -15 5 -6 7 7 10 15 7 18 -3 3 -9 -2 -12 -12z"/>
<path d="M2576 4128 c3 -5 -2 -18 -12 -29 -16 -18 -16 -19 -1 -13 9 3 17 10
17 15 0 5 10 13 22 18 21 8 21 8 -5 13 -15 3 -24 1 -21 -4z"/>
<path d="M4190 4123 c0 -6 8 -17 18 -24 16 -13 16 -13 2 6 -8 11 -16 22 -17
24 -2 2 -3 0 -3 -6z"/>
<path d="M4850 4121 c0 -5 5 -13 10 -16 6 -3 10 -2 10 4 0 5 -4 13 -10 16 -5
3 -10 2 -10 -4z"/>
<path d="M1710 4100 c-9 -6 -10 -10 -3 -10 6 0 15 5 18 10 8 12 4 12 -15 0z"/>
<path d="M2596 4094 c-8 -20 -8 -24 2 -24 4 0 8 9 9 20 2 24 -3 26 -11 4z"/>
<path d="M4833 4097 c0 -8 6 -14 14 -14 9 0 10 4 2 14 -6 7 -12 13 -14 13 -1
0 -2 -6 -2 -13z"/>
<path d="M1670 4086 c0 -2 7 -9 15 -16 13 -11 14 -10 9 4 -5 14 -24 23 -24 12z"/>
<path d="M1720 4080 c-9 -6 -10 -10 -3 -10 6 0 15 5 18 10 8 12 4 12 -15 0z"/>
<path d="M4870 4079 c0 -5 5 -7 10 -4 6 3 10 8 10 11 0 2 -4 4 -10 4 -5 0 -10
-5 -10 -11z"/>
<path d="M830 4071 c0 -7 -5 -9 -12 -5 -7 5 -8 3 -3 -5 5 -9 10 -10 18 -2 6 6
8 14 4 18 -4 3 -7 1 -7 -6z"/>
<path d="M2543 4051 c-10 -15 -9 -20 2 -25 8 -3 17 -1 20 5 4 5 10 7 15 4 4
-3 14 3 21 13 13 15 12 16 -3 3 -10 -7 -18 -10 -18 -6 0 4 -7 2 -15 -5 -10 -8
-15 -9 -15 -2 0 6 8 16 18 21 13 8 14 10 2 11 -8 0 -21 -9 -27 -19z"/>
<path d="M3427 4064 c-3 -3 -3 -13 0 -22 4 -8 2 -13 -3 -9 -5 3 -10 -2 -10
-11 -1 -27 -8 -46 -19 -54 -5 -4 0 -6 13 -5 13 1 18 5 13 10 -10 10 4 44 24
60 6 6 6 10 -3 14 -6 2 -10 9 -6 14 6 10 1 12 -9 3z"/>
<path d="M3466 4062 c-3 -5 1 -9 9 -9 8 0 12 4 9 9 -3 4 -7 8 -9 8 -2 0 -6 -4
-9 -8z"/>
<path d="M4816 4055 c-3 -8 -1 -15 4 -15 6 0 10 7 10 15 0 8 -2 15 -4 15 -2 0
-6 -7 -10 -15z"/>
<path d="M4840 4061 c0 -6 4 -12 8 -15 5 -3 9 1 9 9 0 8 -4 15 -9 15 -4 0 -8
-4 -8 -9z"/>
<path d="M777 4036 c-7 -18 39 -51 48 -36 4 6 3 10 -2 9 -22 -4 -25 2 -7 17
18 15 18 15 -3 5 -31 -16 -41 -13 -19 4 16 12 17 15 4 15 -9 0 -18 -6 -21 -14z"/>
<path d="M4170 4031 c0 -7 -4 -10 -8 -7 -4 2 -9 -4 -9 -15 -1 -10 3 -19 9 -19
6 0 8 3 5 7 -4 3 -2 12 5 20 6 7 8 16 4 20 -3 3 -6 1 -6 -6z"/>
<path d="M4126 4013 c-6 -14 -5 -15 5 -6 7 7 10 15 7 18 -3 3 -9 -2 -12 -12z"/>
<path d="M4806 4013 c-4 -11 -1 -11 14 -3 24 13 25 17 5 17 -8 0 -16 -6 -19
-14z"/>
<path d="M1670 4011 c0 -6 4 -12 8 -15 5 -3 9 1 9 9 0 8 -4 15 -9 15 -4 0 -8
-4 -8 -9z"/>
<path d="M3469 4003 c-13 -16 -12 -17 4 -4 16 13 21 21 13 21 -2 0 -10 -8 -17
-17z"/>
<path d="M1640 3995 c-11 -13 -10 -14 5 -9 13 5 16 4 11 -4 -4 -7 -2 -12 3
-12 13 0 14 10 2 28 -6 10 -10 10 -21 -3z"/>
<path d="M3437 3995 c-4 -8 -3 -16 1 -19 4 -3 9 4 9 15 2 23 -3 25 -10 4z"/>
<path d="M765 3990 c-4 -6 1 -7 11 -3 10 4 15 2 11 -4 -3 -5 0 -10 8 -10 11 0
12 4 4 14 -14 15 -26 17 -34 3z"/>
<path d="M4828 3993 c6 -2 10 -8 8 -12 -3 -4 1 -8 9 -8 11 0 12 4 4 14 -6 7
-17 13 -23 12 -7 0 -6 -2 2 -6z"/>
<path d="M4132 3976 c7 -8 15 -12 17 -11 5 6 -10 25 -20 25 -5 0 -4 -6 3 -14z"/>
<path d="M4113 3963 c4 -3 -1 -16 -10 -27 -18 -21 -18 -21 5 -2 24 21 29 36
10 36 -6 0 -8 -3 -5 -7z"/>
<path d="M4803 3964 c13 -4 15 -9 8 -18 -8 -9 -7 -13 3 -13 21 0 12 32 -10 34
-17 2 -17 1 -1 -3z"/>
<path d="M1625 3951 c-3 -5 -1 -12 5 -16 5 -3 10 -3 10 1 0 4 7 -1 15 -12 14
-18 14 -17 4 9 -13 28 -24 34 -34 18z"/>
<path d="M1670 3951 c0 -6 4 -13 10 -16 6 -3 7 1 4 9 -7 18 -14 21 -14 7z"/>
<path d="M2500 3940 c0 -6 7 -10 15 -10 8 0 15 2 15 4 0 2 -7 6 -15 10 -8 3
-15 1 -15 -4z"/>
<path d="M3410 3940 c0 -5 5 -10 10 -10 6 0 10 5 10 10 0 6 -4 10 -10 10 -5 0
-10 -4 -10 -10z"/>
<path d="M4776 3933 c-6 -14 -5 -15 5 -6 7 7 10 15 7 18 -3 3 -9 -2 -12 -12z"/>
<path d="M2535 3920 c-3 -6 1 -7 9 -4 18 7 21 14 7 14 -6 0 -13 -4 -16 -10z"/>
<path d="M4114 3915 c-3 -8 -4 -20 -1 -27 3 -7 6 -3 6 10 1 15 5 21 13 16 7
-4 8 -3 4 4 -10 16 -15 15 -22 -3z"/>
<path d="M2502 3909 c10 -5 15 -17 12 -27 -5 -14 -4 -14 4 -2 12 16 -2 40 -22
40 -6 0 -3 -5 6 -11z"/>
<path d="M4779 3903 c-13 -16 -12 -17 4 -4 16 13 21 21 13 21 -2 0 -10 -8 -17
-17z"/>
<path d="M2485 3890 c-3 -5 -3 -15 1 -21 3 -6 0 -15 -7 -20 -10 -6 -8 -8 8 -6
17 1 20 4 12 19 -6 10 -7 23 -4 28 3 6 4 10 1 10 -3 0 -8 -4 -11 -10z"/>
<path d="M4797 3893 c-10 -9 -9 -23 1 -23 5 0 9 7 9 15 0 17 -1 18 -10 8z"/>
<path d="M1635 3869 c-4 -6 -5 -12 -2 -15 2 -3 7 2 10 11 7 17 1 20 -8 4z"/>
<path d="M4080 3876 c0 -3 9 -10 19 -16 15 -7 22 -7 27 2 4 7 4 10 -1 6 -4 -4
-16 -3 -26 3 -11 5 -19 7 -19 5z"/>
<path d="M736 3855 c4 -8 8 -15 10 -15 2 0 4 7 4 15 0 8 -4 15 -10 15 -5 0 -7
-7 -4 -15z"/>
<path d="M3380 3866 c0 -2 7 -7 16 -10 8 -3 12 -2 9 4 -6 10 -25 14 -25 6z"/>
<path d="M4062 3830 c-7 -11 -8 -20 -3 -20 5 0 11 7 15 15 3 8 11 15 17 15 8
0 9 -4 0 -13 -8 -10 -7 -14 3 -14 18 0 13 31 -5 35 -8 1 -20 -7 -27 -18z"/>
<path d="M4800 3835 c-11 -13 -11 -18 0 -28 10 -9 11 -9 6 1 -4 7 -2 19 4 27
7 8 10 15 7 15 -2 0 -10 -7 -17 -15z"/>
<path d="M3344 3831 c4 -6 16 -16 28 -22 15 -8 18 -8 14 0 -4 6 -16 16 -28 22
-15 8 -18 8 -14 0z"/>
<path d="M1579 3822 c-1 -4 -1 -11 0 -16 1 -4 -3 -13 -8 -20 -7 -8 -2 -12 17
-13 15 0 19 1 10 4 -10 2 -15 10 -11 19 4 11 8 12 19 3 12 -9 13 -9 8 4 -6 16
-33 31 -35 19z"/>
<path d="M2476 3815 c-11 -8 -18 -17 -15 -19 2 -2 15 4 28 15 27 22 15 26 -13
4z"/>
<path d="M4739 3823 c-1 -4 -1 -12 0 -17 1 -4 -4 -14 -10 -22 -6 -8 -7 -14 -2
-14 15 0 34 48 23 55 -6 4 -11 3 -11 -2z"/>
<path d="M2495 3800 c-3 -6 1 -7 9 -4 18 7 21 14 7 14 -6 0 -13 -4 -16 -10z"/>
<path d="M4057 3793 c-12 -11 -8 -22 11 -32 14 -7 19 -6 19 4 0 7 -6 11 -14 8
-7 -3 -13 -1 -13 5 0 6 6 13 13 15 6 3 7 6 1 6 -6 1 -14 -2 -17 -6z"/>
<path d="M4758 3788 c-7 -17 15 -19 29 -3 4 4 3 5 -4 2 -6 -4 -13 -2 -15 5 -3
8 -6 6 -10 -4z"/>
<path d="M710 3780 c0 -5 5 -10 11 -10 5 0 7 5 4 10 -3 6 -8 10 -11 10 -2 0
-4 -4 -4 -10z"/>
<path d="M2515 3780 c-3 -5 -1 -10 4 -10 6 0 11 5 11 10 0 6 -2 10 -4 10 -3 0
-8 -4 -11 -10z"/>
<path d="M2460 3776 c0 -2 7 -7 16 -10 8 -3 12 -2 9 4 -6 10 -25 14 -25 6z"/>
<path d="M685 3760 c3 -5 11 -10 16 -10 6 0 7 5 4 10 -3 6 -11 10 -16 10 -6 0
-7 -4 -4 -10z"/>
<path d="M4030 3760 c0 -5 5 -10 11 -10 8 0 7 -5 -1 -15 -7 -9 -11 -17 -8 -20
2 -2 11 4 20 14 14 16 14 19 -3 30 -12 7 -19 7 -19 1z"/>
<path d="M2439 3743 c-13 -17 -13 -17 6 -3 11 8 22 16 24 17 2 2 0 3 -6 3 -6
0 -17 -8 -24 -17z"/>
<path d="M4715 3750 c-3 -4 3 -14 13 -23 13 -12 21 -13 32 -6 13 9 12 10 -2 6
-21 -7 -31 3 -18 18 7 8 5 12 -6 12 -8 0 -17 -3 -19 -7z"/>
<path d="M1595 3739 c-4 -6 -5 -12 -2 -15 2 -3 7 2 10 11 7 17 1 20 -8 4z"/>
<path d="M2479 3748 c-6 -21 -5 -37 2 -32 5 3 7 9 4 14 -3 4 1 11 7 13 10 4
10 6 1 6 -7 1 -13 0 -14 -1z"/>
<path d="M3318 3721 c-15 -28 -15 -31 0 -42 14 -11 15 -11 5 1 -10 10 -8 19 8
42 11 15 17 28 12 28 -4 0 -16 -13 -25 -29z"/>
<path d="M3356 3733 c-6 -14 -5 -15 5 -6 7 7 10 15 7 18 -3 3 -9 -2 -12 -12z"/>
<path d="M656 3722 c-3 -5 2 -13 12 -17 27 -13 43 -14 36 -4 -3 5 -9 7 -14 4
-5 -3 -13 2 -18 11 -6 10 -12 12 -16 6z"/>
<path d="M4080 3715 c-7 -8 -16 -12 -21 -9 -5 3 -9 0 -9 -5 0 -17 15 -13 35 9
10 11 16 20 13 20 -3 0 -11 -7 -18 -15z"/>
<path d="M1544 3704 c-18 -14 -18 -14 6 -3 31 14 36 19 24 19 -6 0 -19 -7 -30
-16z"/>
<path d="M3336 3701 c-4 -5 3 -7 14 -4 23 6 26 13 6 13 -8 0 -17 -4 -20 -9z"/>
<path d="M650 3675 c-11 -13 -10 -14 4 -9 9 3 16 10 16 15 0 13 -6 11 -20 -6z"/>
<path d="M1530 3665 c-13 -14 -20 -25 -16 -25 5 0 2 -8 -5 -17 -13 -16 -12
-17 3 -5 13 10 17 10 21 0 4 -9 6 -9 6 -1 1 6 -3 15 -9 18 -11 7 16 39 40 48
13 5 13 6 -1 6 -8 1 -26 -10 -39 -24z"/>
<path d="M2434 3674 c-18 -14 -18 -15 4 -4 12 6 22 13 22 15 0 8 -5 6 -26 -11z"/>
<path d="M690 3659 c0 -5 5 -7 10 -4 6 3 10 8 10 11 0 2 -4 4 -10 4 -5 0 -10
-5 -10 -11z"/>
<path d="M1553 3625 c0 -30 6 -28 12 4 2 11 0 21 -4 21 -5 0 -8 -11 -8 -25z"/>
<path d="M2430 3630 c-8 -5 -12 -12 -9 -15 4 -3 12 1 19 10 14 17 11 19 -10 5z"/>
<path d="M3322 3618 c-15 -15 -15 -28 -1 -28 5 0 8 4 4 9 -3 6 3 14 12 20 10
6 13 11 8 11 -6 0 -16 -5 -23 -12z"/>
<path d="M4673 3613 c0 -7 3 -11 5 -8 3 3 11 -3 19 -13 12 -15 13 -14 2 7 -10
21 -9 23 5 18 8 -3 18 -3 20 2 3 4 -8 7 -23 7 -16 0 -28 -5 -28 -13z"/>
<path d="M1496 3584 c-9 -8 -16 -17 -16 -18 0 -6 40 1 47 9 5 4 2 5 -4 1 -7
-4 -13 -3 -13 3 0 5 8 12 18 14 15 4 15 5 0 6 -9 0 -24 -6 -32 -15z"/>
<path d="M3975 3580 c3 -5 14 -10 23 -10 15 0 15 2 2 10 -20 13 -33 13 -25 0z"/>
<path d="M4668 3583 c6 -2 12 -9 12 -14 0 -4 -6 -6 -14 -3 -8 3 -17 1 -21 -5
-4 -7 1 -8 12 -4 16 6 17 5 3 -13 -8 -10 -19 -22 -25 -26 -6 -5 -6 -8 1 -8 7
0 19 11 28 25 9 14 21 23 26 20 5 -3 12 0 16 6 4 7 3 9 -3 6 -6 -4 -13 0 -17
8 -3 8 -11 15 -18 14 -10 0 -10 -2 0 -6z"/>
<path d="M3260 3571 c0 -6 4 -13 10 -16 6 -3 7 1 4 9 -7 18 -14 21 -14 7z"/>
<path d="M2382 3563 c-10 -4 -10 -8 -1 -19 14 -17 29 -18 29 -3 0 5 -5 7 -12
3 -8 -5 -9 -2 -5 9 3 10 5 17 4 16 -1 0 -8 -3 -15 -6z"/>
<path d="M3310 3560 c0 -5 5 -10 11 -10 5 0 7 5 4 10 -3 6 -8 10 -11 10 -2 0
-4 -4 -4 -10z"/>
<path d="M1480 3539 c-12 -8 -10 -9 9 -4 17 5 22 4 16 -5 -5 -9 -4 -11 3 -6 7
4 12 2 12 -5 0 -7 3 -9 6 -6 7 7 -14 37 -25 37 -3 0 -13 -5 -21 -11z"/>
<path d="M3291 3534 c0 -11 3 -14 6 -6 3 7 2 16 -1 19 -3 4 -6 -2 -5 -13z"/>
<path d="M4678 3523 c7 -3 16 -2 19 1 4 3 -2 6 -13 5 -11 0 -14 -3 -6 -6z"/>
<path d="M1481 3514 c-1 -5 6 -19 14 -30 15 -18 15 -18 8 0 -5 14 -3 17 7 11
9 -5 11 -4 6 4 -4 6 -11 9 -16 6 -4 -3 -11 1 -13 7 -3 7 -6 8 -6 2z"/>
<path d="M3980 3500 c-9 -6 -10 -10 -3 -10 6 0 15 5 18 10 8 12 4 12 -15 0z"/>
<path d="M1464 3481 c0 -11 4 -17 8 -15 4 3 8 -2 8 -10 0 -20 17 -29 26 -15 4
8 3 9 -4 5 -7 -4 -12 -1 -12 6 0 8 -6 22 -13 32 -12 16 -13 16 -13 -3z"/>
<path d="M4636 3454 c-8 -20 -8 -24 2 -24 4 0 8 9 9 20 2 24 -3 26 -11 4z"/>
<path d="M1445 3440 c-3 -5 -2 -10 4 -10 5 0 13 5 16 10 3 6 2 10 -4 10 -5 0
-13 -4 -16 -10z"/>
<path d="M3256 3442 c-3 -5 1 -9 9 -9 8 0 12 4 9 9 -3 4 -7 8 -9 8 -2 0 -6 -4
-9 -8z"/>
<path d="M4665 3440 c-3 -6 1 -7 9 -4 18 7 21 14 7 14 -6 0 -13 -4 -16 -10z"/>
<path d="M3210 3436 c0 -2 7 -7 16 -10 8 -3 12 -2 9 4 -6 10 -25 14 -25 6z"/>
<path d="M3974 3426 c1 -8 5 -18 8 -22 4 -3 5 1 4 10 -1 8 -5 18 -8 22 -4 3
-5 -1 -4 -10z"/>
<path d="M2330 3415 c-14 -8 -20 -14 -14 -15 5 0 19 7 30 15 24 18 16 19 -16
0z"/>
<path d="M1431 3402 c-5 -10 -6 -24 -1 -32 4 -7 6 -19 3 -26 -2 -6 1 -15 8
-20 8 -4 10 -3 5 5 -4 6 -2 19 6 28 8 11 9 14 1 10 -9 -6 -11 1 -8 23 4 34 0
38 -14 12z"/>
<path d="M3208 3408 c-3 -7 -1 -22 4 -33 8 -18 8 -18 4 3 -4 19 -1 22 17 16
12 -3 20 -5 17 -2 -33 26 -38 28 -42 16z"/>
<path d="M1460 3405 c0 -7 30 -13 34 -7 3 4 -4 9 -15 9 -10 1 -19 0 -19 -2z"/>
<path d="M2354 3395 c-4 -8 -10 -12 -15 -9 -5 3 -6 -2 -2 -12 5 -15 7 -14 16
2 6 11 15 22 21 26 7 5 7 8 -2 8 -7 0 -15 -7 -18 -15z"/>
<path d="M3906 3392 c-3 -5 1 -9 9 -9 8 0 12 4 9 9 -3 4 -7 8 -9 8 -2 0 -6 -4
-9 -8z"/>
<path d="M2305 3381 c-6 -11 13 -26 22 -17 4 3 1 6 -6 6 -7 0 -9 5 -6 10 3 6
4 10 1 10 -3 0 -7 -4 -11 -9z"/>
<path d="M3267 3379 c7 -7 15 -10 18 -7 3 3 -2 9 -12 12 -14 6 -15 5 -6 -5z"/>
<path d="M3940 3379 c0 -5 5 -7 10 -4 6 3 10 8 10 11 0 2 -4 4 -10 4 -5 0 -10
-5 -10 -11z"/>
<path d="M3901 3361 c-9 -6 -10 -11 -2 -15 6 -4 11 -2 11 4 0 6 5 8 10 5 6 -3
10 -1 10 4 0 13 -10 14 -29 2z"/>
<path d="M1435 3300 c-16 -7 -17 -9 -3 -9 9 -1 20 4 23 9 7 11 7 11 -20 0z"/>
<path d="M3196 3287 c3 -10 9 -15 12 -12 3 3 0 11 -7 18 -10 9 -11 8 -5 -6z"/>
<path d="M1399 3276 c9 -11 6 -18 -15 -33 -26 -19 -26 -44 -1 -42 9 0 9 2 0 6
-7 2 -13 9 -13 15 0 6 6 8 13 5 8 -3 20 -1 28 4 12 7 12 9 0 9 -11 0 -12 3 -4
11 13 13 6 39 -9 39 -6 0 -6 -5 1 -14z"/>
<path d="M3915 3280 c-3 -6 1 -7 9 -4 18 7 21 14 7 14 -6 0 -13 -4 -16 -10z"/>
<path d="M2265 3269 c-4 -6 -5 -13 -2 -16 7 -7 27 6 27 18 0 12 -17 12 -25 -2z"/>
<path d="M3165 3259 c-19 -19 -19 -20 -1 -13 15 6 17 4 11 -7 -4 -8 -4 -11 0
-6 8 7 19 48 12 46 -1 0 -11 -9 -22 -20z"/>
<path d="M1433 3255 c0 -8 4 -12 9 -9 4 3 8 9 8 15 0 5 -4 9 -8 9 -5 0 -9 -7
-9 -15z"/>
<path d="M4560 3259 c0 -4 6 -9 13 -12 8 -3 14 0 14 7 0 7 -6 13 -14 13 -7 0
-13 -4 -13 -8z"/>
<path d="M3870 3256 c0 -2 7 -7 16 -10 8 -3 12 -2 9 4 -6 10 -25 14 -25 6z"/>
<path d="M2295 3240 c3 -5 8 -10 11 -10 2 0 4 5 4 10 0 6 -5 10 -11 10 -5 0
-7 -4 -4 -10z"/>
<path d="M2270 3225 c14 -8 30 -14 35 -14 6 0 -1 6 -15 14 -14 8 -29 14 -35
14 -5 0 1 -6 15 -14z"/>
<path d="M3866 3223 c-4 -9 -3 -20 1 -24 4 -4 9 3 9 17 2 28 -1 31 -10 7z"/>
<path d="M3891 3214 c0 -11 3 -14 6 -6 3 7 2 16 -1 19 -3 4 -6 -2 -5 -13z"/>
<path d="M1397 3196 c-17 -13 -17 -14 0 -20 10 -4 14 -4 10 0 -4 4 -2 13 4 21
14 17 9 16 -14 -1z"/>
<path d="M2265 3180 c3 -5 11 -10 16 -10 6 0 7 5 4 10 -3 6 -11 10 -16 10 -6
0 -7 -4 -4 -10z"/>
<path d="M3130 3180 c0 -6 4 -9 9 -6 5 4 12 1 14 -4 3 -6 4 -5 3 2 -3 15 -26
23 -26 8z"/>
<path d="M4513 3176 c3 -7 1 -18 -5 -24 -6 -6 -6 -12 3 -17 7 -5 10 -4 5 3 -3
6 3 17 14 25 18 13 19 15 5 21 -24 9 -28 8 -22 -8z"/>
<path d="M3876 3153 c-6 -14 -5 -15 5 -6 7 7 10 15 7 18 -3 3 -9 -2 -12 -12z"/>
<path d="M3127 3144 c3 -7 -1 -14 -8 -14 -7 0 -10 -2 -7 -5 7 -7 38 5 38 15 0
4 -7 10 -14 13 -10 4 -13 1 -9 -9z"/>
<path d="M4553 3145 c0 -8 4 -12 9 -9 5 3 6 10 3 15 -9 13 -12 11 -12 -6z"/>
<path d="M4531 3134 c0 -11 3 -14 6 -6 3 7 2 16 -1 19 -3 4 -6 -2 -5 -13z"/>
<path d="M1340 3120 c0 -5 5 -10 11 -10 5 0 7 5 4 10 -3 6 -8 10 -11 10 -2 0
-4 -4 -4 -10z"/>
<path d="M2220 3120 c0 -5 5 -10 11 -10 5 0 8 -4 5 -8 -3 -5 1 -9 9 -9 13 0
12 4 -2 19 -18 21 -23 22 -23 8z"/>
<path d="M2255 3120 c3 -5 8 -10 11 -10 2 0 4 5 4 10 0 6 -5 10 -11 10 -5 0
-7 -4 -4 -10z"/>
<path d="M3854 3118 c-4 -7 -4 -10 1 -6 4 4 15 2 24 -5 14 -11 14 -10 2 6 -16
20 -18 21 -27 5z"/>
<path d="M3135 3109 c-4 -6 -5 -12 -2 -15 2 -3 7 2 10 11 7 17 1 20 -8 4z"/>
<path d="M4485 3111 c-3 -5 0 -13 6 -17 8 -4 9 -3 5 4 -4 7 -2 12 3 12 6 0 11
-6 11 -14 0 -8 4 -18 10 -21 6 -4 7 1 3 11 -5 13 -3 15 8 10 8 -4 5 0 -5 8
-23 18 -32 20 -41 7z"/>
<path d="M3156 3093 c-6 -14 -5 -15 5 -6 7 7 10 15 7 18 -3 3 -9 -2 -12 -12z"/>
<path d="M3806 3095 c-3 -10 -2 -13 5 -10 5 4 16 2 23 -4 9 -8 13 -7 13 4 0 8
-3 13 -5 10 -3 -3 -11 0 -17 5 -9 8 -14 6 -19 -5z"/>
<path d="M2210 3080 c0 -6 -6 -8 -12 -4 -7 4 -10 4 -6 -1 4 -4 2 -15 -5 -23
-9 -13 -9 -14 1 -8 8 5 11 1 9 -14 -2 -12 -9 -25 -16 -30 -9 -5 -3 -7 14 -7
16 0 22 3 15 7 -9 5 -9 9 -1 14 8 5 8 13 1 26 -8 14 -6 21 6 28 11 6 13 11 5
16 -6 4 -11 2 -11 -4z"/>
<path d="M1320 3070 c12 -8 12 -10 1 -10 -8 0 -12 -2 -9 -5 3 -3 13 -2 22 1
14 5 15 9 4 15 -7 5 -17 9 -23 9 -5 0 -3 -5 5 -10z"/>
<path d="M3090 3065 c0 -2 15 -12 33 -20 l32 -16 -25 20 c-24 20 -40 26 -40
16z"/>
<path d="M3811 3067 c2 -1 13 -9 24 -17 19 -14 19 -14 6 3 -7 9 -18 17 -24 17
-6 0 -8 -1 -6 -3z"/>
<path d="M2220 3056 c0 -2 7 -7 16 -10 8 -3 12 -2 9 4 -6 10 -25 14 -25 6z"/>
<path d="M1333 3033 c-3 -8 -3 -17 1 -20 3 -4 6 1 6 11 0 9 4 15 9 11 5 -3 12
-2 15 3 3 5 -2 9 -10 9 -9 0 -18 -7 -21 -14z"/>
<path d="M3085 3040 c3 -6 1 -10 -5 -10 -7 0 -9 -8 -5 -21 6 -16 4 -20 -6 -14
-8 5 -11 5 -7 0 4 -4 2 -15 -5 -23 -8 -11 -8 -14 0 -9 6 4 14 3 18 -3 3 -5 12
-10 18 -10 7 0 4 5 -5 11 -17 9 -17 12 -2 34 9 14 12 25 8 25 -5 0 -3 4 4 9
11 7 10 9 -3 14 -9 4 -13 3 -10 -3z"/>
<path d="M3115 3021 c-3 -5 -2 -12 3 -15 5 -3 9 1 9 9 0 17 -3 19 -12 6z"/>
<path d="M3783 3016 c-9 -11 -7 -14 12 -12 17 1 21 4 13 14 -12 14 -10 14 -25
-2z"/>
<path d="M3835 3009 c-4 -6 -5 -12 -2 -15 2 -3 7 2 10 11 7 17 1 20 -8 4z"/>
<path d="M4480 3000 c-8 -5 -12 -12 -9 -15 4 -3 12 1 19 10 14 17 11 19 -10 5z"/>
<path d="M1279 2986 c0 -1 -2 -9 -4 -18 -3 -16 -1 -16 19 -3 13 8 26 13 29 10
4 -3 5 -2 2 2 -4 5 -42 13 -46 9z"/>
<path d="M3095 2980 c-3 -6 1 -7 9 -4 18 7 21 14 7 14 -6 0 -13 -4 -16 -10z"/>
<path d="M2180 2976 c0 -2 7 -7 16 -10 8 -3 12 -2 9 4 -6 10 -25 14 -25 6z"/>
<path d="M1310 2951 c0 -7 -5 -9 -12 -5 -7 5 -8 3 -3 -5 5 -9 10 -10 18 -2 6
6 8 14 4 18 -4 3 -7 1 -7 -6z"/>
<path d="M2157 2949 c-9 -6 -15 -15 -11 -20 3 -5 1 -16 -5 -23 -9 -10 -8 -15
3 -19 11 -4 13 -1 9 10 -4 11 -2 14 8 11 8 -3 13 -12 11 -19 -2 -8 0 -10 4 -6
4 4 9 15 10 23 1 9 0 13 -3 11 -3 -3 -11 0 -18 6 -10 10 -9 14 9 24 11 7 17
12 11 12 -5 0 -18 -4 -28 -10z"/>
<path d="M3050 2940 c0 -5 5 -10 10 -10 6 0 10 5 10 10 0 6 -4 10 -10 10 -5 0
-10 -4 -10 -10z"/>
<path d="M3770 2946 c0 -2 7 -7 16 -10 8 -3 12 -2 9 4 -6 10 -25 14 -25 6z"/>
<path d="M3762 2924 c10 -10 20 -15 24 -12 3 4 -5 12 -18 18 -22 12 -22 12 -6
-6z"/>
<path d="M3070 2879 c0 -5 5 -7 10 -4 6 3 10 8 10 11 0 2 -4 4 -10 4 -5 0 -10
-5 -10 -11z"/>
<path d="M4420 2884 c0 -1 8 -8 17 -15 9 -8 14 -9 10 -2 -4 6 -1 13 5 16 7 3
3 4 -9 4 -13 -1 -23 -2 -23 -3z"/>
<path d="M3752 2859 c-18 -12 -30 -24 -27 -27 2 -3 13 2 23 11 10 10 21 15 24
12 3 -3 8 1 11 10 8 19 9 19 -31 -6z"/>
<path d="M3020 2860 c0 -5 9 -14 20 -20 11 -6 20 -9 20 -8 0 2 -9 11 -20 21
-11 9 -20 13 -20 7z"/>
<path d="M3073 2845 c0 -8 4 -12 9 -9 5 3 6 10 3 15 -9 13 -12 11 -12 -6z"/>
<path d="M4450 2839 c0 -5 5 -7 10 -4 6 3 10 8 10 11 0 2 -4 4 -10 4 -5 0 -10
-5 -10 -11z"/>
<path d="M3746 2825 c-11 -8 -15 -15 -9 -15 6 0 16 7 23 15 16 19 11 19 -14 0z"/>
<path d="M2116 2811 c4 -15 2 -21 -4 -17 -6 3 -14 1 -18 -6 -4 -7 -4 -10 1 -6
4 4 14 3 22 -4 10 -8 17 -8 26 1 9 10 8 11 -7 5 -16 -6 -17 -5 -6 16 7 12 7
20 2 16 -6 -3 -13 0 -16 6 -3 7 -3 2 0 -11z"/>
<path d="M3709 2818 c-6 -21 -5 -37 2 -32 5 3 9 -2 9 -10 0 -8 4 -17 9 -20 4
-3 6 6 3 19 -2 14 -9 25 -14 25 -5 0 -6 5 -3 10 3 6 4 10 1 10 -3 0 -6 -1 -7
-2z"/>
<path d="M1255 2799 c-4 -6 -5 -12 -2 -15 2 -3 7 2 10 11 7 17 1 20 -8 4z"/>
<path d="M4405 2794 c-10 -8 -14 -14 -8 -14 7 0 14 4 18 10 3 5 12 7 20 3 8
-3 15 -3 15 0 0 13 -28 13 -45 1z"/>
<path d="M1205 2760 c3 -6 1 -10 -5 -10 -7 0 -9 -8 -5 -21 5 -16 4 -19 -5 -14
-9 5 -11 4 -6 -3 4 -7 16 -17 27 -23 19 -9 19 -9 10 10 -12 22 -11 42 2 52 5
3 1 9 -8 12 -9 4 -13 3 -10 -3z"/>
<path d="M2100 2760 c0 -5 5 -10 11 -10 5 0 7 5 4 10 -3 6 -8 10 -11 10 -2 0
-4 -4 -4 -10z"/>
<path d="M3696 2761 c-3 -5 1 -11 9 -14 9 -4 12 -1 8 9 -6 16 -10 17 -17 5z"/>
<path d="M2079 2738 c-1 -7 0 -21 0 -31 1 -9 -5 -20 -13 -23 -9 -3 -13 -10
-10 -15 2 -5 -1 -19 -7 -31 -11 -21 -11 -22 4 -9 10 7 17 22 17 32 0 10 4 20
9 24 5 3 9 19 9 35 -1 30 -7 41 -9 18z"/>
<path d="M3016 2741 c-4 -5 3 -7 14 -4 23 6 26 13 6 13 -8 0 -17 -4 -20 -9z"/>
<path d="M2100 2726 c0 -2 7 -6 15 -10 8 -3 15 -1 15 4 0 6 -7 10 -15 10 -8 0
-15 -2 -15 -4z"/>
<path d="M2967 2697 c-6 -15 27 -17 40 -2 5 4 2 5 -4 1 -7 -4 -13 -2 -13 3 0
15 -17 14 -23 -2z"/>
<path d="M3675 2692 c0 -9 4 -23 9 -30 9 -14 26 -16 26 -2 0 6 -6 9 -12 8 -8
-2 -12 6 -10 20 2 12 -1 22 -6 22 -5 0 -8 -8 -7 -18z"/>
<path d="M3700 2706 c0 -2 7 -7 16 -10 8 -3 12 -2 9 4 -6 10 -25 14 -25 6z"/>
<path d="M4345 2701 c-8 -13 10 -22 29 -15 18 7 22 24 6 24 -5 0 -10 -4 -10
-10 0 -5 -5 -10 -11 -10 -5 0 -7 5 -4 10 3 6 4 10 1 10 -3 0 -7 -4 -11 -9z"/>
<path d="M1180 2680 c0 -5 5 -10 11 -10 5 0 7 -5 3 -12 -4 -7 -3 -8 5 -4 9 6
9 11 0 22 -14 17 -19 18 -19 4z"/>
<path d="M2093 2674 c-3 -7 -3 -19 0 -26 3 -7 6 -3 6 10 1 13 5 21 10 17 5 -3
12 -2 15 3 3 5 -2 9 -10 9 -9 0 -18 -6 -21 -13z"/>
<path d="M2960 2660 c-13 -8 -13 -10 2 -10 9 0 20 5 23 10 8 13 -5 13 -25 0z"/>
<path d="M4349 2648 c-6 -12 -3 -56 3 -51 5 2 6 14 2 25 -4 14 -2 18 5 14 6
-4 11 -2 11 3 0 9 -17 16 -21 9z"/>
<path d="M1197 2615 c-8 -8 -18 -11 -22 -7 -5 4 -5 1 -1 -6 6 -11 12 -10 27 4
10 9 19 19 19 21 0 7 -9 2 -23 -12z"/>
<path d="M2986 2622 c-3 -5 1 -9 9 -9 8 0 15 4 15 9 0 4 -4 8 -9 8 -6 0 -12
-4 -15 -8z"/>
<path d="M1135 2580 c-4 -6 1 -7 12 -4 16 5 15 3 -2 -11 -11 -9 -19 -21 -17
-26 1 -5 -2 -9 -8 -9 -5 0 -10 -5 -10 -11 0 -8 5 -7 15 1 9 7 18 10 21 7 3 -3
-6 -13 -21 -23 -14 -9 -24 -22 -22 -28 3 -7 -1 -20 -9 -30 -7 -11 -11 -23 -7
-29 3 -5 -1 -13 -8 -18 -8 -5 -9 -9 -3 -9 7 0 19 12 29 26 9 15 12 23 5 19 -8
-5 -11 -3 -8 6 3 8 12 14 21 14 9 0 16 4 16 9 0 5 5 13 13 18 10 8 10 9 -2 5
-8 -2 -14 -10 -12 -16 3 -14 -15 -15 -23 -1 -9 15 36 49 59 44 10 -2 15 0 12
4 -4 4 -12 7 -17 7 -8 0 -11 8 -8 18 9 29 7 47 -5 47 -8 0 -18 -4 -21 -10z
m20 -30 c-3 -5 -12 -10 -18 -10 -7 0 -6 4 3 10 19 12 23 12 15 0z"/>
<path d="M4335 2560 c-3 -6 1 -7 9 -4 18 7 21 14 7 14 -6 0 -13 -4 -16 -10z"/>
<path d="M2945 2540 c-3 -6 1 -7 9 -4 18 7 21 14 7 14 -6 0 -13 -4 -16 -10z"/>
<path d="M3614 2526 c4 -28 36 -51 36 -25 0 5 -4 8 -9 4 -5 -3 -12 -1 -15 4
-4 5 4 11 16 13 22 3 22 4 -3 9 -17 4 -26 2 -25 -5z"/>
<path d="M2941 2504 c0 -11 3 -14 6 -6 3 7 2 16 -1 19 -3 4 -6 -2 -5 -13z"/>
<path d="M2020 2499 c0 -5 5 -7 10 -4 6 3 10 8 10 11 0 2 -4 4 -10 4 -5 0 -10
-5 -10 -11z"/>
<path d="M3602 2496 c4 -5 3 -15 -3 -22 -7 -8 -7 -14 1 -19 6 -4 10 -3 9 2 -3
20 2 27 11 13 5 -8 10 -10 10 -4 0 6 -8 18 -17 25 -10 7 -15 9 -11 5z"/>
<path d="M2040 2480 c-9 -6 -10 -10 -3 -10 6 0 15 5 18 10 8 12 4 12 -15 0z"/>
<path d="M2000 2440 c-9 -6 -10 -10 -3 -10 6 0 15 5 18 10 8 12 4 12 -15 0z"/>
<path d="M3615 2439 c-4 -6 -4 -13 -1 -16 3 -4 6 -1 6 6 0 7 5 9 12 5 7 -4 8
-3 4 4 -9 15 -13 15 -21 1z"/>
<path d="M2919 2413 c-12 -16 -12 -17 2 -6 9 7 20 9 24 5 5 -4 5 -1 1 6 -9 16
-11 15 -27 -5z"/>
<path d="M1119 2413 c-1 -5 -1 -11 0 -15 0 -5 -3 -8 -9 -8 -5 0 -10 -5 -10
-12 0 -9 3 -9 12 0 11 11 20 42 12 42 -2 0 -5 -3 -5 -7z"/>
<path d="M3587 2396 c-4 -10 -1 -13 9 -9 7 3 14 9 14 14 0 14 -17 10 -23 -5z"/>
<path d="M4270 2380 c-8 -5 -10 -10 -5 -10 6 0 17 5 25 10 8 5 11 10 5 10 -5
0 -17 -5 -25 -10z"/>
<path d="M3560 2376 c0 -2 7 -9 15 -16 9 -7 15 -8 15 -2 0 5 -7 12 -15 16 -8
3 -15 4 -15 2z"/>
<path d="M2857 2364 c-4 -4 2 -14 14 -22 11 -8 23 -11 26 -8 4 3 1 6 -6 6 -7
0 -9 5 -5 12 4 6 3 8 -4 4 -5 -3 -12 -1 -14 5 -2 5 -7 7 -11 3z"/>
<path d="M3590 2329 c0 -5 -5 -7 -12 -3 -7 4 -8 3 -4 -4 4 -6 13 -9 21 -6 8 4
12 10 9 15 -7 12 -14 11 -14 -2z"/>
<path d="M2840 2320 c-13 -8 -13 -10 2 -10 9 0 20 5 23 10 8 13 -5 13 -25 0z"/>
<path d="M1043 2305 c0 -7 6 -11 14 -8 7 3 13 6 13 8 0 2 -6 5 -13 8 -8 3 -14
-1 -14 -8z"/>
<path d="M1971 2304 c0 -11 3 -14 6 -6 3 7 2 16 -1 19 -3 4 -6 -2 -5 -13z"/>
<path d="M1951 2294 c0 -11 3 -14 6 -6 3 7 2 16 -1 19 -3 4 -6 -2 -5 -13z"/>
<path d="M2829 2283 c-8 -9 -9 -14 -2 -10 6 4 13 1 16 -5 3 -7 4 -3 4 10 -1
26 -1 26 -18 5z"/>
<path d="M1068 2283 c6 -2 18 -2 25 0 6 3 1 5 -13 5 -14 0 -19 -2 -12 -5z"/>
<path d="M2868 2283 c7 -3 16 -2 19 1 4 3 -2 6 -13 5 -11 0 -14 -3 -6 -6z"/>
<path d="M1915 2245 c-23 -26 -29 -45 -15 -45 6 0 10 7 10 16 0 9 5 12 12 8 7
-4 8 -3 4 5 -4 6 0 14 8 17 9 3 16 10 16 15 0 15 -14 8 -35 -16z"/>
<path d="M4246 2262 c-3 -5 1 -9 9 -9 8 0 12 4 9 9 -3 4 -7 8 -9 8 -2 0 -6 -4
-9 -8z"/>
<path d="M2821 2228 c-7 -13 -10 -20 -6 -16 5 4 14 0 22 -10 13 -15 13 -15 3
6 -7 15 -7 22 0 22 5 0 10 5 10 10 0 17 -15 11 -29 -12z"/>
<path d="M4233 2225 c0 -8 4 -15 9 -15 4 0 8 4 8 9 0 6 -4 12 -8 15 -5 3 -9
-1 -9 -9z"/>
<path d="M2807 2180 c10 -11 22 -20 28 -20 5 0 3 5 -5 10 -8 5 -10 10 -5 10 6
0 3 5 -5 10 -25 16 -31 11 -13 -10z"/>
<path d="M1888 2183 c6 -3 12 -9 12 -14 0 -4 -6 -7 -12 -5 -7 1 -10 1 -6 -1 4
-2 5 -10 2 -17 -3 -8 2 -16 12 -20 13 -5 14 -3 6 6 -11 14 9 53 21 41 4 -3 7
-2 7 4 0 6 -12 10 -27 10 -16 0 -22 -2 -15 -4z"/>
<path d="M3482 2144 c-11 -23 -10 -24 8 -14 21 11 26 25 11 34 -4 3 -13 -6
-19 -20z"/>
<path d="M4216 2147 c3 -10 9 -15 12 -12 3 3 0 11 -7 18 -10 9 -11 8 -5 -6z"/>
<path d="M2819 2133 c-13 -16 -12 -17 4 -4 16 13 21 21 13 21 -2 0 -10 -8 -17
-17z"/>
<path d="M3513 2110 c1 -21 10 -18 13 5 1 8 -2 15 -6 15 -5 0 -8 -9 -7 -20z"/>
<path d="M2780 2098 c0 -4 7 -8 15 -8 8 0 15 4 15 8 0 5 -7 9 -15 9 -8 0 -15
-4 -15 -9z"/>
<path d="M3478 2103 c7 -3 16 -2 19 1 4 3 -2 6 -13 5 -11 0 -14 -3 -6 -6z"/>
<path d="M4139 2104 c-1 -5 -1 -13 0 -18 1 -4 -3 -13 -8 -20 -7 -8 -4 -12 9
-13 11 -1 22 2 25 8 3 5 -1 6 -10 3 -11 -5 -14 -2 -9 9 3 10 12 13 22 10 18
-7 17 -5 -10 16 -10 7 -19 10 -19 5z"/>
<path d="M1854 2055 c5 -14 -6 -20 -29 -15 -5 1 -7 -2 -3 -6 4 -4 2 -14 -5
-23 -10 -14 -10 -14 4 -4 9 7 20 9 24 5 5 -4 5 -2 2 5 -4 6 -2 13 5 15 14 5
20 38 6 38 -6 0 -8 -7 -4 -15z"/>
<path d="M1876 2033 c-6 -14 -5 -15 5 -6 7 7 10 15 7 18 -3 3 -9 -2 -12 -12z"/>
<path d="M2775 2039 c-4 -6 -4 -13 -1 -16 3 -4 6 -1 6 6 0 7 5 9 12 5 7 -4 8
-3 4 4 -9 15 -13 15 -21 1z"/>
<path d="M4166 2042 c-3 -5 1 -9 9 -9 8 0 12 4 9 9 -3 4 -7 8 -9 8 -2 0 -6 -4
-9 -8z"/>
<path d="M4115 2024 c-9 -9 -14 -23 -11 -30 3 -8 0 -14 -7 -14 -8 0 -6 -4 3
-10 8 -5 22 -9 30 -9 10 0 9 3 -4 8 -16 6 -17 9 -5 17 14 9 19 10 40 13 5 0 7
6 3 12 -4 8 -9 7 -15 -2 -5 -8 -9 -10 -9 -5 0 5 -7 3 -15 -4 -9 -8 -15 -9 -15
-2 0 6 10 18 22 26 12 9 17 16 11 16 -6 0 -19 -7 -28 -16z"/>
<path d="M3475 2020 c6 -10 4 -12 -11 -6 -15 6 -17 5 -6 -5 9 -9 15 -10 23 -2
8 8 7 13 -2 18 -8 6 -10 4 -4 -5z"/>
<path d="M1867 1999 c7 -7 15 -10 18 -7 3 3 -2 9 -12 12 -14 6 -15 5 -6 -5z"/>
<path d="M3433 1997 c0 -20 24 -30 33 -14 4 7 4 9 -1 5 -4 -4 -13 0 -20 8 -11
15 -12 15 -12 1z"/>
<path d="M1820 1990 c-8 -5 -11 -10 -6 -10 4 0 1 -11 -8 -25 -9 -14 -12 -25
-7 -25 5 0 13 9 16 20 3 11 13 27 21 35 17 17 7 20 -16 5z"/>
<path d="M2752 1974 c-7 -8 -8 -14 -3 -14 10 0 25 19 20 25 -2 1 -10 -3 -17
-11z"/>
<path d="M1837 1966 c-4 -11 -5 -21 -2 -24 3 -3 5 0 5 7 0 7 4 10 9 6 5 -3 13
0 17 6 4 7 3 9 -4 5 -5 -3 -12 -1 -14 6 -3 7 -7 5 -11 -6z"/>
<path d="M3469 1963 c-13 -16 -12 -17 4 -4 16 13 21 21 13 21 -2 0 -10 -8 -17
-17z"/>
<path d="M3416 1954 c-5 -13 -4 -14 7 -6 8 7 18 8 22 4 5 -4 5 -1 1 6 -10 17
-23 15 -30 -4z"/>
<path d="M2714 1949 c-14 -23 -10 -90 5 -102 14 -10 14 -10 3 5 -10 13 -10 17
0 21 10 4 10 7 -1 15 -8 6 -9 12 -3 16 5 3 10 17 10 31 0 28 -3 31 -14 14z"/>
<path d="M4105 1940 c10 -11 20 -20 23 -20 3 0 -3 9 -13 20 -10 11 -20 20 -23
20 -3 0 3 -9 13 -20z"/>
<path d="M2741 1934 c0 -11 3 -14 6 -6 3 7 2 16 -1 19 -3 4 -6 -2 -5 -13z"/>
<path d="M2765 1940 c-3 -6 1 -7 9 -4 18 7 21 14 7 14 -6 0 -13 -4 -16 -10z"/>
<path d="M1815 1919 c-4 -6 -14 -8 -24 -4 -11 4 -13 3 -5 -5 12 -12 44 -4 44
11 0 12 -7 11 -15 -2z"/>
<path d="M1855 1909 c-4 -6 -5 -12 -2 -15 2 -3 7 2 10 11 7 17 1 20 -8 4z"/>
<path d="M3456 1907 c3 -10 9 -15 12 -12 3 3 0 11 -7 18 -10 9 -11 8 -5 -6z"/>
<path d="M3426 1895 c4 -8 8 -15 10 -15 2 0 4 7 4 15 0 8 -4 15 -10 15 -5 0
-7 -7 -4 -15z"/>
<path d="M3400 1860 c18 -12 30 -13 30 -2 0 4 -10 9 -22 9 -18 2 -20 0 -8 -7z"/>
<path d="M4090 1858 c0 -4 4 -8 9 -8 6 0 12 4 15 8 3 5 -1 9 -9 9 -8 0 -15 -4
-15 -9z"/>
<path d="M4070 1851 c0 -6 4 -13 10 -16 6 -3 7 1 4 9 -7 18 -14 21 -14 7z"/>
<path d="M3401 1823 c-1 -25 14 -39 25 -22 4 7 3 9 -4 5 -6 -3 -12 3 -15 16
-4 23 -4 23 -6 1z"/>
<path d="M2710 1799 c0 -5 5 -7 10 -4 6 3 10 8 10 11 0 2 -4 4 -10 4 -5 0 -10
-5 -10 -11z"/>
<path d="M1794 1786 c1 -8 5 -18 8 -22 4 -3 5 1 4 10 -1 8 -5 18 -8 22 -4 3
-5 -1 -4 -10z"/>
<path d="M3380 1786 c0 -2 7 -7 16 -10 8 -3 12 -2 9 4 -6 10 -25 14 -25 6z"/>
<path d="M4029 1783 c-1 -5 -1 -12 0 -16 1 -4 -3 -17 -9 -27 -7 -14 -7 -20 0
-20 5 0 10 7 10 15 0 8 4 15 9 15 5 0 11 7 14 14 4 11 1 13 -10 9 -11 -4 -14
-2 -9 5 4 7 5 12 2 12 -3 0 -7 -3 -7 -7z"/>
<path d="M2686 1738 c3 -5 10 -6 15 -3 13 9 11 12 -6 12 -8 0 -12 -4 -9 -9z"/>
<path d="M3396 1733 c-6 -14 -5 -15 5 -6 7 7 10 15 7 18 -3 3 -9 -2 -12 -12z"/>
<path d="M2670 1721 c0 -6 4 -13 10 -16 6 -3 7 1 4 9 -7 18 -14 21 -14 7z"/>
<path d="M4035 1711 c-3 -5 -2 -12 3 -15 5 -3 9 1 9 9 0 17 -3 19 -12 6z"/>
<path d="M3994 1698 c-4 -6 -3 -8 4 -4 6 3 13 2 17 -4 3 -5 1 -10 -6 -10 -7 0
-10 -3 -6 -6 10 -11 26 6 20 21 -6 18 -19 19 -29 3z"/>
<path d="M2690 1681 c0 -6 4 -13 10 -16 6 -3 7 1 4 9 -7 18 -14 21 -14 7z"/>
<path d="M3376 1675 c-9 -26 -7 -32 5 -12 6 10 9 21 6 23 -2 3 -7 -2 -11 -11z"/>
<path d="M3325 1671 c8 -15 -6 -42 -19 -34 -6 3 -8 3 -4 -2 4 -4 2 -15 -5 -23
-8 -11 -8 -14 0 -9 6 4 14 3 18 -3 3 -5 12 -10 18 -10 7 0 4 5 -6 11 -17 10
-16 12 3 39 17 24 18 29 4 34 -8 3 -13 2 -9 -3z"/>
<path d="M1731 1653 c7 -12 15 -20 18 -17 3 2 -3 12 -13 22 -17 16 -18 16 -5
-5z"/>
<path d="M4030 1666 c0 -2 7 -7 16 -10 8 -3 12 -2 9 4 -6 10 -25 14 -25 6z"/>
<path d="M1702 1643 c-7 -2 -17 -14 -23 -26 -11 -21 -11 -21 10 1 12 12 27 19
33 16 7 -4 8 -2 4 4 -4 7 -8 12 -9 11 -1 0 -8 -3 -15 -6z"/>
<path d="M4015 1640 c-3 -6 1 -7 9 -4 18 7 21 14 7 14 -6 0 -13 -4 -16 -10z"/>
<path d="M3335 1620 c-4 -6 1 -7 11 -3 13 5 15 3 9 -7 -5 -9 -4 -11 4 -6 6 4
9 12 6 17 -8 12 -22 12 -30 -1z"/>
<path d="M1708 1613 c7 -3 16 -2 19 1 4 3 -2 6 -13 5 -11 0 -14 -3 -6 -6z"/>
<path d="M3964 1608 c-4 -7 -2 -8 5 -4 6 4 18 3 25 -3 9 -8 13 -7 13 2 0 16
-34 20 -43 5z"/>
<path d="M1715 1579 c-4 -6 -5 -12 -2 -15 2 -3 7 2 10 11 7 17 1 20 -8 4z"/>
<path d="M3287 1577 c-6 -15 27 -17 40 -2 5 4 2 5 -4 1 -7 -4 -13 -2 -13 3 0
15 -17 14 -23 -2z"/>
<path d="M3280 1540 c-13 -8 -13 -10 2 -10 9 0 20 5 23 10 8 13 -5 13 -25 0z"/>
<path d="M3948 1543 c7 -3 16 -2 19 1 4 3 -2 6 -13 5 -11 0 -14 -3 -6 -6z"/>
<path d="M4000 1540 c-9 -6 -10 -10 -3 -10 6 0 15 5 18 10 8 12 4 12 -15 0z"/>
<path d="M1663 1532 c-14 -10 -38 -56 -24 -48 14 9 14 -7 0 -21 -7 -7 -6 -12
5 -16 10 -4 13 -1 9 9 -3 7 0 14 7 14 10 0 10 3 0 15 -15 19 4 47 26 38 8 -3
14 -3 14 0 0 9 -27 15 -37 9z"/>
<path d="M2586 1514 c-9 -24 -7 -27 9 -10 17 17 19 26 6 26 -5 0 -12 -7 -15
-16z"/>
<path d="M3950 1521 c0 -6 5 -13 12 -17 6 -4 8 -3 4 4 -3 5 0 13 6 15 8 3 6 6
-4 6 -10 1 -18 -3 -18 -8z"/>
<path d="M1670 1503 c0 -6 8 -17 18 -24 16 -13 16 -13 2 6 -8 11 -16 22 -17
24 -2 2 -3 0 -3 -6z"/>
<path d="M3306 1502 c-2 -4 4 -8 14 -8 10 0 16 4 14 8 -3 4 -9 8 -14 8 -5 0
-11 -4 -14 -8z"/>
<path d="M3921 1483 c-7 -16 -9 -25 -5 -21 4 4 13 0 21 -10 13 -15 13 -15 4 5
-6 12 -8 29 -5 37 10 27 -2 18 -15 -11z"/>
<path d="M3976 1493 c-6 -14 -5 -15 5 -6 7 7 10 15 7 18 -3 3 -9 -2 -12 -12z"/>
<path d="M2588 1478 c-9 -5 -6 -7 9 -5 12 2 25 6 28 8 8 9 -23 6 -37 -3z"/>
<path d="M3261 1481 c-10 -6 -10 -10 -1 -16 9 -6 9 -9 -1 -16 -11 -7 -12 -10
-1 -21 11 -11 13 -10 10 2 -2 9 3 14 12 12 12 -3 13 -1 3 9 -15 15 -17 33 -3
24 6 -3 10 -1 10 4 0 13 -10 14 -29 2z"/>
<path d="M2560 1460 c8 -5 20 -10 25 -10 6 0 3 5 -5 10 -8 5 -19 10 -25 10 -5
0 -3 -5 5 -10z"/>
<path d="M3970 1460 c0 -5 5 -10 11 -10 5 0 7 5 4 10 -3 6 -8 10 -11 10 -2 0
-4 -4 -4 -10z"/>
<path d="M1670 1440 c0 -5 5 -10 11 -10 5 0 7 5 4 10 -3 6 -8 10 -11 10 -2 0
-4 -4 -4 -10z"/>
<path d="M2556 1437 c3 -10 9 -15 12 -12 3 3 0 11 -7 18 -10 9 -11 8 -5 -6z"/>
<path d="M2595 1441 c-3 -5 -2 -12 3 -15 5 -3 9 1 9 9 0 17 -3 19 -12 6z"/>
<path d="M3910 1446 c0 -2 8 -10 18 -17 15 -13 16 -12 3 4 -13 16 -21 21 -21
13z"/>
<path d="M2536 1413 c-6 -14 -5 -15 5 -6 7 7 10 15 7 18 -3 3 -9 -2 -12 -12z"/>
<path d="M3907 1420 c6 -7 9 -19 6 -26 -3 -8 0 -14 7 -14 6 0 9 4 6 9 -4 5 -2
11 4 13 6 2 0 9 -12 17 -15 9 -19 9 -11 1z"/>
<path d="M3950 1418 c0 -4 4 -8 9 -8 6 0 12 4 15 8 3 5 -1 9 -9 9 -8 0 -15 -4
-15 -9z"/>
<path d="M3255 1399 c-4 -6 -4 -13 -1 -16 3 -4 6 -1 6 6 0 7 5 9 12 5 7 -4 8
-3 4 4 -9 15 -13 15 -21 1z"/>
<path d="M1612 1378 c2 -6 10 -13 16 -14 7 -1 8 0 2 3 -5 2 -8 9 -4 14 3 5 0
9 -6 9 -7 0 -10 -5 -8 -12z"/>
<path d="M1640 1386 c0 -2 7 -7 16 -10 8 -3 12 -2 9 4 -6 10 -25 14 -25 6z"/>
<path d="M2546 1353 c-6 -14 -5 -15 5 -6 7 7 10 15 7 18 -3 3 -9 -2 -12 -12z"/>
<path d="M3930 1359 c0 -5 5 -7 10 -4 6 3 10 8 10 11 0 2 -4 4 -10 4 -5 0 -10
-5 -10 -11z"/>
<path d="M1587 1353 c-12 -12 -7 -22 16 -33 20 -10 20 -10 5 3 -19 15 -25 32
-8 22 6 -3 10 -1 10 4 0 12 -13 14 -23 4z"/>
<path d="M3909 1337 c6 -8 7 -18 3 -22 -4 -5 -2 -5 5 -1 14 8 6 36 -9 36 -7 0
-6 -5 1 -13z"/>
<path d="M2517 1333 c-4 -3 -7 -11 -7 -17 0 -6 5 -5 12 2 6 6 9 14 7 17 -3 3
-9 2 -12 -2z"/>
<path d="M3203 1333 c4 -3 0 -17 -9 -31 -8 -13 -13 -26 -10 -30 11 -11 36 -11
43 0 3 6 1 8 -4 5 -12 -8 -22 12 -16 31 3 6 10 9 16 5 7 -4 6 1 -2 10 -7 9
-16 17 -19 17 -3 0 -2 -3 1 -7z"/>
<path d="M2513 1300 c-29 -12 -29 -15 0 -15 13 0 24 6 24 13 0 6 -1 12 -1 11
-1 0 -11 -4 -23 -9z"/>
<path d="M2559 1288 c-5 -18 -6 -38 -1 -34 7 8 12 36 6 36 -2 0 -4 -1 -5 -2z"/>
<path d="M2506 1271 c-3 -5 2 -15 12 -22 15 -12 16 -12 5 2 -7 9 -10 19 -6 22
3 4 4 7 0 7 -3 0 -8 -4 -11 -9z"/>
<path d="M3896 1253 c-6 -14 -5 -15 5 -6 7 7 10 15 7 18 -3 3 -9 -2 -12 -12z"/>
<path d="M1582 1237 c10 -8 14 -18 10 -22 -4 -5 -1 -5 6 -1 17 10 15 14 -10
26 -21 10 -21 10 -6 -3z"/>
<path d="M3180 1241 c0 -6 5 -11 11 -11 8 0 7 -5 -1 -15 -7 -9 -10 -18 -6 -22
3 -3 6 -1 6 6 0 9 6 9 23 1 20 -10 20 -10 5 3 -10 8 -15 16 -13 19 3 3 -1 11
-10 18 -10 8 -15 9 -15 1z"/>
<path d="M3870 1214 c0 -9 -5 -12 -12 -8 -7 4 -9 3 -5 -1 15 -17 35 -13 30 6
-6 23 -13 25 -13 3z"/>
<path d="M3158 1188 c15 -15 16 -32 2 -23 -5 3 -10 1 -10 -4 0 -21 -2 -26 -13
-41 -10 -13 -10 -13 4 -3 9 7 18 12 20 10 2 -1 1 2 -3 7 -4 5 0 14 8 20 16 12
10 46 -9 46 -7 0 -7 -4 1 -12z"/>
<path d="M1567 1173 c3 -7 6 -13 8 -13 2 0 5 6 8 13 3 8 -1 14 -8 14 -7 0 -11
-6 -8 -14z"/>
<path d="M2470 1184 c0 -1 8 -8 17 -15 9 -8 14 -9 10 -2 -4 6 -1 13 5 16 7 3
3 4 -9 4 -13 -1 -23 -2 -23 -3z"/>
<path d="M2460 1160 c0 -5 5 -10 11 -10 5 0 7 5 4 10 -3 6 -8 10 -11 10 -2 0
-4 -4 -4 -10z"/>
<path d="M3807 1137 l-17 -32 20 24 c17 20 26 41 18 41 -2 0 -11 -15 -21 -33z"/>
<path d="M1550 1134 c0 -9 -5 -12 -12 -8 -7 4 -9 3 -5 -1 15 -17 35 -13 30 6
-6 23 -13 25 -13 3z"/>
<path d="M2443 1135 c0 -8 4 -12 8 -9 5 3 17 0 28 -6 15 -7 22 -7 27 2 4 7 4
10 -1 6 -4 -4 -20 -1 -35 7 -23 12 -27 12 -27 0z"/>
<path d="M3830 1132 c0 -15 28 -23 36 -9 4 7 4 9 -1 5 -4 -4 -14 -3 -22 3 -8
7 -13 8 -13 1z"/>
<path d="M2433 1093 c3 -12 -1 -27 -9 -34 -9 -7 -11 -20 -7 -37 4 -17 2 -23
-5 -18 -6 3 -14 1 -18 -6 -4 -7 -4 -10 1 -6 4 4 13 4 19 -2 8 -6 12 -2 13 13
1 12 7 23 13 25 5 2 10 8 10 14 0 6 -6 6 -15 -2 -9 -8 -15 -9 -15 -2 0 11 19
27 32 27 3 0 9 3 12 8 3 4 3 5 -1 2 -4 -3 -13 5 -21 17 l-13 23 4 -22z"/>
<path d="M2454 1102 c4 -3 14 -7 22 -8 9 -1 13 0 10 4 -4 3 -14 7 -22 8 -9 1
-13 0 -10 -4z"/>
<path d="M3798 1085 c-18 -24 -15 -55 5 -55 6 0 7 3 4 7 -4 3 1 16 10 27 18
21 18 21 -4 2 -13 -11 -23 -14 -23 -8 0 7 9 17 20 24 11 7 20 16 20 20 0 15
-15 7 -32 -17z"/>
<path d="M1495 1081 c2 -9 4 -19 4 -23 1 -4 10 -6 21 -5 18 1 18 11 -1 13 -22
3 -22 6 1 13 l25 7 -26 6 c-21 4 -26 1 -24 -11z"/>
<path d="M3150 1069 c0 -5 5 -7 10 -4 6 3 10 8 10 11 0 2 -4 4 -10 4 -5 0 -10
-5 -10 -11z"/>
<path d="M2475 1060 c-3 -5 -1 -10 4 -10 6 0 11 5 11 10 0 6 -2 10 -4 10 -3 0
-8 -4 -11 -10z"/>
<path d="M3115 1051 c1 -9 -5 -22 -14 -29 -14 -11 -13 -11 7 -2 13 6 20 16 16
22 -5 7 -2 9 9 5 10 -4 14 -2 11 7 -7 18 -32 16 -29 -3z"/>
<path d="M1491 1027 c16 -31 18 -32 16 -8 -1 11 -7 23 -14 26 -11 4 -11 0 -2
-18z"/>
<path d="M3135 1019 c-4 -6 -5 -12 -2 -15 2 -3 7 2 10 11 7 17 1 20 -8 4z"/>
<path d="M1470 1006 c0 -2 7 -9 15 -16 13 -11 14 -10 9 4 -5 14 -24 23 -24 12z"/>
<path d="M3790 1002 c0 -5 7 -9 15 -9 8 0 12 4 9 9 -3 4 -9 8 -15 8 -5 0 -9
-4 -9 -8z"/>
<path d="M1516 973 c-6 -14 -5 -15 5 -6 7 7 10 15 7 18 -3 3 -9 -2 -12 -12z"/>
<path d="M2390 972 c0 -4 10 -9 22 -9 18 -2 20 0 8 7 -18 12 -30 13 -30 2z"/>
<path d="M3774 958 c-4 -5 -3 -12 0 -15 3 -4 6 -1 6 6 0 7 4 10 9 6 5 -3 12
-2 15 3 3 5 -2 9 -10 9 -8 0 -17 -4 -20 -9z"/>
<path d="M1466 923 c-6 -14 -5 -15 5 -6 7 7 10 15 7 18 -3 3 -9 -2 -12 -12z"/>
<path d="M2376 917 c5 -28 12 -33 27 -17 8 9 8 11 0 6 -6 -3 -14 -2 -17 3 -4
5 4 11 16 13 22 3 21 4 -4 9 -22 5 -26 3 -22 -14z"/>
<path d="M3726 921 c-4 -6 -2 -11 5 -11 8 0 8 -4 -1 -15 -11 -13 -10 -14 4 -9
18 7 19 13 7 33 -6 9 -11 10 -15 2z"/>
<path d="M1475 880 c3 -5 8 -10 11 -10 2 0 4 5 4 10 0 6 -5 10 -11 10 -5 0 -7
-4 -4 -10z"/>
<path d="M2367 870 c3 -11 9 -20 15 -20 5 0 4 9 -2 20 -6 11 -12 20 -14 20 -2
0 -2 -9 1 -20z"/>
<path d="M2400 880 c-12 -7 -10 -9 7 -7 12 0 19 5 17 9 -6 10 -6 10 -24 -2z"/>
<path d="M3115 869 c-4 -6 -5 -12 -2 -15 2 -3 7 2 10 11 7 17 1 20 -8 4z"/>
<path d="M3750 869 c0 -5 5 -7 10 -4 6 3 10 8 10 11 0 2 -4 4 -10 4 -5 0 -10
-5 -10 -11z"/>
<path d="M2340 827 c-11 -19 -11 -20 1 -11 8 6 21 13 28 16 13 4 13 5 0 10 -9
4 -21 -2 -29 -15z"/>
<path d="M3736 838 c3 -5 10 -6 15 -3 13 9 11 12 -6 12 -8 0 -12 -4 -9 -9z"/>
<path d="M2337 799 c-10 -6 -15 -14 -12 -20 4 -5 1 -9 -4 -9 -6 0 -11 -5 -11
-11 0 -8 5 -8 15 1 8 7 12 16 9 21 -3 5 -1 9 5 9 5 0 11 -8 13 -17 3 -15 5
-14 10 4 7 28 -1 35 -25 22z"/>
<path d="M2330 745 c0 -7 30 -13 34 -7 3 4 -4 9 -15 9 -10 1 -19 0 -19 -2z"/>
<path d="M3660 748 c0 -2 9 -11 20 -21 11 -9 20 -13 20 -7 0 5 -9 14 -20 20
-11 6 -20 9 -20 8z"/>
<path d="M2305 729 c-4 -5 -4 -13 -1 -16 3 -3 1 -12 -5 -19 -6 -7 -12 -25 -14
-41 -2 -25 -2 -26 11 -8 8 10 20 23 26 28 9 6 8 7 -4 3 -19 -6 -25 9 -8 19 5
3 7 12 3 20 -4 11 -1 13 11 9 9 -3 13 -10 10 -15 -3 -5 -1 -17 5 -26 8 -15 9
-13 7 11 -3 31 -30 54 -41 35z"/>
<path d="M2994 698 c0 -10 6 -20 13 -22 7 -3 10 1 6 11 -3 8 0 19 8 24 10 6 9
8 -6 7 -13 -1 -21 -9 -21 -20z"/>
<path d="M3670 680 c0 -5 5 -10 10 -10 6 0 10 5 10 10 0 6 -4 10 -10 10 -5 0
-10 -4 -10 -10z"/>
<path d="M2975 660 c-3 -6 1 -7 9 -4 18 7 21 14 7 14 -6 0 -13 -4 -16 -10z"/>
<path d="M2314 642 c3 -5 0 -13 -6 -15 -9 -4 -10 -6 -1 -6 17 -1 25 16 12 25
-7 4 -9 3 -5 -4z"/>
<path d="M2990 643 c0 -5 5 -15 11 -23 9 -13 10 -13 6 2 -3 9 -1 19 6 22 7 2
4 5 -5 5 -10 1 -18 -2 -18 -6z"/>
<path d="M2271 606 c-9 -11 -9 -16 0 -22 7 -4 9 -3 5 4 -3 5 0 12 6 15 7 2 10
7 7 11 -3 4 -12 0 -18 -8z"/>
<path d="M2943 586 c-3 -5 -1 -6 5 -2 7 4 12 3 12 -3 0 -5 -8 -15 -17 -20 -10
-6 -14 -11 -10 -11 4 0 3 -8 -2 -18 -7 -13 -7 -22 1 -30 7 -7 4 -13 -11 -21
-12 -7 -21 -17 -20 -24 0 -9 2 -9 6 1 2 6 11 12 18 12 18 0 26 25 12 40 -9 10
-7 11 13 6 21 -6 22 -5 7 4 -13 9 -15 15 -7 31 6 11 16 16 22 13 7 -5 8 -2 3
6 -4 7 -2 16 6 21 10 6 7 8 -9 6 -13 -1 -26 -6 -29 -11z"/>
<path d="M2290 586 c0 -2 7 -7 16 -10 8 -3 12 -2 9 4 -6 10 -25 14 -25 6z"/>
<path d="M2990 560 c0 -5 5 -10 11 -10 5 0 7 5 4 10 -3 6 -8 10 -11 10 -2 0
-4 -4 -4 -10z"/>
<path d="M3666 558 c3 -5 10 -6 15 -3 13 9 11 12 -6 12 -8 0 -12 -4 -9 -9z"/>
<path d="M2222 441 c-10 -6 -10 -10 3 -21 13 -11 14 -10 9 5 -5 13 -4 16 4 11
7 -4 12 -2 12 3 0 13 -10 14 -28 2z"/>
<path d="M3590 443 c0 -6 8 -17 18 -24 16 -13 16 -13 2 6 -8 11 -16 22 -17 24
-2 2 -3 0 -3 -6z"/>
<path d="M2931 414 c0 -11 3 -14 6 -6 3 7 2 16 -1 19 -3 4 -6 -2 -5 -13z"/>
<path d="M2889 377 c7 -7 14 -8 21 -1 6 6 2 10 -12 11 -16 2 -18 -1 -9 -10z"/>
<path d="M2916 353 c-6 -14 -5 -15 5 -6 7 7 10 15 7 18 -3 3 -9 -2 -12 -12z"/>
<path d="M2862 327 c-7 -8 -6 -18 4 -31 12 -17 14 -18 14 -3 0 9 -5 17 -11 17
-5 0 -7 5 -4 11 4 6 14 8 22 5 8 -3 11 -1 8 4 -8 14 -20 13 -33 -3z"/>
<path d="M2200 299 c0 -5 5 -7 10 -4 6 3 10 8 10 11 0 2 -4 4 -10 4 -5 0 -10
-5 -10 -11z"/>
<path d="M2847 284 c-3 -3 -3 -12 0 -20 3 -8 1 -14 -5 -14 -15 0 -23 -28 -10
-36 6 -4 8 -3 4 4 -3 6 4 18 16 27 16 12 19 19 10 22 -6 3 -10 9 -6 14 6 10 1
12 -9 3z"/>
<path d="M2167 249 c7 -7 15 -10 18 -7 3 3 -2 9 -12 12 -14 6 -15 5 -6 -5z"/>
<path d="M3498 229 c-10 -10 -15 -19 -10 -19 10 1 42 26 42 34 0 11 -15 5 -32
-15z"/>
<path d="M2141 227 c-9 -12 -8 -16 3 -20 19 -7 32 11 19 24 -6 6 -14 5 -22 -4z"/>
<path d="M2850 216 c0 -8 4 -17 9 -20 5 -4 7 3 4 14 -6 23 -13 26 -13 6z"/>
<path d="M2880 220 c-9 -6 -10 -10 -3 -10 6 0 15 5 18 10 8 12 4 12 -15 0z"/>
<path d="M2176 193 c-6 -14 -5 -15 5 -6 7 7 10 15 7 18 -3 3 -9 -2 -12 -12z"/>
<path d="M3510 201 c0 -6 4 -12 8 -15 5 -3 9 1 9 9 0 8 -4 15 -9 15 -4 0 -8
-4 -8 -9z"/>
<path d="M2815 178 c1 -12 7 -23 14 -24 6 -1 7 0 2 2 -5 3 -7 14 -4 24 3 11 1
20 -4 20 -5 0 -9 -10 -8 -22z"/>
<path d="M3477 193 c-2 -5 -4 -24 -4 -43 0 -19 1 -25 4 -13 3 15 10 20 21 17
15 -5 15 -4 0 6 -10 6 -18 16 -18 22 0 6 7 5 18 -3 15 -13 16 -12 3 4 -15 19
-18 20 -24 10z"/>
<path d="M2166 162 c-3 -5 1 -9 9 -9 8 0 12 4 9 9 -3 4 -7 8 -9 8 -2 0 -6 -4
-9 -8z"/>
<path d="M1750 126 c0 -2 9 -6 20 -9 11 -3 18 -1 14 4 -5 9 -34 13 -34 5z"/>
<path d="M1959 128 c-5 -18 -6 -38 -1 -34 7 8 12 36 6 36 -2 0 -4 -1 -5 -2z"/>
<path d="M2650 120 c0 -5 5 -10 11 -10 5 0 7 5 4 10 -3 6 -8 10 -11 10 -2 0
-4 -4 -4 -10z"/>
<path d="M2710 120 c0 -5 5 -10 11 -10 5 0 7 5 4 10 -3 6 -8 10 -11 10 -2 0
-4 -4 -4 -10z"/>
<path d="M1730 117 c0 -2 6 -10 14 -16 11 -9 16 -9 22 1 4 7 4 10 -1 6 -4 -4
-14 -3 -22 3 -7 6 -13 9 -13 6z"/>
<path d="M2756 107 c3 -10 9 -15 12 -12 3 3 0 11 -7 18 -10 9 -11 8 -5 -6z"/>
<path d="M1890 99 c0 -5 5 -7 10 -4 6 3 10 8 10 11 0 2 -4 4 -10 4 -5 0 -10
-5 -10 -11z"/>
<path d="M3330 99 c0 -5 5 -7 10 -4 6 3 10 8 10 11 0 2 -4 4 -10 4 -5 0 -10
-5 -10 -11z"/>
</g>
</svg>
