<?xml version="1.0" standalone="no"?>
<!DOCTYPE svg PUBLIC "-//W3C//DTD SVG 20010904//EN"
 "http://www.w3.org/TR/2001/REC-SVG-20010904/DTD/svg10.dtd">
<svg version="1.0" xmlns="http://www.w3.org/2000/svg"
 width="645.000000pt" height="645.000000pt" viewBox="0 0 645.000000 645.000000"
 preserveAspectRatio="xMidYMid meet">
<metadata>
Created by potrace 1.14, written by Peter Selinger 2001-2017
</metadata>
<g transform="translate(0.000000,645.000000) scale(0.100000,-0.100000)"
fill="#000000" stroke="none">
<path d="M3605 6409 c-88 -21 -173 -41 -190 -44 -16 -3 -64 -14 -105 -25 -41
-10 -176 -42 -300 -70 -124 -28 -270 -62 -325 -75 -55 -13 -111 -26 -125 -29
-14 -3 -74 -16 -135 -31 -60 -14 -158 -37 -216 -50 -59 -14 -113 -27 -120 -30
-8 -2 -25 -6 -39 -9 -14 -2 -106 -23 -205 -46 -99 -23 -227 -53 -285 -66 -241
-56 -910 -204 -923 -204 -8 0 -25 -8 -38 -19 l-23 -19 33 -148 c18 -82 34
-156 36 -164 2 -8 19 -85 39 -170 19 -85 71 -315 116 -510 44 -195 82 -364 84
-375 3 -11 20 -88 40 -171 19 -84 37 -164 40 -178 3 -14 7 -34 10 -44 3 -9 7
-28 10 -42 2 -14 23 -106 46 -205 22 -99 57 -250 76 -335 19 -85 42 -184 50
-220 8 -36 17 -76 20 -90 10 -43 12 -51 49 -215 25 -110 46 -174 65 -205 35
-58 279 -445 450 -715 73 -115 140 -222 149 -237 9 -15 93 -147 186 -294 94
-147 179 -282 190 -300 58 -97 341 -542 354 -557 21 -25 48 -18 146 36 44 24
121 65 170 92 50 26 164 88 255 138 91 49 192 104 225 122 33 18 110 59 170
92 61 33 142 77 180 98 39 21 84 45 100 55 17 10 66 37 110 60 96 51 305 164
395 214 36 20 88 48 115 62 28 14 59 31 70 37 11 7 65 36 120 66 98 53 151 82
258 140 28 15 111 60 182 99 149 80 243 133 267 147 14 9 106 290 358 1100 38
121 96 308 130 415 62 195 247 788 405 1293 64 205 82 273 74 285 -6 10 -65
46 -132 82 -67 36 -155 83 -197 105 -41 23 -115 63 -165 89 -178 96 -221 119
-270 146 -27 15 -84 45 -125 68 -126 67 -602 323 -655 352 -27 15 -75 41 -105
57 -30 16 -245 132 -476 256 -232 125 -430 227 -440 226 -11 0 -91 -18 -179
-40z m129 -116 c-2 -52 -15 -266 -19 -333 -2 -30 -6 -104 -10 -165 -3 -60 -7
-146 -10 -190 -2 -44 -7 -127 -10 -185 -4 -58 -8 -134 -10 -170 -2 -36 -7
-114 -10 -175 -3 -60 -8 -141 -10 -180 -5 -70 -11 -187 -20 -345 -2 -47 -7
-132 -10 -190 -4 -58 -8 -133 -10 -168 -2 -35 -5 -65 -7 -67 -5 -5 -279 -106
-295 -109 -7 -1 -16 -5 -19 -9 -13 -12 -40 -7 -60 11 -10 9 -68 62 -129 117
-60 55 -128 116 -150 136 -22 21 -52 48 -66 61 -14 12 -68 62 -120 110 -52 47
-103 95 -115 105 -12 10 -61 55 -110 99 -134 123 -134 123 -229 209 -48 44
-104 95 -124 114 -20 18 -70 64 -111 101 -41 37 -87 79 -101 91 -155 142 -216
198 -239 219 -26 24 -178 163 -224 205 -13 11 -64 58 -115 104 l-92 85 63 13
c35 8 71 16 81 18 26 7 44 11 147 35 124 28 86 19 410 95 157 37 359 84 450
105 403 92 492 113 605 140 66 15 161 38 210 49 50 12 164 39 255 60 213 50
206 50 204 4z m189 -22 c40 -21 216 -116 392 -211 176 -95 349 -188 385 -207
94 -51 442 -238 530 -286 41 -22 239 -129 440 -237 201 -108 397 -214 435
-235 39 -20 71 -38 73 -40 1 -1 -51 -21 -115 -44 -65 -24 -165 -60 -223 -81
-156 -57 -573 -208 -665 -240 -44 -16 -143 -52 -220 -80 -157 -58 -355 -130
-370 -134 -5 -2 -21 -8 -35 -13 -14 -6 -70 -26 -125 -46 -156 -55 -665 -240
-696 -252 -14 -5 -16 1 -14 42 2 26 6 95 9 153 4 58 9 139 11 180 6 90 13 218
20 360 3 58 7 130 10 160 2 30 7 111 10 180 3 69 8 152 10 185 2 33 7 112 10
175 3 63 7 140 10 170 2 30 7 114 11 185 3 72 7 146 9 165 2 19 4 67 6 105 2
68 5 85 15 85 3 0 38 -17 77 -39z m-2643 -607 c25 -23 59 -55 76 -70 97 -89
209 -191 224 -204 30 -26 202 -183 267 -244 35 -32 73 -68 86 -78 12 -11 58
-53 102 -93 44 -41 90 -82 101 -92 12 -10 64 -57 115 -105 52 -47 104 -95 116
-106 13 -10 64 -57 115 -104 140 -129 138 -127 239 -218 51 -47 121 -110 154
-140 33 -30 82 -76 110 -101 27 -25 76 -71 108 -100 l59 -55 -79 -26 c-66 -23
-567 -204 -614 -223 -17 -6 -23 -2 -74 56 -63 72 -250 285 -260 295 -32 36
-144 163 -220 249 -48 55 -114 129 -145 165 -32 36 -68 76 -80 90 -12 14 -34
39 -48 55 -15 17 -56 64 -92 105 -36 41 -70 80 -76 85 -6 6 -39 43 -75 84 -35
41 -71 82 -79 91 -8 9 -42 47 -75 85 -33 38 -65 73 -70 79 -6 6 -42 47 -80 91
-39 44 -72 82 -75 85 -3 3 -36 41 -75 85 -38 44 -84 96 -102 115 -85 94 -103
115 -103 120 0 3 102 28 228 56 l227 50 25 -20 c13 -12 45 -40 70 -62z m-430
-314 c30 -35 62 -71 70 -80 12 -13 127 -144 250 -284 14 -15 34 -38 45 -50 11
-12 47 -53 80 -91 33 -37 65 -73 70 -79 6 -6 39 -45 75 -86 36 -41 74 -84 85
-95 11 -12 45 -50 75 -85 30 -35 60 -68 65 -74 6 -6 39 -44 75 -85 36 -41 72
-82 80 -91 8 -9 42 -47 75 -84 33 -38 65 -74 70 -80 9 -10 149 -169 352 -400
53 -60 63 -77 64 -111 1 -47 3 -76 14 -210 4 -55 8 -124 9 -153 l1 -54 -60
-24 c-33 -13 -154 -59 -270 -104 -115 -44 -219 -85 -230 -90 -93 -41 -491
-188 -496 -182 -4 4 -26 90 -48 192 -23 102 -45 196 -48 210 -3 14 -7 30 -8
35 -2 6 -22 93 -45 195 -23 102 -46 201 -50 220 -6 26 -75 335 -115 510 -2 8
-15 65 -29 125 -13 61 -43 189 -64 285 -22 96 -64 279 -92 405 -29 127 -70
304 -90 395 l-38 164 37 -40 c20 -22 61 -69 91 -104z m5370 -401 c0 -11 -37
-131 -88 -283 l-27 -79 -255 -99 c-140 -55 -289 -112 -330 -127 -77 -30 -402
-155 -1075 -416 -337 -131 -477 -184 -703 -271 -57 -22 -63 -23 -58 -7 2 10 8
81 11 158 8 172 12 217 22 225 9 7 148 59 458 170 110 39 223 80 250 90 65 26
687 251 700 254 6 2 17 6 25 9 8 4 188 69 400 146 212 76 446 161 520 189 152
57 150 56 150 41z m-184 -595 c-41 -129 -127 -405 -197 -629 -28 -88 -56 -178
-64 -200 -7 -22 -32 -101 -55 -175 -23 -74 -63 -205 -90 -290 -129 -409 -166
-530 -227 -725 -36 -115 -68 -213 -72 -217 -3 -4 -24 10 -47 30 -174 159 -229
209 -244 222 -9 8 -59 53 -110 100 -51 47 -102 94 -114 105 -57 52 -210 191
-220 200 -25 24 -297 271 -390 355 -27 25 -67 61 -88 81 -21 20 -57 54 -81 74
-23 21 -88 80 -144 132 -55 51 -113 103 -127 114 -14 11 -26 24 -26 28 0 4 26
17 58 28 31 12 102 39 157 61 102 40 828 320 1150 444 99 38 221 85 270 104
50 19 99 39 110 44 11 5 139 54 285 109 146 56 272 105 280 110 8 5 16 8 18 6
1 -1 -13 -51 -32 -111z m-2432 -360 c-1 -5 -5 -72 -9 -149 -3 -77 -8 -141 -9
-142 -2 -2 -14 7 -28 19 -174 159 -208 192 -203 197 10 10 230 89 240 86 6 -1
9 -6 9 -11z m-334 -145 c70 -63 234 -214 254 -233 19 -19 19 -20 -40 -42 -32
-12 -263 -101 -513 -198 -250 -97 -456 -174 -457 -173 -6 5 -16 119 -30 312
l-6 90 313 113 c173 63 341 124 374 137 33 13 62 24 65 25 3 0 21 -14 40 -31z
m306 -376 c-3 -16 -7 -86 -10 -158 -4 -71 -8 -155 -11 -185 -3 -30 -7 -107
-10 -170 -3 -63 -7 -142 -9 -175 -3 -33 -7 -116 -11 -185 -4 -69 -8 -150 -10
-180 -2 -30 -6 -107 -10 -170 -3 -63 -8 -149 -10 -190 -3 -41 -7 -118 -10
-170 -14 -254 -26 -448 -30 -520 -9 -136 -18 -306 -17 -321 1 -15 -33 -35
-263 -160 -27 -14 -102 -55 -165 -89 -63 -34 -149 -81 -190 -103 -41 -22 -85
-46 -97 -54 -21 -12 -23 -12 -24 4 -1 10 -2 32 -4 48 -1 17 -5 75 -9 130 -4
55 -9 116 -11 135 -2 19 -6 76 -9 125 -4 50 -9 115 -11 145 -2 30 -7 93 -10
140 -4 47 -8 105 -10 130 -2 25 -6 83 -10 130 -3 47 -8 110 -10 140 -3 30 -7
89 -10 130 -3 41 -8 95 -10 120 -3 39 -11 148 -20 280 -4 58 -17 233 -21 270
-1 19 -6 80 -9 135 -4 55 -8 116 -10 135 -2 19 -6 80 -10 135 -4 55 -9 103
-11 107 -4 6 81 40 476 193 63 25 219 85 345 134 127 50 233 90 238 91 4 0 5
-12 3 -27z m268 -149 c61 -54 117 -106 126 -114 9 -8 58 -53 110 -100 52 -47
117 -106 145 -132 27 -25 59 -55 71 -65 12 -10 65 -58 119 -108 111 -102 110
-102 230 -210 48 -44 100 -91 115 -105 15 -14 64 -59 110 -100 46 -41 97 -88
115 -105 59 -55 217 -200 252 -229 l34 -29 -53 -29 c-29 -16 -91 -50 -138 -75
-80 -43 -113 -61 -245 -133 -62 -34 -125 -68 -240 -130 -44 -24 -100 -54 -125
-68 -25 -13 -126 -68 -225 -122 -99 -54 -200 -109 -225 -122 -25 -14 -81 -45
-125 -68 -44 -24 -140 -76 -214 -117 -74 -40 -136 -73 -138 -73 -2 0 -1 35 2
77 2 43 7 125 10 183 4 97 9 176 20 335 2 33 7 121 10 195 4 74 8 151 10 170
2 19 6 103 10 185 3 83 8 161 10 175 2 14 7 90 11 170 3 80 8 165 9 190 1 25
6 104 10 175 4 72 8 150 10 175 2 25 7 105 10 179 4 74 9 141 10 150 2 9 4 18
4 20 1 3 13 -6 29 -20 15 -14 76 -70 136 -125z m-1423 -301 c0 -16 2 -39 4
-53 1 -14 6 -74 10 -135 4 -60 8 -126 10 -145 2 -19 6 -78 9 -130 4 -52 9
-115 11 -140 2 -25 7 -83 10 -130 4 -47 8 -107 10 -135 3 -27 7 -88 10 -135 3
-47 7 -105 10 -130 2 -25 7 -85 10 -135 3 -49 8 -110 10 -135 2 -25 6 -85 10
-135 3 -49 8 -110 10 -135 3 -25 7 -83 10 -130 3 -47 8 -110 10 -140 2 -30 7
-93 10 -140 3 -47 8 -107 11 -134 7 -63 1 -57 -96 98 -41 66 -90 142 -107 170
-18 28 -36 58 -40 66 -4 8 -11 20 -16 25 -4 6 -65 100 -134 210 -69 110 -178
283 -243 385 -462 731 -562 891 -558 895 2 2 197 79 433 170 237 91 462 179
500 194 88 37 95 37 96 4z"/>
</g>
</svg>
